<?xml version="1.0" encoding="UTF-8" standalone="no"?>
<!DOCTYPE svg PUBLIC "-//W3C//DTD SVG 1.1//EN" "http://www.w3.org/Graphics/SVG/1.1/DTD/svg11.dtd">
<svg width="100%" height="100%" viewBox="0 0 333 443" version="1.1" xmlns="http://www.w3.org/2000/svg" xmlns:xlink="http://www.w3.org/1999/xlink" xml:space="preserve" xmlns:serif="http://www.serif.com/" style="fill-rule:evenodd;clip-rule:evenodd;stroke-linejoin:round;stroke-miterlimit:2;">
    <g transform="matrix(1,0,0,1,-63.5129,-1225.35)">
        <g transform="matrix(1,0,0,1,-36445.7,-500.501)">
            <g transform="matrix(4.16667,0,0,4.16667,36000,0)">
                <g id="Vejviser">
                    <g transform="matrix(1,0,0,1,146.155,447.689)">
                        <path d="M0,39.272C0.547,39.458 0.959,39.296 1.329,38.857C0.369,38.409 0.369,38.409 0,39.272M31.762,-5.57C32.401,-4.774 32.411,-4.759 32.974,-5.119C33.081,-5.188 33.076,-5.43 33.168,-5.745C32.645,-5.68 32.245,-5.63 31.762,-5.57M-5.884,40.611C-5.001,40.346 -4.186,40.195 -3.73,39.263C-4.424,38.733 -5.093,38.453 -5.956,38.6C-6.268,39.228 -6.4,39.82 -5.884,40.611M13.427,22.855C12.709,22.281 11.889,22.513 11.121,22.477C10.398,22.443 9.67,22.445 8.947,22.482C8.19,22.521 7.346,22.273 6.64,23.138C6.829,24.342 7.044,25.629 7.231,26.919C7.426,28.261 6.968,29.674 7.58,30.944C9.576,31.395 11.772,31.204 13.943,30.372C13.842,29.195 13.722,27.971 13.638,26.744C13.549,25.447 13.496,24.147 13.427,22.855M16.395,-29.963C15.248,-29.531 14.452,-29.246 13.667,-28.932C12.517,-28.472 11.386,-28.294 10.232,-28.938C9.977,-29.08 9.641,-29.075 9.309,-29.145C9.309,-27.379 9.131,-25.717 9.351,-24.109C9.677,-21.732 9.8,-19.399 9.343,-17.031C9.199,-16.285 9.084,-15.453 9.777,-14.63C11.57,-14.52 13.452,-14.437 15.206,-14.674C15.733,-15.314 15.968,-15.872 15.798,-16.479C15.533,-17.424 15.794,-18.304 15.973,-19.21C16.241,-20.566 16.676,-21.949 16.342,-23.319C15.989,-24.766 16.077,-26.197 16.128,-27.64C16.151,-28.279 16.27,-28.913 16.395,-29.963M-12.119,38.073C-12.278,40.176 -12.302,42.087 -12.1,43.996C-12.053,44.445 -11.873,44.904 -11.661,45.309C-11.201,46.187 -10.497,46.755 -9.446,46.723C-8.852,46.705 -8.257,46.661 -7.666,46.596C-7.141,46.538 -6.622,46.376 -6.098,46.363C-3.301,46.296 -0.59,45.661 2.138,45.139C4.348,44.717 6.549,44.348 8.817,44.686C9.455,44.781 10.132,44.629 10.788,44.569C12.959,44.37 15.126,44.113 17.301,43.968C20.14,43.778 22.984,43.676 25.826,43.528C26.089,43.515 26.348,43.435 26.611,43.406C27.398,43.319 28.187,43.241 28.975,43.162C30.62,42.997 32.266,42.855 33.907,42.656C34.358,42.601 34.815,42.432 35.226,42.227C36.35,41.668 37.462,41.083 38.557,40.469C39.943,39.691 41.272,38.803 42.692,38.097C43.661,37.615 44.423,36.937 45.186,36.329C45.149,35.386 44.606,34.868 44.037,34.426C42.683,33.373 41.287,32.374 39.854,31.314C39.582,31.295 39.251,31.238 38.924,31.256C36.677,31.376 34.43,31.504 32.184,31.644C31.262,31.701 30.312,31.667 29.429,31.89C26.414,32.652 23.401,32.594 20.359,32.134C19.784,32.048 19.177,32.138 18.588,32.185C18.195,32.217 17.808,32.373 17.417,32.38C15.7,32.414 13.983,32.444 12.267,32.417C10.659,32.391 9.107,32.64 7.58,33.126C7.216,33.242 6.815,33.248 6.429,33.285C5.709,33.356 4.984,33.386 4.267,33.479C2.359,33.725 0.566,34.391 -1.231,35.04C-2.728,35.58 -4.222,36.143 -5.86,36.057C-5.943,36.052 -6.033,36.196 -6.208,36.347C-5.872,36.582 -5.575,36.96 -5.246,36.99C-3.938,37.106 -2.919,37.868 -1.847,38.461C-0.622,36.844 -0.619,36.888 1.298,36.778C2.348,36.718 3.387,36.477 4.432,36.324C4.861,36.261 5.292,36.215 5.937,36.135C5.311,37.483 3.672,37.044 3.168,38.283C3.504,38.555 3.848,38.834 4.267,39.174C3.977,39.816 2.977,40.263 3.573,41.292C4.017,41.473 4.536,41.683 5.133,41.926C4.59,42.947 3.799,43.161 2.905,43.113C2.077,43.069 1.599,42.561 1.336,41.802C1.231,41.5 1.065,41.219 0.892,40.855C0.413,40.915 -0.016,40.969 -0.348,41.011C-1.053,42.118 -0.429,42.849 0.139,43.577C-0.721,43.873 -0.721,43.873 -1.73,43.473C-1.933,42.606 -2.161,41.627 -2.447,40.403C-2.935,41.447 -3.204,42.315 -3.705,43.019C-4.316,43.879 -5.354,44.047 -6.305,44.201C-7.481,43.693 -7.899,42.804 -7.869,41.631C-7.831,40.122 -7.814,38.611 -7.786,36.996C-9.366,36.626 -10.493,37.843 -12.119,38.073M38.045,19.564C38.958,18.749 39.268,17.885 39.331,17.061C39.545,14.231 39.823,11.383 39.088,8.576C39.039,8.389 38.929,8.219 38.843,8.032C37.853,7.319 36.747,7.302 35.607,7.443C33.708,7.678 31.803,8.116 29.907,8.082C27.386,8.037 24.909,8.45 22.395,8.469C19.693,8.489 16.997,8.697 14.284,8.571C11.638,8.448 8.982,8.508 6.332,8.555C4.423,8.588 2.515,8.727 0.608,8.831C0.415,8.842 0.224,8.926 0.036,8.988C-1.743,9.571 -3.568,9.788 -5.439,9.748C-6.227,9.731 -7.05,9.747 -7.801,9.953C-9.742,10.487 -11.682,10.737 -13.477,10.335C-16.443,11.659 -18.613,13.635 -20.533,16.057C-19.871,17.114 -19.615,18.304 -18.568,19.057C-17.388,19.905 -16.269,20.839 -15.114,21.723C-14.523,22.176 -13.866,22.56 -13.099,22.367C-10.937,21.825 -8.744,22.151 -6.566,22.065C-5.574,22.026 -4.579,22.038 -3.588,21.978C-2.338,21.903 -1.091,21.759 0.16,21.682C0.886,21.637 1.623,21.726 2.345,21.651C4.104,21.471 5.82,20.826 7.628,21.177C9.931,20.689 12.223,20.773 14.522,21.245C15.158,21.375 15.835,21.338 16.492,21.332C18.814,21.31 21.098,20.956 23.383,20.572C24.148,20.443 24.985,20.483 25.746,20.645C27.278,20.972 28.759,20.904 30.263,20.513C31.089,20.298 31.948,20.187 32.798,20.091C34.567,19.892 36.34,19.733 38.045,19.564M5.051,23.125C3.939,22.764 3.019,22.884 2.098,22.976C1.047,23.081 -0.004,23.219 -1.058,23.254C-2.516,23.303 -3.976,23.268 -5.436,23.273C-8.082,23.281 -10.748,23.053 -13.041,23.976C-14.547,23.84 -15.153,22.705 -16.28,22.132C-18.163,22.431 -19.243,24.38 -21.239,24.733C-20.853,25.966 -19.763,26.197 -19.045,26.816C-18.344,27.42 -17.623,28.001 -16.815,28.671C-15.474,28.809 -14.033,28.968 -12.59,29.099C-11.937,29.158 -11.279,29.175 -10.622,29.182C-9.894,29.19 -9.135,29.29 -8.443,29.127C-6.931,28.772 -5.41,28.882 -3.89,28.814C-2.638,28.759 -1.392,28.575 -0.14,28.519C1.249,28.456 2.642,28.444 4.033,28.471C4.575,28.481 5.098,28.672 5.019,29.58C4.676,29.708 4.277,29.968 3.864,29.995C1.092,30.17 -1.683,30.296 -4.457,30.437C-4.788,30.454 -5.134,30.404 -5.448,30.483C-7.805,31.071 -10.202,30.812 -12.58,30.797C-13.895,30.788 -15.212,30.541 -16.519,30.343C-17.261,30.231 -17.831,29.774 -18.36,29.237C-18.912,28.676 -19.482,28.079 -20.159,27.703C-21.771,26.807 -22.682,25.246 -23.944,24.128C-23.808,23.4 -23.322,23.358 -22.866,23.277C-21.19,22.975 -19.781,22.156 -18.393,21.019C-19.069,20.164 -19.717,19.366 -20.341,18.549C-20.783,17.971 -21.234,17.392 -21.604,16.767C-21.863,16.33 -21.99,15.816 -22.168,15.358C-20.568,13.888 -19.17,12.376 -17.543,11.174C-15.905,9.964 -14.039,9.061 -12.173,7.965C-11.825,8.198 -11.457,8.445 -11.056,8.714C-10.892,8.704 -10.687,8.729 -10.505,8.675C-7.939,7.914 -5.327,7.647 -2.65,7.704C-1.475,7.73 -0.294,7.39 0.888,7.249C1.936,7.124 2.989,6.978 4.042,6.958C6.296,6.915 8.552,6.954 10.807,6.945C11.455,6.942 12.102,6.888 12.725,6.858C13.083,2.956 12.929,0.89 12.097,-1.547C10.89,-1.458 9.662,-1.367 8.427,-1.276C7.849,0.059 8.118,1.331 8.087,2.564C8.055,3.833 7.81,5.043 7.406,6.401C6.95,6.195 6.575,6.026 6.2,5.857C6.407,3.705 6.603,1.674 6.798,-0.351C5.325,-0.938 3.866,-1.108 2.272,-0.721C1.203,-0.461 0.026,-0.565 -1.096,-0.622C-3.169,-0.726 -5.186,-0.315 -7.219,-0.057C-9.513,0.234 -11.79,0.753 -14.09,0.871C-15.711,0.954 -17.387,0.668 -18.844,-0.004C-19.852,-0.942 -19.929,-2.063 -19.714,-3.199C-19.528,-4.182 -19.49,-5.148 -19.476,-6.147C-19.458,-7.381 -19.125,-8.616 -18.864,-9.837C-18.819,-10.048 -18.458,-10.191 -18.034,-10.534C-18.163,-7.799 -18.307,-5.368 -18.372,-2.935C-18.389,-2.303 -18.155,-1.664 -18.054,-1.123C-16.938,-0.359 -15.849,-0.137 -14.699,-0.266C-12.795,-0.48 -10.897,-0.741 -8.996,-0.981C-8.864,-0.997 -8.728,-0.989 -8.6,-1.019C-5.68,-1.716 -2.719,-1.866 0.277,-1.854C1.918,-1.848 3.56,-2.181 5.353,-2.378C5.858,-2.628 6.506,-2.949 7.202,-3.294C8.545,-2.49 9.953,-2.494 11.428,-2.827C12.193,-3 13.006,-2.991 13.798,-3.001C16.248,-3.032 18.732,-2.788 21.141,-3.108C23.995,-3.488 26.831,-3.283 29.672,-3.401C30.25,-3.424 30.828,-3.449 31.708,-3.486C31.323,-3.85 31.158,-4.031 30.969,-4.183C30.245,-4.764 29.941,-5.507 29.926,-6.439C29.915,-7.161 29.715,-7.877 29.662,-8.601C29.631,-9.036 29.72,-9.48 29.755,-9.916C30.973,-9.846 30.973,-9.846 32.006,-7.477C32.326,-7.618 32.645,-7.759 33.114,-7.967C32.704,-8.842 32.35,-9.597 32.006,-10.331C32.784,-10.979 33.176,-11.031 33.705,-10.529C34.515,-9.76 34.858,-8.758 34.952,-7.68C35.014,-6.965 34.963,-6.239 34.963,-5.107C34.846,-4.549 33.945,-4.267 33.264,-3.75C34.207,-3.373 35.711,-3.173 37.03,-3.254C37.558,-3.287 38.091,-3.422 38.612,-3.384C40.665,-3.233 42.519,-3.894 44.386,-4.625C47.219,-5.732 50.088,-6.745 52.936,-7.815C53.287,-7.947 53.599,-8.182 53.891,-8.348C53.862,-8.593 53.894,-8.762 53.824,-8.847C52.863,-10.019 52.048,-11.387 50.879,-12.299C48.76,-13.953 46.284,-14.754 43.612,-13.685C41.216,-12.727 38.745,-12.504 36.213,-12.545C33.164,-12.594 30.104,-12.808 27.069,-12.623C24.398,-12.461 21.807,-13.126 19.146,-12.974C16.502,-12.822 13.84,-12.891 11.189,-12.969C9.275,-13.025 7.367,-13.26 5.456,-13.407C3.556,-13.554 1.662,-13.97 -0.25,-13.406C-0.742,-13.262 -1.306,-13.377 -1.834,-13.338C-3.086,-13.246 -4.335,-13.129 -5.586,-13.029C-6.048,-12.992 -6.518,-12.912 -6.973,-12.96C-9.246,-13.197 -11.441,-12.725 -13.645,-12.297C-14.095,-12.209 -14.568,-12.17 -15.024,-12.202C-15.539,-12.238 -15.869,-12.549 -15.906,-13.238C-15.698,-13.367 -15.452,-13.628 -15.173,-13.671C-12.233,-14.127 -9.314,-14.682 -6.3,-14.588C-4.528,-14.534 -2.745,-14.909 -0.964,-15.058C-0.114,-15.128 0.743,-15.159 1.595,-15.138C3.245,-15.1 4.894,-14.998 6.544,-14.956C6.925,-14.946 7.309,-15.072 7.783,-15.151C7.876,-15.632 8.029,-16.07 8.034,-16.509C8.058,-18.897 8.053,-21.285 8.04,-23.672C8.038,-24.133 8.017,-24.61 7.902,-25.052C7.354,-27.151 7.637,-29.265 7.738,-31.376C7.743,-31.491 7.863,-31.6 8.007,-31.841C8.653,-31.465 9.265,-30.943 9.968,-30.743C10.775,-30.514 11.668,-30.479 12.513,-30.531C13.281,-30.578 14.046,-30.828 14.883,-31.416C13.292,-31.971 11.685,-31.19 10.232,-32.151C10.27,-32.527 10.311,-32.936 10.363,-33.463C12.133,-33.463 13.774,-33.525 15.406,-33.436C16.183,-33.393 16.969,-33.124 17.703,-32.836C18.09,-32.685 18.374,-32.273 18.655,-32.022C18.37,-30.246 18.147,-28.611 17.835,-26.992C17.567,-25.603 17.521,-24.229 17.834,-22.852C18.073,-21.797 18.024,-20.762 17.832,-19.7C17.586,-18.336 17.439,-16.952 17.285,-15.573C17.258,-15.337 17.404,-15.081 17.489,-14.767C18.872,-14.467 20.207,-14.141 21.608,-14.15C23.664,-14.164 25.721,-14.165 27.776,-14.135C28.767,-14.121 29.757,-14.021 30.747,-13.964C31.01,-13.949 31.274,-13.939 31.537,-13.946C34.049,-14.015 36.573,-13.969 39.071,-14.202C40.703,-14.354 42.344,-14.778 43.896,-15.321C45.898,-16.021 47.649,-15.548 49.441,-14.706C51.235,-13.864 52.629,-12.618 53.715,-10.974C54.225,-10.204 54.863,-9.52 55.401,-8.767C55.584,-8.511 55.657,-8.169 55.744,-7.856C55.775,-7.744 55.699,-7.602 55.644,-7.344C55.37,-7.219 55.035,-7.031 54.677,-6.91C52.796,-6.273 50.889,-5.705 49.029,-5.011C47.419,-4.409 45.853,-3.686 44.28,-2.986C42.985,-2.41 41.647,-2.206 40.227,-2.172C36.385,-2.079 32.545,-2.288 28.706,-2.189C26.132,-2.122 23.562,-2.212 20.985,-1.876C19.027,-1.621 17.011,-1.813 15.022,-1.792C14.445,-1.785 13.869,-1.728 13.062,-1.68C14.476,0.19 14.584,2.11 14.328,4.134C14.224,4.956 14.07,5.864 14.67,6.622C14.785,6.695 14.895,6.826 15.006,6.827C17.455,6.847 19.905,6.891 22.353,6.847C23.806,6.821 25.256,6.661 26.706,6.545C27.627,6.47 28.546,6.363 29.466,6.272C29.861,6.233 30.256,6.171 30.652,6.164C32.175,6.138 33.683,6.097 35.201,5.829C36.774,5.552 38.37,5.76 39.997,6.512C40.173,6.979 40.505,7.515 40.564,8.079C40.742,9.772 41.453,11.436 40.864,13.185C40.768,13.472 40.842,13.85 40.928,14.16C41.395,15.845 40.866,17.448 40.531,19.059C40.443,19.484 40.103,19.856 39.845,20.311C37.624,20.727 35.423,21.139 33.069,21.579C32.969,22.057 32.835,22.552 32.77,23.056C32.703,23.58 32.748,24.12 32.664,24.64C32.547,25.362 32.092,25.839 31.368,25.975C30.393,26.158 29.411,26.4 28.428,26.42C26.913,26.45 25.417,26.879 23.89,26.619C23.633,26.576 23.331,26.536 23.102,26.626C21.406,27.298 19.577,27.169 17.751,27.554C17,27.344 16.152,27.173 15.672,26.17C15.911,26.024 16.108,25.804 16.318,25.791C18.423,25.659 20.542,25.777 22.63,25.329C23.268,25.192 23.955,25.208 24.613,25.252C26.553,25.382 28.433,24.934 30.335,24.712C30.456,24.698 30.565,24.588 30.679,24.522C31.23,23.268 31.23,23.268 30.77,21.866C30.477,21.88 30.158,21.885 29.842,21.912C29.315,21.958 28.751,22.168 28.27,22.045C26.419,21.572 24.594,21.942 22.761,22.085C22.038,22.141 21.32,22.271 20.596,22.323C19.874,22.375 19.127,22.491 18.429,22.366C17.395,22.179 16.48,22.433 15.577,22.703C14.993,24.735 15.126,28.274 15.879,30.481C17.201,30.586 18.573,30.687 19.943,30.807C21.061,30.906 22.18,31.139 23.294,31.113C24.874,31.075 26.47,30.969 28.022,30.685C30.245,30.278 32.457,29.954 34.725,30.011C35.646,30.034 36.604,30.029 37.487,29.806C38.984,29.428 40.227,29.87 41.435,30.65C41.491,30.686 41.545,30.726 41.594,30.77C43.209,32.236 44.84,33.685 46.427,35.18C46.792,35.525 47.009,36.028 47.348,36.54C46.298,37.397 45.455,38.277 44.325,38.881C42.75,39.722 41.232,40.682 39.755,41.687C37.904,42.948 35.877,43.653 33.684,44.005C30.607,44.499 27.51,44.646 24.406,44.85C21.828,45.02 19.253,45.095 16.675,45.204C16.425,45.215 16.18,45.337 16.004,45.387C15.885,45.587 15.743,45.717 15.764,45.809C16.211,47.776 15.88,49.752 15.852,51.724C15.841,52.446 15.85,53.169 15.876,53.891C15.888,54.22 16.01,54.547 16.004,54.874C15.943,58.264 16.586,61.596 16.921,64.948C17.126,67.001 17.2,69.037 17.217,71.087C17.222,71.676 17.265,72.298 16.72,72.726C15.762,72.797 15.463,72.681 15.331,72.124C15.255,71.805 15.234,71.468 15.225,71.139C15.207,70.476 15.183,69.811 15.216,69.149C15.374,65.961 14.897,62.809 14.699,59.641C14.575,57.666 14.419,55.701 14.153,53.739C14.049,52.97 14.241,52.165 14.263,51.375C14.308,49.723 14.337,48.07 14.352,46.417C14.353,46.238 14.214,46.058 14.077,45.726C11.947,45.28 9.861,46.396 7.669,45.877C7.669,47.084 7.668,47.987 7.669,48.891C7.671,52.406 7.658,55.921 7.682,59.436C7.696,61.479 7.77,63.522 7.82,65.729C7.683,65.808 7.422,65.957 7.06,66.165C6.837,65.725 6.546,65.4 6.517,65.052C6.332,62.883 6.129,60.71 6.082,58.535C6.031,56.217 6.176,53.896 6.179,51.577C6.181,50.055 6.09,48.532 6.019,47.011C6.008,46.76 5.888,46.514 5.791,46.171C5.322,46.113 4.872,45.977 4.44,46.022C3.52,46.116 2.568,46.182 1.703,46.477C-0.962,47.388 -3.776,47.355 -6.502,47.862C-7.664,48.078 -8.88,48.077 -10.07,48.06C-11.787,48.036 -13.048,46.935 -13.395,45.197C-13.653,43.908 -14.009,42.632 -13.636,41.273C-13.487,40.731 -13.679,40.095 -13.715,39.523C-14.015,38.919 -14.304,38.336 -14.647,37.645C-14.163,37.146 -13.714,36.683 -13.228,36.181C-7.08,34.496 -0.904,32.861 5.437,31.493C5.983,28.64 5.596,25.928 5.051,23.125" style="fill:rgb(66,45,39);fill-rule:nonzero;"/>
                    </g>
                    <g transform="matrix(1,0,0,1,161.076,442.025)">
                        <path d="M0,-2.719C0.231,-3.359 0.418,-3.913 0.636,-4.454C0.676,-4.555 0.843,-4.604 1.005,-4.714C1.798,-4.634 2.101,-4.009 2.107,-3.344C2.118,-1.98 2.355,-0.571 1.573,0.853C1.316,0.703 0.961,0.618 0.84,0.402C0.52,-0.164 0.302,-0.788 -0.008,-1.507C-0.498,-1.375 -0.977,-1.246 -1.468,-1.114C-1.629,-0.281 -1.395,0.62 -2.376,1.142C-2.638,0.86 -2.923,0.553 -3.162,0.295C-3.998,0.762 -4.752,1.321 -5.598,1.624C-7.139,2.174 -8.824,1.018 -8.788,-0.612C-8.753,-2.168 -8.23,-3.61 -6.879,-4.583C-6.531,-4.834 -6.146,-4.893 -5.784,-4.371C-5.758,-3.515 -6.534,-2.936 -6.839,-2.155C-7.136,-1.394 -7.4,-0.664 -6.981,0.188C-6.39,0.718 -5.79,0.819 -5.073,0.076C-5.48,-0.33 -5.835,-0.684 -6.232,-1.081C-5.37,-2.267 -4.367,-1.166 -3.408,-1.34C-3.32,-2.27 -3.235,-3.174 -3.138,-4.202C-2.668,-4.26 -2.254,-4.311 -1.81,-4.366C-1.484,-3.758 -1.209,-3.245 -0.893,-2.654C-0.6,-2.675 -0.296,-2.698 0,-2.719" style="fill:rgb(66,45,39);fill-rule:nonzero;"/>
                    </g>
                    <g transform="matrix(1,0,0,1,134.22,438.432)">
                        <path d="M0,7.016C1.08,6.392 1.704,5.793 1.807,4.831C1.375,4.349 1.003,3.934 0.643,3.531C1.261,2.555 2.727,2.549 2.762,1.226C1.959,0.142 1.658,0.08 -0.15,0.675C-0.643,2.265 -0.65,3.961 -0.606,5.65C-0.596,6.051 -0.265,6.444 0,7.016M4.918,1.447C4.295,2.182 3.707,2.875 3.07,3.626C3.127,4.176 3.186,4.756 3.248,5.366C2.629,6.457 2.102,7.606 0.933,8.135C0.146,8.294 -0.496,8.071 -0.993,7.631C-1.363,7.302 -1.79,6.804 -1.816,6.359C-1.939,4.263 -2.088,2.152 -1.666,0.138C-0.723,-0.785 0.397,-1.013 1.486,-1.198C1.952,-1.278 2.517,-1.038 2.98,-0.822C3.671,-0.498 4.141,0.109 4.918,1.447" style="fill:rgb(66,45,39);fill-rule:nonzero;"/>
                    </g>
                    <g transform="matrix(1,0,0,1,141.178,440.407)">
                        <path d="M0,-0.624C1.112,-0.958 1.508,-1.392 1.759,-2.163C1.418,-2.333 1.115,-2.485 0.649,-2.719C0.439,-2.039 0.278,-1.52 0,-0.624M0.566,0.998C0.235,1.863 -0.043,2.59 -0.351,3.394C-0.751,3.316 -1.049,3.258 -1.424,3.185C-1.453,1.089 -2.129,-0.923 -1.243,-3.039C-0.582,-3.372 0.114,-3.722 0.704,-4.018C1.904,-3.833 2.675,-3.246 3.319,-2.543C3.715,-1.285 2.654,-0.545 2.382,0.397C2.735,2.055 4.358,1.104 5.155,1.793C3.959,3.194 3.131,3.059 0.566,0.998" style="fill:rgb(66,45,39);fill-rule:nonzero;"/>
                    </g>
                    <g transform="matrix(1,0,0,1,191.664,438.841)">
                        <path d="M0,-1.045C0.826,-1.549 1.322,-1.855 1.326,-2.709C0.454,-2.595 0.15,-2.145 0,-1.045M3.237,-2.975C3.474,-1.574 2.493,-0.852 1.559,-0.173C1.766,0.365 2.123,0.222 2.414,0.158C3.352,-0.05 4.281,-0.32 5.555,-0.225C4.051,1.448 2.34,1.885 0.536,1.952C0.294,2.338 0.095,2.654 -0.092,2.951C-1.011,2.918 -1.361,2.283 -1.438,1.655C-1.581,0.488 -1.602,-0.705 -1.539,-1.88C-1.518,-2.271 -1.15,-2.715 -0.823,-3C-0.434,-3.338 0.058,-3.604 0.549,-3.765C1.029,-3.922 1.575,-3.996 2.074,-3.942C2.609,-3.883 3.037,-3.531 3.237,-2.975" style="fill:rgb(66,45,39);fill-rule:nonzero;"/>
                    </g>
                    <g transform="matrix(1,0,0,1,186.141,439.268)">
                        <path d="M0,-0.76C0.337,-1.48 0.048,-1.786 -0.705,-1.985C-0.86,-1.633 -1.012,-1.286 -1.244,-0.76L0,-0.76ZM-2.521,2.78C-3.587,2.477 -3.656,1.659 -3.845,0.825C-3.22,-0.492 -2.952,-2.035 -1.788,-3.128C-0.243,-3.663 0.923,-3.232 1.831,-1.902C2.15,-1.434 2.621,-1.069 3.099,-0.579C1.998,0.277 2.631,2.083 1.317,2.903C0.337,2.4 1.011,1.508 0.62,0.807C-0.135,0.739 -0.848,1.068 -1.609,1.284C-1.914,1.785 -2.213,2.274 -2.521,2.78" style="fill:rgb(66,45,39);fill-rule:nonzero;"/>
                    </g>
                    <g transform="matrix(1,0,0,1,166.874,443.549)">
                        <path d="M0,-5.911C-0.024,-4.377 -0.282,-3.123 0.366,-1.972C1.026,-2.018 1.127,-2.51 1.162,-2.952C1.198,-3.402 1.068,-3.863 1.061,-4.321C1.052,-4.892 1.253,-5.351 1.948,-5.508C2.81,-5.107 2.883,-4.198 3.255,-3.485C2.938,-2.666 2.69,-1.915 2.359,-1.202C1.959,-0.34 1.332,0 0.461,-0.088C-0.396,-0.176 -1.08,-0.569 -1.327,-1.418C-1.565,-2.236 -1.725,-3.085 -1.825,-3.932C-1.906,-4.616 -1.63,-5.25 -1.087,-5.682C-0.883,-5.845 -0.522,-5.811 0,-5.911" style="fill:rgb(66,45,39);fill-rule:nonzero;"/>
                    </g>
                    <g transform="matrix(1,0,0,1,146.728,443.172)">
                        <path d="M0,-6.14C0.628,-5.264 1.106,-4.598 1.624,-3.876C2.814,-4.555 3.116,-6.332 4.807,-6.274C5.061,-4.917 4.017,-4.148 3.696,-3.121C3.384,-2.125 3.147,-1.104 2.838,0.052C2.574,0.087 2.229,0.133 1.781,0.192C1.618,-0.543 1.479,-1.171 1.318,-1.899C0.65,-2.953 -0.76,-3.69 -0.656,-5.416C-0.563,-5.518 -0.397,-5.702 0,-6.14" style="fill:rgb(66,45,39);fill-rule:nonzero;"/>
                    </g>
                    <g transform="matrix(1,0,0,1,172.731,442.16)">
                        <path d="M0,-4.174C0.599,-3.591 0.888,-3.345 1.135,-3.062C1.522,-2.619 1.935,-2.184 2.238,-1.685C2.738,-0.86 2.625,-0.032 1.994,0.691C1.694,1.034 1.327,1.318 1.064,1.561C0.276,1.805 -0.375,1.752 -0.865,1.209C-1.049,1.005 -1.054,0.641 -1.147,0.326C-0.468,-0.209 0.841,0.421 0.873,-1.045C0.566,-2.095 -0.605,-2.548 -1.281,-3.482C-1.523,-4.569 -0.835,-5.189 0.006,-5.627C0.685,-5.979 1.406,-5.953 1.921,-5.33C2.046,-4.771 1.851,-4.487 1.379,-4.395C1.073,-4.335 0.762,-4.295 0,-4.174" style="fill:rgb(66,45,39);fill-rule:nonzero;"/>
                    </g>
                    <g transform="matrix(1,0,0,1,163.602,463.525)">
                        <path d="M0,-0.365C1.041,-0.583 1.725,-0.264 2.368,0.205C2.672,1.168 2.203,1.906 1.796,2.81C1.146,3.08 0.428,3.378 -0.145,3.616C-1.569,3.295 -2.298,2.348 -3.009,1.4C-3.527,1.86 -3.923,2.297 -4.398,2.617C-5.435,3.314 -6.524,3.179 -7.485,2.366C-8.345,1.639 -8.762,0.693 -8.925,-0.378C-9.063,-1.289 -8.723,-2.07 -8.12,-2.736C-7.741,-3.154 -7.258,-3.354 -6.691,-3.207C-6.091,-3.051 -5.844,-2.625 -5.869,-1.904C-6.114,-1.607 -6.417,-1.238 -6.816,-0.753C-5.656,-0.646 -4.689,-0.557 -3.678,-0.464C-3.066,-1.686 -2.918,-3.182 -1.512,-3.981C-1.175,-3.845 -0.824,-3.703 -0.402,-3.533C-0.288,-2.949 -0.178,-2.386 -0.062,-1.79C-0.516,-1.627 -0.872,-1.5 -1.25,-1.364C-1.603,-0.254 -1.845,0.808 -0.677,1.767C-0.308,1.497 0.037,1.244 0.397,0.98C0.263,0.525 0.156,0.164 0,-0.365" style="fill:rgb(66,45,39);fill-rule:nonzero;"/>
                    </g>
                    <g transform="matrix(1,0,0,1,139.093,463.96)">
                        <path d="M0,1.151C-0.14,2.03 -0.097,2.156 0.445,2.286C0.582,2.106 0.747,1.888 0.992,1.564C0.569,1.388 0.296,1.274 0,1.151M-0.392,-2.16C-0.173,-3.017 0.491,-3.072 1.128,-2.855C1.974,-2.567 2.769,-2.13 3.585,-1.758L3.583,-1.762C3.614,-0.966 3.571,-0.208 3.166,0.536C2.894,1.039 2.879,1.675 2.695,2.233C2.398,3.132 2.008,4.022 0.916,4.127C-0.082,4.223 -0.639,3.478 -1.082,2.74C-1.344,2.304 -1.518,1.763 -1.556,1.257C-1.629,0.28 -1.578,-0.707 -1.578,-1.759C-1.109,-1.916 -0.754,-2.034 -0.4,-2.153C-0.215,-1.603 -0.03,-1.052 0.201,-0.367C0.646,-0.589 0.969,-0.746 1.284,-0.915C1.304,-0.926 1.271,-1.036 1.26,-1.121C0.717,-1.462 0.162,-1.811 -0.392,-2.16" style="fill:rgb(66,45,39);fill-rule:nonzero;"/>
                    </g>
                    <g transform="matrix(1,0,0,1,174.425,464.798)">
                        <path d="M0,-4.853C0.966,-4.947 1.618,-4.478 2.135,-3.713C2.533,-3.126 2.967,-2.563 3.553,-1.759C3.792,-2.345 3.986,-2.653 4.039,-2.984C4.17,-3.807 3.857,-4.693 4.347,-5.468C5.634,-5.238 5.947,-5.036 6.021,-4.183C6.148,-2.718 5.776,-1.31 5.364,0.077C5.306,0.271 4.973,0.383 4.655,0.615C4.052,0.202 3.45,-0.177 2.887,-0.606C2.368,-1.003 1.89,-1.454 1.391,-1.883C0.846,-1.791 0.988,-1.306 0.852,-0.97C0.714,-0.628 0.503,-0.316 0.25,0.144C-0.093,-0.149 -0.471,-0.309 -0.524,-0.544C-0.82,-1.84 -0.882,-3.152 -0.438,-4.435C-0.382,-4.597 -0.163,-4.703 0,-4.853" style="fill:rgb(66,45,39);fill-rule:nonzero;"/>
                    </g>
                    <g transform="matrix(1,0,0,1,172.358,465.92)">
                        <path d="M0,-6.378C-0.618,-5.741 -1.204,-5.137 -1.854,-4.468C-1.307,-4.127 -0.847,-3.84 -0.361,-3.537C-0.696,-2.219 -2.236,-2.472 -2.762,-1.382C-2.284,-1.079 -1.779,-1.542 -1.328,-1.378C-1.258,-0.539 -1.587,0.058 -2.331,0.44C-2.869,0.717 -3.508,0.631 -3.994,0.211C-4.093,0.124 -4.185,0.027 -4.27,-0.074C-5.177,-1.161 -5.319,-3.659 -4.552,-4.987C-3.774,-6.334 -2.083,-7.095 -0.46,-6.799C-0.308,-6.771 -0.19,-6.558 0,-6.378" style="fill:rgb(66,45,39);fill-rule:nonzero;"/>
                    </g>
                    <g transform="matrix(1,0,0,1,142.679,464.315)">
                        <path d="M0,-2.112C0.214,-2.592 0.428,-3.072 0.623,-3.509C1.706,-4.242 2.773,-4.261 4.005,-3.814C4.216,-3.328 4.447,-2.794 4.689,-2.235C4.447,-1.46 4.215,-0.718 3.933,0.184L6.152,0.184C5.885,1.138 5.356,1.614 4.628,1.776C3.735,1.974 2.812,2.037 1.98,2.149C1.103,1.658 0.956,0.888 0.764,0.103C0.578,-0.654 0.258,-1.378 -0.003,-2.116L0,-2.112Z" style="fill:rgb(66,45,39);fill-rule:nonzero;"/>
                    </g>
                    <g transform="matrix(1,0,0,1,151.227,462.58)">
                        <path d="M0,1.898C-1.25,0.794 -2.287,-0.599 -2.835,-2.325C-2.196,-2.891 -1.779,-2.546 -1.425,-2.157C-1.164,-1.87 -1.004,-1.493 -0.771,-1.177C-0.586,-0.925 -0.36,-0.704 -0.183,-0.505C0.842,-0.621 1.005,-1.909 2.171,-1.809C2.283,-1.551 2.545,-1.22 2.543,-0.891C2.539,-0.376 2.321,0.132 2.256,0.651C2.103,1.874 1.523,3.073 2.153,4.164C1.72,4.789 1.303,4.741 1.086,4.347C0.679,3.604 0.389,2.795 0,1.898" style="fill:rgb(66,45,39);fill-rule:nonzero;"/>
                    </g>
                    <g transform="matrix(1,0,0,1,166.158,486.506)">
                        <path d="M0,-2.415C0.249,-2.946 0.497,-3.477 0.75,-4.015C1.446,-4.57 2.115,-4.435 2.698,-3.865C3.071,-3.5 3.366,-3.053 3.671,-2.626C3.937,-2.253 4.168,-1.856 4.365,-1.547C5.067,-1.19 5.602,-1.184 5.982,-1.814C6.347,-2.561 5.622,-3.428 6.367,-4.192C6.882,-4.101 7.456,-3.999 8.15,-3.876C8.954,-4.278 9.868,-4.625 10.877,-4.129C11.83,-3.66 12.101,-3.014 11.661,-2.035C11.477,-1.626 11.256,-1.234 11.014,-0.763C12.433,0.158 13.916,-1.445 15.336,-0.454C14.865,0.726 13.885,1.24 12.81,1.491C11.703,1.748 10.586,1.558 9.595,0.917C9.201,1.405 8.881,1.801 8.552,2.21C7.043,1.895 6.857,0.658 6.563,-0.527C6.217,-0.432 5.974,-0.365 5.805,-0.319C5.167,0.236 5.739,1.281 4.637,1.65C4.394,1.513 4.018,1.301 3.495,1.006C2.666,1.21 1.718,1.443 0.626,1.711C0.214,1.639 0.051,1.198 0.033,0.723C0.009,0.066 0.077,-0.595 0.079,-1.254C0.08,-1.643 0.03,-2.032 0.003,-2.42L0,-2.415" style="fill:rgb(66,45,39);fill-rule:nonzero;"/>
                    </g>
                    <g transform="matrix(1,0,0,1,157.685,484.741)">
                        <path d="M0,1.932C0.599,2.06 1.163,2.18 1.658,2.286C2.036,2.832 1.706,3.117 1.4,3.351C0.826,3.792 0.152,3.815 -0.482,3.551C-1.018,3.329 -1.499,2.975 -2.064,2.644C-2.276,3.043 -2.506,3.475 -2.72,3.877C-3.79,3.893 -4.072,3.791 -4.165,3.21C-4.391,1.784 -4.561,0.349 -4.765,-1.159C-3.294,-1.74 -1.828,-1.961 -0.308,-1.814C0.29,-1.756 0.868,-1.603 1.18,-0.92C1.231,0.148 -0.066,0.728 0,1.932" style="fill:rgb(66,45,39);fill-rule:nonzero;"/>
                    </g>
                    <g transform="matrix(1,0,0,1,166.161,486.157)">
                        <path d="M0,-2.071C-0.553,-1.367 -0.686,-0.534 -0.798,0.326C-1.004,1.898 -1.563,2.355 -3.155,2.299C-3.539,2.286 -3.919,2.161 -4.234,2.099C-5.774,0.027 -5.99,-1.558 -5.003,-3.736C-4.675,-3.645 -4.327,-3.548 -3.912,-3.432C-3.839,-3.013 -3.823,-2.62 -3.699,-2.265C-3.358,-1.291 -2.684,-1.192 -1.794,-1.963C-1.741,-2.869 -3.014,-3.201 -2.761,-4.302C-1.922,-4.426 -1.326,-3.893 -0.635,-3.493C-0.427,-3.024 -0.215,-2.545 -0.003,-2.066L0,-2.071Z" style="fill:rgb(66,45,39);fill-rule:nonzero;"/>
                    </g>
                </g>
            </g>
        </g>
    </g>
</svg>
