<?xml version="1.0" encoding="UTF-8" standalone="no"?>
<!DOCTYPE svg PUBLIC "-//W3C//DTD SVG 1.1//EN" "http://www.w3.org/Graphics/SVG/1.1/DTD/svg11.dtd">
<svg width="100%" height="100%" viewBox="0 0 470 511" version="1.1" xmlns="http://www.w3.org/2000/svg" xmlns:xlink="http://www.w3.org/1999/xlink" xml:space="preserve" xmlns:serif="http://www.serif.com/" style="fill-rule:evenodd;clip-rule:evenodd;stroke-linejoin:round;stroke-miterlimit:2;">
    <g transform="matrix(1,0,0,1,-1891.94,-2591.18)">
        <g transform="matrix(1,0,0,1,-36445.7,-500.501)">
            <g transform="matrix(4.16667,0,0,4.16667,36000,0)">
                <g id="Horn">
                    <g id="Hor" transform="matrix(1,0,0,1,673.737,749.438)">
                        <path d="M0,-0.099L0.075,-0.031L-0.017,0L0,-0.099Z" style="fill:rgb(66,45,39);fill-rule:nonzero;"/>
                    </g>
                    <g transform="matrix(1,0,0,1,583.583,748.635)">
                        <path d="M0,0.081C0.235,-0.316 0.462,-0.252 0.674,0.098C0.703,0.145 0.715,0.256 0.692,0.271C0.612,0.322 0.487,0.397 0.426,0.367C0.26,0.287 0.118,0.158 -0.033,0.048L0,0.081Z" style="fill:rgb(66,45,39);fill-rule:nonzero;"/>
                    </g>
                    <g transform="matrix(0,1,1,0,583.783,749.085)">
                        <path d="M-0.402,-0.233L0.233,-0.233C0.216,-0.302 0.198,-0.37 0.18,-0.437C-0.001,-0.357 -0.183,-0.276 -0.367,-0.198C-0.369,-0.2 -0.402,-0.233 -0.402,-0.233" style="fill:rgb(66,45,39);fill-rule:nonzero;"/>
                    </g>
                    <g transform="matrix(1,0,0,1,614.684,772.554)">
                        <path d="M0,61.551C-0.141,61.424 -0.202,61.37 -0.263,61.315C-0.445,61.531 -0.627,61.747 -0.809,61.963C-0.77,61.994 -0.707,62.06 -0.695,62.052C-0.466,61.895 -0.242,61.728 0,61.551M39.197,-3.955C39.21,-3.819 39.182,-3.641 39.251,-3.514C39.343,-3.342 39.509,-3.209 39.644,-3.06C39.65,-3.24 39.676,-3.423 39.655,-3.6C39.638,-3.751 39.584,-3.905 39.513,-4.041C39.467,-4.131 39.362,-4.192 39.284,-4.266C39.257,-4.169 39.23,-4.072 39.197,-3.955M39.161,-6.155C39.05,-6.438 38.985,-6.639 38.893,-6.827C38.822,-6.97 38.714,-7.095 38.623,-7.229C38.531,-7.042 38.328,-6.823 38.372,-6.677C38.441,-6.447 38.664,-6.254 38.85,-6.074C38.888,-6.037 39.047,-6.123 39.161,-6.155M31.024,2.067C31.01,1.93 31.039,1.746 30.967,1.621C30.869,1.45 30.693,1.325 30.551,1.18C30.51,1.373 30.43,1.568 30.441,1.758C30.449,1.903 30.557,2.055 30.652,2.179C30.721,2.269 30.842,2.319 30.94,2.388C30.966,2.288 30.992,2.188 31.024,2.067M-7.521,44.868C-7.682,44.707 -7.75,44.638 -7.819,44.569C-8.099,44.916 -8.38,45.263 -8.661,45.61C-8.57,45.642 -8.432,45.729 -8.396,45.698C-8.094,45.433 -7.81,45.147 -7.521,44.868M-12.605,60.961C-12.646,60.927 -12.683,60.882 -12.73,60.862C-13.05,60.726 -13.824,61.171 -13.867,61.534C-13.872,61.578 -13.637,61.721 -13.568,61.692C-13.277,61.566 -13,61.402 -12.733,61.229C-12.662,61.183 -12.646,61.053 -12.605,60.961M-2.807,67.739C-3.125,68.028 -3.416,68.292 -3.706,68.556C-3.505,68.583 -3.268,68.69 -3.11,68.62C-2.865,68.512 -2.675,68.282 -2.462,68.104C-2.563,67.997 -2.664,67.89 -2.807,67.739M-12.17,71.626C-11.906,71.536 -11.555,71.424 -11.212,71.291C-11.122,71.256 -11.059,71.153 -10.983,71.082C-11.079,71.04 -11.185,70.949 -11.269,70.966C-11.631,71.039 -11.989,71.135 -12.341,71.244C-12.43,71.272 -12.494,71.381 -12.57,71.452C-12.474,71.494 -12.378,71.535 -12.17,71.626M28.012,-27.823C28.345,-27.76 28.961,-28.305 28.968,-28.712C28.969,-28.793 28.68,-28.964 28.665,-28.95C28.378,-28.668 28.108,-28.369 27.851,-28.058C27.834,-28.038 27.955,-27.904 28.012,-27.823M-14.57,61.951C-14.662,61.923 -14.781,61.843 -14.844,61.875C-15.428,62.173 -16.004,62.489 -16.581,62.801C-16.558,62.843 -16.52,62.926 -16.514,62.923C-15.903,62.691 -15.292,62.458 -14.688,62.206C-14.625,62.18 -14.608,62.04 -14.57,61.951M34.934,-3.06C34.97,-2.933 35.048,-2.573 35.185,-2.236C35.218,-2.156 35.448,-2.122 35.583,-2.131C35.65,-2.135 35.777,-2.307 35.758,-2.366C35.601,-2.87 35.419,-3.366 35.239,-3.863C35.222,-3.908 35.169,-3.939 35.133,-3.977C35.078,-3.914 34.987,-3.858 34.974,-3.788C34.944,-3.631 34.952,-3.467 34.934,-3.06M10.434,50.811C10.611,50.768 10.767,50.695 10.922,50.699C11.596,50.717 12.031,50.375 12.315,49.804C12.342,49.751 12.22,49.557 12.206,49.561C11.659,49.721 11.111,49.881 10.578,50.081C10.445,50.13 10.348,50.302 10.263,50.436C10.21,50.518 10.173,50.645 10.201,50.729C10.218,50.781 10.368,50.79 10.434,50.811M34.427,-13.115C34.375,-13.583 34.355,-13.768 34.335,-13.952C34.135,-13.803 33.828,-13.693 33.755,-13.496C33.518,-12.859 33.545,-12.245 34.222,-11.837C34.389,-11.736 34.544,-11.613 34.705,-11.501C34.846,-11.719 35.111,-11.947 35.095,-12.153C35.076,-12.404 34.834,-12.646 34.663,-12.873C34.544,-13.032 34.382,-13.16 34.427,-13.115M5.752,46.167C6.105,45.774 6.455,45.4 6.786,45.01C6.88,44.899 6.921,44.743 6.986,44.608C6.837,44.566 6.654,44.446 6.546,44.494C5.977,44.747 5.421,45.031 4.88,45.339C4.83,45.368 4.865,45.715 4.958,45.788C5.16,45.945 5.426,46.019 5.752,46.167M2.606,64.619C2.313,64.557 2.033,64.4 1.872,64.481C1.152,64.841 0.456,65.254 -0.229,65.681C-0.59,65.906 -0.907,66.2 -1.247,66.46C-1.579,66.714 -1.52,66.989 -1.333,67.308C-1.107,67.696 -0.84,67.451 -0.663,67.327C0.344,66.622 1.333,65.89 2.316,65.152C2.428,65.068 2.466,64.885 2.606,64.619M41.525,5.263C41.465,4.836 41.389,4.198 41.282,3.566C41.14,2.725 40.999,1.881 40.809,1.05C40.678,0.48 40.481,-0.077 40.275,-0.625C40.232,-0.74 40.02,-0.791 39.886,-0.871C39.855,-0.706 39.765,-0.525 39.805,-0.379C39.931,0.074 40.113,0.511 40.26,0.959C40.322,1.151 40.45,1.41 40.376,1.542C40.007,2.203 40.28,2.79 40.482,3.407C40.644,3.901 40.717,4.366 40.596,4.945C40.466,5.57 40.779,6.29 40.918,6.965C40.931,7.028 41.086,7.105 41.169,7.099C41.253,7.093 41.392,6.997 41.4,6.929C41.452,6.449 41.476,5.965 41.525,5.263M-15.985,50.289C-15.887,50.247 -15.777,50.222 -15.694,50.16C-15.303,49.873 -14.903,49.595 -14.536,49.278C-12.201,47.262 -10.416,44.854 -9.367,41.932C-9.279,41.686 -9.197,41.404 -9.233,41.157C-9.259,40.981 -9.463,40.761 -9.637,40.7C-9.765,40.654 -10.06,40.786 -10.13,40.918C-10.495,41.605 -11.654,41.703 -11.504,42.776C-11.49,42.875 -11.674,43.082 -11.794,43.107C-12.595,43.273 -12.636,44.031 -12.953,44.564C-13.198,44.975 -13.357,45.436 -13.601,45.847C-14.423,47.226 -15.041,48.73 -16.095,49.969C-16.143,50.025 -16.125,50.146 -16.116,50.235C-16.114,50.257 -16.031,50.271 -15.985,50.289M-50.708,85.609C-49.133,85.014 -47.546,84.998 -46.176,84.098C-45.184,83.446 -44.215,82.765 -43.238,82.093C-41.813,81.114 -41.283,80.83 -42.939,79.144C-43.185,78.894 -43.841,78.799 -43.382,78.204C-43.825,77.757 -44.547,77.672 -44.954,78.181C-45.866,79.322 -46.869,80.352 -48.032,81.231C-48.074,81.263 -48.128,81.308 -48.135,81.353C-48.337,82.548 -49.422,82.994 -50.131,83.765C-50.474,84.138 -50.661,84.666 -50.87,85.145C-50.918,85.255 -50.767,85.453 -50.708,85.609M-21.975,56.247C-22.047,56.192 -22.134,56.077 -22.189,56.09C-23.322,56.362 -24.469,56.611 -25.215,57.644C-25.428,57.938 -25.671,58.443 -25.907,58.447C-26.764,58.461 -27.357,58.75 -27.703,59.542C-27.731,59.606 -27.926,59.676 -27.959,59.647C-28.719,58.994 -28.827,59.788 -28.723,60.113C-28.407,61.098 -29.912,62.198 -28.512,63.074C-28.497,63.083 -28.516,63.206 -28.546,63.221C-29.542,63.727 -28.828,64.458 -28.755,65.067C-28.607,66.311 -28.167,66.494 -27.121,65.829C-26.228,65.261 -25.335,64.691 -24.458,64.099C-24.163,63.899 -23.912,63.631 -23.648,63.386C-23.388,63.144 -23.371,62.946 -23.538,62.563C-23.94,61.645 -23.319,60.608 -23.742,59.648C-23.775,59.573 -23.553,59.402 -23.478,59.26C-23.003,58.36 -22.535,57.456 -22.069,56.551C-22.021,56.458 -22.006,56.349 -21.975,56.247M-8.866,7.802C-8.508,7.72 -8.147,7.613 -7.778,7.558C-6.603,7.386 -5.553,7.061 -5.219,5.717C-5.184,5.575 -5.081,5.4 -4.959,5.338C-3.983,4.835 -4.003,4.017 -3.996,3.054C-3.992,2.445 -4.707,1.882 -4.118,1.243C-4.074,1.195 -4.249,0.839 -4.399,0.738C-5.013,0.325 -5.31,-0.412 -6.428,-0.231C-7.597,-0.042 -8.127,-0.194 -8.799,0.598C-9.003,0.839 -9.183,1.123 -9.438,1.29C-11.034,2.336 -11.258,4.165 -9.921,5.508C-9.733,5.696 -9.461,5.799 -9.271,5.985C-8.814,6.433 -8.962,6.901 -9.627,7.137C-9.755,7.183 -9.906,7.164 -10.047,7.175C-9.963,7.289 -9.903,7.458 -9.792,7.506C-9.497,7.632 -9.179,7.706 -8.866,7.802M-11.423,86.325C-9.884,86.222 -8.379,85.72 -7.063,84.872C-6.114,84.261 -5.06,83.837 -4.164,83.199C-3.267,82.559 -2.516,81.745 -1.468,81.267C-0.647,80.892 0.15,80.356 0.795,79.725C2.303,78.249 3.64,76.606 5.127,75.105C5.202,75.029 5.326,74.925 5.313,74.854C5.293,74.747 5.127,74.562 5.105,74.573C4.499,74.879 3.904,75.204 3.307,75.527C3.502,76.569 2.601,76.135 2.187,76.352C1.978,76.461 1.734,76.51 1.537,76.635C0.81,77.098 0.139,77.674 -0.635,78.03C-1.376,78.371 -2.129,78.647 -2.827,79.104C-3.472,79.526 -4.222,79.917 -4.969,80.028C-7.007,80.33 -9.004,81.036 -11.113,80.751C-11.434,80.708 -11.768,80.724 -12.091,80.756C-13.105,80.858 -14.406,81.753 -14.227,82.615C-14.031,83.551 -14.656,83.705 -14.963,84.175C-15.47,84.95 -15.244,85.739 -14.367,85.92C-13.421,86.115 -12.45,86.189 -11.423,86.325M-4.295,48.729C-3.633,47.481 -5.149,47.287 -5.284,46.458C-5.285,46.451 -5.51,46.438 -5.58,46.492C-5.83,46.685 -6.04,46.931 -6.297,47.113C-7.467,47.941 -8.66,48.737 -9.821,49.577C-10.474,50.05 -11.09,50.577 -11.71,51.095C-12.651,51.88 -13.551,52.69 -14.325,53.667C-15.232,54.815 -15.749,56.149 -16.421,57.408C-16.749,58.023 -17.005,58.685 -17.221,59.349C-17.311,59.627 -17.331,60.056 -17.175,60.258C-16.879,60.644 -16.644,60.185 -16.387,60.049C-15.727,59.699 -15.077,59.324 -14.394,59.022C-13.316,58.545 -12.146,58.235 -11.141,57.642C-9.85,56.881 -8.659,55.942 -7.479,55.01C-7.08,54.694 -6.842,54.171 -6.543,53.735C-6.423,53.561 -6.385,53.287 -6.229,53.19C-4.508,52.133 -4.751,50.239 -4.295,48.729M-20.04,79.851C-18.701,79.7 -17.352,79.604 -16.028,79.371C-15.429,79.266 -14.849,79.038 -14.473,78.369C-13.636,76.877 -12.675,75.454 -11.751,74.012C-11.595,73.769 -11.584,73.632 -11.893,73.572C-12.516,73.45 -13.281,73.516 -13.732,73.171C-14.398,72.662 -15.003,73.762 -15.539,73.064C-15.755,73.278 -16.156,73.68 -16.168,73.097C-16.183,72.378 -16.544,72.306 -17.035,72.209C-18.321,71.953 -19.179,71.08 -20.007,70.157C-20.259,69.877 -20.526,69.605 -20.812,69.36C-21.041,69.163 -21.341,68.839 -21.555,68.877C-21.961,68.949 -22.34,69.221 -22.702,69.454C-22.783,69.506 -22.783,69.744 -22.759,69.886C-22.704,70.211 -22.889,70.319 -23.065,70.11C-23.343,69.779 -23.577,69.689 -23.799,70.078C-24.296,70.95 -25.039,71.548 -25.841,72.114C-26.43,72.53 -26.632,73.103 -26.346,73.831C-25.852,75.084 -25.492,76.399 -24.894,77.597C-24.579,78.227 -23.916,78.709 -23.347,79.182C-22.375,79.99 -21.179,79.725 -20.04,79.851M-11.088,78.807C-9.013,78.958 -7.239,78.511 -5.457,78.074C-4.335,77.799 -3.37,77.243 -2.41,76.649C-1.803,76.273 -1.221,75.671 -0.574,75.585C0.848,75.398 1.776,74.396 2.853,73.712C4.527,72.651 5.969,71.232 7.576,70.056C8.832,69.137 9.068,67.599 9.949,66.459C10.096,66.27 9.971,65.558 9.816,65.5C9.019,65.201 8.084,64.707 7.364,64.9C6.269,65.194 4.978,65.335 4.197,66.378C3.851,66.84 3.526,67.328 3.263,67.84C2.932,68.484 2.971,67.894 2.915,67.747C2.796,67.432 2.615,67.473 2.455,67.673C1.664,68.66 0.471,69.008 -0.573,69.586C-1.167,69.914 -1.787,70.264 -2.439,70.406C-3.87,70.717 -5.134,71.44 -6.49,71.929C-7.08,72.142 -7.695,72.533 -8.082,73.016C-9.288,74.521 -10.4,76.103 -11.527,77.67C-11.745,77.973 -11.874,78.343 -12.02,78.692C-12.032,78.721 -11.852,78.829 -11.761,78.9C-11.436,78.468 -11.154,78.764 -11.088,78.807M-30.753,67.123C-30.753,67.151 -30.753,67.18 -30.752,67.208C-30.604,67.217 -30.455,67.225 -30.306,67.234C-30.309,67.143 -30.277,67.001 -30.322,66.971C-31.014,66.505 -30.827,65.817 -30.881,65.14C-31.009,63.552 -31.431,61.974 -30.767,60.404C-30.687,60.217 -30.764,59.97 -30.726,59.758C-30.55,58.755 -30.444,57.729 -30.155,56.757C-29.575,54.807 -28.656,53.072 -27.28,51.487C-25.773,49.75 -24.287,48.058 -22.435,46.663C-21.073,45.638 -19.896,44.365 -18.648,43.191C-18.478,43.031 -18.371,42.803 -18.235,42.606C-18.467,42.671 -18.709,42.713 -18.928,42.807C-19.347,42.988 -19.758,43.195 -19.894,43.691C-20.083,44.375 -20.514,43.296 -20.862,43.845C-21.079,44.189 -21.697,44.279 -22.134,44.487C-22.224,44.53 -22.361,44.57 -22.386,44.643C-22.841,45.954 -24.017,46.498 -25.054,47.202C-26.368,48.095 -27.144,49.408 -27.768,50.824C-27.852,51.013 -27.869,51.231 -27.917,51.436C-27.99,51.209 -28.039,50.97 -28.147,50.76C-28.193,50.671 -28.36,50.644 -28.471,50.589C-28.786,51.392 -29.674,51.423 -30.244,51.894C-31.949,53.302 -33.898,54.415 -35.351,56.126C-35.678,56.512 -36.596,56.616 -36.031,57.469C-36.005,57.509 -36.108,57.709 -36.149,57.709C-37.468,57.69 -37.637,58.949 -38.308,59.643C-39.512,60.891 -39.97,62.404 -39.955,64.118C-39.946,65.099 -40.233,66.107 -40.083,67.055C-39.927,68.045 -39.485,69.02 -39.006,69.915C-38.819,70.263 -38.208,70.497 -37.759,70.562C-37.248,70.636 -36.682,70.53 -36.175,70.384C-34.111,69.787 -33.736,69.519 -31.186,67.158C-31.102,67.081 -30.9,67.132 -30.753,67.123M-22.929,89.897C-22.634,89.88 -22.454,89.912 -22.312,89.854C-20.569,89.141 -18.617,89.374 -16.873,88.62C-16.09,88.282 -15.217,88.154 -14.386,87.928C-14.235,87.887 -14.087,87.831 -13.938,87.782C-14.073,87.715 -14.203,87.628 -14.346,87.585C-15.217,87.321 -16.128,87.15 -16.957,86.791C-18.104,86.294 -18.178,85.75 -17.553,84.579C-17.071,83.674 -16.672,82.724 -16.258,81.784C-16.221,81.702 -16.347,81.444 -16.395,81.445C-17.075,81.452 -17.961,81.234 -18.389,81.578C-19.094,82.146 -19.614,81.961 -20.31,81.779C-21.139,81.562 -22.013,81.521 -22.86,81.367C-23.801,81.196 -24.665,80.837 -25.479,80.314C-26.141,79.888 -26.55,79.478 -26.67,78.577C-26.824,77.428 -27.39,76.332 -27.8,75.222C-27.843,75.105 -28.034,75.043 -28.156,74.955C-28.222,75.081 -28.365,75.227 -28.34,75.33C-28.255,75.67 -28.233,75.883 -28.685,75.706C-29.009,75.578 -29.559,75.276 -29.626,75.36C-30.262,76.151 -31.408,76.055 -32.054,76.925C-32.575,77.627 -33.48,78.053 -34.24,78.563C-34.683,78.859 -35.247,78.991 -35.341,79.657C-35.359,79.789 -35.682,80.018 -35.763,79.98C-36.591,79.602 -37.073,80.199 -37.636,80.587C-38.616,81.262 -38.602,81.244 -37.86,82.086C-36.728,83.373 -35.239,84.219 -33.956,85.301C-32.399,86.614 -30.494,87.212 -28.853,88.321C-27.996,88.9 -26.935,89.187 -25.873,89.431C-24.848,89.667 -23.725,89.139 -22.929,89.897M22.641,48.472C23.099,48.551 23.687,48.527 23.74,48.683C24.036,49.558 24.726,49.604 25.412,49.555C26.146,49.503 26.133,50.106 26.323,50.483C26.555,50.942 26.132,51.134 25.804,51.336C25.394,51.589 24.95,51.811 24.601,52.133C23.293,53.344 21.825,54.301 20.242,55.111C19.09,55.701 17.788,56.053 17.243,57.528C17.015,58.146 16.199,58.542 15.663,59.052C15.269,59.426 14.744,59.758 14.55,60.223C14.274,60.887 13.442,60.319 13.185,61.067C13.001,61.6 12.017,61.669 12.011,62.488C12.011,62.49 11.852,62.514 11.781,62.49C11.035,62.235 10.585,62.878 9.995,63.09C9.827,63.15 9.589,63.506 9.629,63.568C9.758,63.77 10.018,64.049 10.199,64.029C11.154,63.928 12.033,64.421 12.513,64.962C13.021,65.535 12.972,65.393 13.354,64.964C14.104,64.123 14.832,63.135 15.792,62.642C16.822,62.113 17.67,61.442 18.5,60.695C19.908,59.426 21.359,58.199 22.697,56.86C24.399,55.156 26.027,53.375 27.649,51.594C29.231,49.857 31.027,48.277 31.907,45.999C32.214,45.204 32.573,44.43 32.885,43.636C32.961,43.443 32.985,43.209 32.962,43.001C32.875,42.2 32.766,41.402 32.648,40.605C32.618,40.399 32.578,40.08 32.45,40.022C31.624,39.654 31.801,38.885 31.606,38.231C31.336,37.324 31.479,36.183 30.61,35.572C29.653,34.899 28.838,33.968 27.624,33.701C26.629,33.482 25.537,32.914 24.658,33.146C23.495,33.452 22.726,32.454 21.7,32.707C21.494,32.758 21.267,32.714 21.05,32.728C20.737,32.749 20.415,32.846 20.115,32.798C19.099,32.637 18.237,33.023 17.359,33.443C16.835,33.694 16.258,33.836 15.704,34.023C15.348,34.142 14.97,34.213 14.635,34.375C13.041,35.15 11.45,35.929 9.765,36.497C9.513,36.582 9.212,36.701 9.071,36.901C8.507,37.705 7.557,37.904 6.811,38.418C6.199,38.84 5.513,39.156 4.902,39.579C3.799,40.344 2.913,41.419 1.551,41.819C1.356,41.876 1.248,42.315 1.15,42.595C0.982,43.071 1.006,43.065 0.575,42.805C0.481,42.748 0.292,42.76 0.192,42.818C-0.832,43.404 -1.85,44.002 -2.861,44.61C-3.122,44.766 -3.205,44.957 -2.984,45.268C-2.211,46.354 -1.955,47.628 -1.742,48.912C-1.72,49.041 -1.684,49.169 -1.655,49.298C-1.539,49.197 -1.407,49.111 -1.312,48.994C-0.174,47.59 0.734,45.949 2.57,45.269C2.657,45.237 2.78,45.095 2.766,45.028C2.626,44.345 3.134,44.33 3.565,44.084C4.526,43.536 5.528,43.209 6.614,43.171C7.201,43.15 7.694,42.341 8.346,42.97C8.443,42.618 8.519,42.259 8.644,41.917C8.696,41.775 8.838,41.653 8.962,41.551C9.589,41.038 10.25,40.563 10.849,40.02C11.67,39.275 12.597,39.81 13.468,39.783C13.625,39.778 13.945,40.367 13.927,40.666C13.906,41.003 13.655,41.396 13.388,41.635C12.278,42.629 11.122,43.572 9.985,44.536C9.124,45.266 8.297,46.014 8.074,47.212C8.027,47.463 7.875,47.802 7.674,47.897C6.841,48.294 6.723,49.187 6.246,49.824C6.111,50.003 6.093,50.269 6.021,50.496C6.192,50.39 6.371,50.296 6.533,50.177C8.228,48.925 10.098,48.027 12.146,47.548C13.945,47.128 15.707,46.701 16.709,44.916C16.786,44.779 16.929,44.676 17.05,44.568C17.985,43.731 18.776,43.633 19.882,44.173C20.224,44.341 20.232,44.574 20.059,44.819C19.816,45.161 19.54,45.485 19.244,45.782C18.979,46.049 18.66,46.262 18.379,46.514C18.044,46.812 18.051,46.936 18.537,47.129C19.285,47.426 19.299,47.788 18.596,48.196C17.994,48.545 17.31,48.751 16.674,49.047C16.386,49.182 16.127,49.381 15.855,49.55C16.153,49.531 16.453,49.481 16.749,49.499C17.829,49.563 18.826,49.273 19.848,48.957C20.778,48.67 21.779,48.613 22.641,48.472M3.374,31.019L3.288,30.795C2.976,30.912 2.637,30.986 2.355,31.155C0.945,31.998 -0.477,32.824 -1.842,33.736C-3.141,34.604 -4.344,35.617 -5.648,36.476C-6.38,36.958 -6.084,37.966 -6.81,38.392C-6.392,39.259 -6.575,40.324 -5.853,41.107C-5.54,41.447 -5.342,41.914 -5.164,42.352C-4.945,42.891 -4.657,43.128 -4.084,42.837C-3.7,42.642 -3.28,42.509 -2.918,42.281C-2.018,41.713 -1.154,41.091 -0.255,40.522C0.786,39.864 1.889,39.296 2.892,38.587C4.378,37.536 5.772,36.358 7.404,35.517C7.827,35.299 8.184,34.757 8.588,34.739C9.354,34.704 9.894,34.303 10.517,33.999C11.93,33.312 13.367,32.673 14.796,32.02C14.939,31.955 15.134,31.846 15.244,31.894C15.973,32.215 16.418,31.755 17,31.432C18.213,30.76 19.56,30.453 20.973,30.621C22.201,30.766 23.426,30.999 24.658,31.049C25.549,31.085 26.364,31.288 27.172,31.607C27.524,31.746 27.878,31.882 28.221,32.041C29.724,32.734 31.555,33 32.064,34.997C32.097,35.128 32.256,35.262 32.389,35.329C32.908,35.591 32.885,36.094 33.048,36.55C33.214,37.017 33.762,37.345 33.936,37.81C35.15,41.064 34.887,44.332 33.535,47.432C32.705,49.333 31.067,50.751 29.582,52.194C28.663,53.086 27.691,53.905 27.098,55.073C26.985,55.296 26.805,55.511 26.603,55.658C25.085,56.761 24.187,58.516 22.537,59.481C21.719,59.961 21.254,60.812 20.427,61.365C18.876,62.403 17.557,63.794 16.165,65.064C15.257,65.892 14.455,66.85 13.485,67.592C12.611,68.262 12.03,69.127 11.333,69.927C10.746,70.601 10.995,71.387 10.657,71.992C10.308,72.617 9.646,73.065 9.123,73.594C9.086,73.631 9.083,73.705 9.043,73.733C7.959,74.518 7.979,76.275 6.393,76.675C6.061,76.759 5.875,77.421 5.621,77.816C6.093,77.69 6.568,77.573 7.035,77.433C7.128,77.405 7.187,77.28 7.273,77.214C8.607,76.204 9.954,75.211 11.275,74.183C11.999,73.62 12.817,73.103 13.352,72.386C14.366,71.028 15.688,70.017 16.914,68.905C18.505,67.462 20.136,66.051 21.849,64.76C23.306,63.662 24.518,62.347 25.759,61.038C27.525,59.176 29.391,57.408 31.127,55.521C32.392,54.145 33.849,52.909 34.601,51.107C34.846,50.52 35.328,50.036 35.655,49.478C36.612,47.846 37.687,46.262 38.441,44.539C38.976,43.314 39.464,41.92 38.59,40.535C38.284,40.051 38.035,39.481 37.945,38.921C37.654,37.098 36.529,35.654 35.725,34.09C34.708,32.112 33.299,30.34 32.27,28.349C32.149,28.114 31.895,27.95 31.76,27.719C30.99,26.41 29.655,25.736 28.515,24.855C27.978,24.44 27.264,23.93 26.671,23.977C25.254,24.09 23.919,23.836 22.561,23.58C22.056,23.484 21.593,23.618 21.237,24.035C20.938,24.386 20.634,24.574 20.105,24.355C19.838,24.244 19.422,24.463 19.083,24.563C18.83,24.638 18.595,24.841 18.347,24.851C16.684,24.922 15.167,25.461 13.604,26.002C11.574,26.705 9.604,27.51 7.693,28.47C6.975,28.831 6.35,29.409 5.607,29.682C4.874,29.951 4.054,29.964 3.742,30.873C3.714,30.954 3.501,30.972 3.374,31.019M25.456,-13.25C25.404,-13.243 25.351,-13.236 25.299,-13.229C25.394,-12.659 25.435,-12.072 25.597,-11.521C25.836,-10.708 26.225,-9.936 26.436,-9.117C26.824,-7.607 27.093,-6.066 27.492,-4.559C27.604,-4.135 27.996,-3.785 28.26,-3.402C28.252,-3.816 28.222,-4.231 28.242,-4.644C28.27,-5.233 28.501,-5.869 28.345,-6.397C28.101,-7.223 28.229,-7.98 28.419,-8.742C28.649,-9.661 28.852,-10.612 28.979,-11.518C29.317,-13.942 30.308,-16.038 31.584,-18.052C32.504,-19.504 34.535,-19.638 35.719,-18.387C36.581,-17.476 37.355,-16.515 37.946,-15.41C38.172,-14.988 38.338,-14.528 38.604,-14.134C39.205,-13.243 39.352,-12.895 39.677,-11.445C39.843,-10.711 40.029,-9.975 40.281,-9.267C41.238,-6.583 41.986,-3.847 42.467,-1.038C42.066,-0.563 43.285,-0.395 42.691,0.129C42.646,0.168 42.661,0.372 42.704,0.396C42.983,0.548 43.288,0.655 43.56,0.818C43.614,0.851 43.563,1.061 43.561,1.189C42.317,0.951 43.036,1.649 43.142,2.062C43.248,2.475 43.417,2.89 43.429,3.307C43.466,4.593 43.496,5.885 43.425,7.168C43.351,8.512 42.405,9.338 41.025,9.529C39.164,9.787 37.312,10.108 35.456,10.401C35.117,10.455 34.779,10.509 34.44,10.563C34.552,10.959 34.635,11.365 34.787,11.744C34.863,11.933 35.087,12.057 35.211,12.233C35.926,13.247 36.703,14.226 37.324,15.295C38.383,17.118 40.053,18.164 41.891,18.934C42.864,19.342 43.972,19.531 45.032,19.596C45.926,19.651 46.842,19.394 47.744,19.252C47.889,19.229 48.041,19.103 48.143,18.985C49.467,17.452 50.389,15.774 50.102,13.641C50.072,13.415 50.242,13.161 50.322,12.921C50.421,12.621 50.577,12.327 50.614,12.02C50.848,10.097 51.114,8.176 51.245,6.246C51.305,5.367 51.583,4.387 50.817,3.604C50.725,3.509 50.677,3.277 50.725,3.154C51.236,1.855 50.557,0.608 50.519,-0.666C50.48,-1.98 49.926,-3.273 49.646,-4.586C49.359,-5.93 48.291,-6.959 48.259,-8.441C48.243,-9.187 47.651,-9.904 47.425,-10.666C46.98,-12.162 46.645,-13.692 45.737,-15.01C45.626,-15.171 45.529,-15.444 45.589,-15.606C45.914,-16.49 45.417,-17.094 44.875,-17.616C44.363,-18.109 44.582,-19.01 43.831,-19.326C44.072,-20.417 43.262,-20.972 42.631,-21.585C42.126,-22.076 41.569,-22.466 41.4,-23.239C41.3,-23.695 40.869,-23.995 40.415,-23.536C39.822,-22.938 39.427,-23.314 39.098,-23.778C37.859,-25.524 36.204,-26.78 34.39,-27.853C33.771,-28.219 33.159,-28.764 32.5,-28.836C32.05,-28.886 31.526,-28.26 31.034,-27.937C30.988,-27.908 30.94,-27.873 30.889,-27.864C29.497,-27.618 28.693,-26.449 27.595,-25.743C26.944,-25.324 26.625,-24.615 26.419,-23.849C25.96,-22.14 25.365,-20.478 25.076,-18.71C24.889,-17.571 24.907,-16.521 25.146,-15.423C25.301,-14.71 25.356,-13.975 25.456,-13.25M-48.485,58.546C-48.339,59.557 -48.007,60.583 -48.089,61.576C-48.24,63.406 -47.343,64.954 -46.855,66.567C-46.147,68.902 -44.934,71.087 -43.89,73.315C-43.667,73.789 -43.262,74.188 -42.897,74.581C-42.779,74.708 -42.456,74.812 -42.335,74.741C-41.602,74.311 -40.892,73.839 -40.192,73.355C-39.958,73.194 -40.083,73.066 -40.257,72.862C-41.558,71.343 -42.047,70.344 -41.882,67.957C-41.871,67.8 -41.903,67.634 -41.943,67.48C-42.35,65.91 -42.564,64.35 -42.189,62.72C-41.969,61.762 -41.777,60.824 -41.199,60.01C-40.668,59.261 -40.195,58.46 -39.59,57.777C-38.214,56.223 -36.774,54.726 -35.351,53.214C-35.248,53.103 -35.061,53.076 -34.929,52.986C-33.789,52.21 -32.62,51.471 -31.527,50.634C-30.812,50.087 -30.35,49.287 -29.48,48.836C-28.703,48.432 -28.116,47.659 -27.453,47.04C-26.123,45.796 -24.983,44.395 -23.436,43.325C-21.402,41.918 -19.292,40.87 -16.93,40.176C-15.922,39.88 -14.449,40.141 -14.099,38.539C-14.052,38.325 -13.579,38.187 -13.287,38.048C-11.764,37.324 -11.62,36.858 -12.537,35.487C-12.653,35.313 -12.851,35.195 -12.988,35.031C-13.738,34.131 -14.572,33.285 -15.208,32.31C-16.419,30.45 -17.894,28.831 -19.415,27.236C-19.821,26.811 -20.074,26.913 -20.508,27.195C-22.013,28.174 -23.42,29.285 -25.008,30.161C-26.792,31.146 -28.279,32.634 -30.2,33.439C-30.588,33.602 -30.913,33.925 -31.254,34.192C-31.712,34.551 -32.142,34.946 -32.61,35.29C-33.476,35.925 -34.445,36.447 -35.203,37.188C-35.611,37.588 -35.889,37.995 -36.506,37.941C-36.952,37.902 -37.181,38.146 -37.385,38.512C-38.409,40.346 -39.675,41.99 -41.242,43.399C-41.646,43.762 -42.065,44.129 -42.383,44.563C-42.695,44.989 -43.04,45.486 -43.096,45.982C-43.173,46.664 -43.257,47.137 -44.074,47.153C-44.203,47.155 -44.346,47.436 -44.448,47.608C-44.989,48.526 -45.683,49.397 -46.009,50.388C-46.335,51.384 -46.888,52.269 -47.295,53.205C-48.051,54.944 -48.37,56.681 -48.485,58.546M22.014,0.066C22.059,0.065 22.103,0.064 22.148,0.063C21.914,-1.64 21.729,-3.351 21.431,-5.043C21.207,-6.311 20.849,-7.556 20.52,-8.803C20.474,-8.976 20.25,-9.102 20.109,-9.25C20.048,-9.119 19.916,-8.976 19.935,-8.858C20.163,-7.452 19.448,-6.217 19.213,-4.897C19.141,-4.493 18.898,-4.072 18.62,-3.759C17.083,-2.033 15.665,-0.225 14.307,1.653C12.873,3.635 11.194,5.451 9.182,6.911C9.031,7.021 9.047,7.346 8.958,7.56C8.887,7.732 8.775,7.888 8.681,8.052C8.145,7.291 7.804,8.184 7.359,8.227C6.695,8.291 6.706,9.013 6.39,9.423C6.258,9.594 6.129,9.809 5.947,9.894C4.48,10.576 3.7,12.082 2.092,12.739C0.24,13.495 -1.334,14.934 -3.026,16.08C-3.469,16.381 -3.867,16.872 -4.347,16.97C-5.428,17.191 -6.174,17.84 -6.928,18.542C-7.361,18.945 -7.796,19.367 -8.296,19.674C-9.71,20.543 -11.17,21.333 -12.535,22.288C-13.853,23.21 -15.22,24.063 -16.582,24.92C-17.055,25.218 -17.34,25.403 -16.775,25.948C-16.048,26.649 -15.428,27.464 -14.773,28.239C-14.187,28.932 -13.6,29.626 -13.042,30.341C-12.454,31.095 -11.699,31.802 -11.383,32.664C-11.055,33.561 -10.163,33.864 -9.805,34.65C-9.785,34.695 -9.56,34.705 -9.478,34.654C-8.849,34.263 -7.998,33.985 -7.672,33.413C-7.321,32.798 -6.773,32.512 -6.35,32.051C-5.773,31.422 -5.15,30.823 -4.476,30.302C-3.758,29.746 -2.957,29.297 -2.194,28.8C-1.521,28.362 -0.767,28.009 -0.195,27.466C1.244,26.1 3.125,25.365 4.553,23.965C5.193,23.338 6.075,22.841 7.098,22.74C7.46,22.704 7.782,22.266 8.124,22.013C8.763,21.542 9.367,21.009 10.054,20.625C10.509,20.37 11.108,20.388 11.596,20.177C12.04,19.983 12.722,19.918 12.57,19.132C13.086,19.172 13.602,19.232 14.118,19.239C14.253,19.24 14.381,19.055 14.527,18.99C15.489,18.56 16.653,18.857 17.542,18.156C18.985,18.642 20.386,17.985 21.814,17.998C23.113,18.01 24.417,17.953 25.673,18.357C26.34,18.571 26.984,18.857 27.646,19.09C27.83,19.155 28.04,19.15 28.238,19.176C28.34,18.354 28.533,18.66 28.737,19.137C28.779,19.235 28.789,19.394 28.859,19.425C29.041,19.506 29.249,19.531 29.446,19.579C29.486,19.393 29.618,19.156 29.548,19.031C29.314,18.611 29.01,18.229 28.729,17.835C27.769,16.492 26.585,15.292 26.07,13.667C25.437,11.668 24.398,9.856 23.401,8.034C22.727,6.802 22.256,5.548 22.2,4.142C22.146,2.783 22.077,1.424 22.014,0.066M28.733,4.606C28.658,4.35 28.574,4.095 28.508,3.836C28.032,1.959 26.449,0.442 26.711,-1.679C26.722,-1.772 26.618,-1.874 26.589,-1.978C26.236,-3.231 25.848,-4.476 25.553,-5.742C25.415,-6.331 25.358,-6.908 24.833,-7.316C24.55,-7.535 24.492,-7.825 24.664,-8.186C24.774,-8.417 24.864,-8.75 24.78,-8.966C24.324,-10.139 24.172,-11.363 24.021,-12.596C23.992,-12.831 23.738,-13.732 23.435,-12.654C23.358,-12.84 23.162,-13.108 23.224,-13.196C23.602,-13.741 24.023,-14.233 23.087,-14.662C23.009,-14.698 22.981,-15.126 23.072,-15.201C23.864,-15.858 23.391,-16.726 23.487,-17.492C23.524,-17.789 23.432,-18.108 23.5,-18.393C23.683,-19.168 23.933,-19.927 24.124,-20.701C24.151,-20.812 23.999,-20.968 23.93,-21.103C23.849,-21.019 23.724,-20.948 23.693,-20.848C23.428,-20.003 22.691,-19.451 22.186,-18.816C21.648,-18.14 21.227,-17.377 21.32,-16.742C21.537,-15.262 21.279,-13.783 21.54,-12.315C21.736,-11.204 21.647,-10.03 21.932,-8.95C22.373,-7.28 23.02,-5.674 22.928,-3.889C22.905,-3.45 23.384,-3.001 23.418,-2.541C23.511,-1.267 23.481,0.014 23.517,1.292C23.581,3.572 23.878,5.786 25.142,7.779C25.659,8.593 26.018,9.506 26.464,10.366C27.276,11.932 28.027,13.537 28.944,15.041C29.615,16.14 30.53,17.087 31.299,18.13C32.028,19.117 32.758,19.838 34.122,20.176C35.429,20.498 36.669,21.18 38.074,21.41C39.737,21.681 41.383,21.693 43.044,21.561C43.224,21.547 43.39,21.345 43.562,21.231C43.419,21.127 43.289,20.971 43.128,20.928C41.934,20.609 40.732,20.32 39.537,20.006C38.723,19.791 38.108,19.328 37.663,18.587C37.392,18.136 36.997,17.754 36.627,17.372C36.263,16.995 34.96,15.231 34.777,14.822C34.737,14.733 34.614,14.594 34.568,14.608C34.39,14.662 34.228,14.768 34.06,14.855C34.029,14.643 34.033,14.417 33.959,14.222C33.812,13.833 33.656,13.439 33.439,13.087C33.242,12.769 32.899,12.536 32.725,12.209C31.49,9.903 30.283,7.582 29.066,5.266C28.955,5.046 28.844,4.826 28.733,4.606M-0.668,56.237C-1.154,56.453 -1.671,56.621 -2.121,56.897C-2.936,57.394 -3.702,57.971 -4.507,58.486C-5.098,58.864 -5.723,59.189 -6.324,59.551C-6.847,59.867 -7.365,60.193 -7.873,60.533C-8.438,60.911 -9.368,61.23 -9.47,61.715C-9.703,62.823 -10.672,61.855 -10.965,62.448C-10.988,62.493 -11.047,62.518 -11.086,62.557C-11.512,62.976 -11.992,63.236 -12.574,63.468C-14.003,64.038 -15.514,64.536 -16.519,65.87C-16.711,66.125 -17.208,66.15 -17.564,66.281C-17.372,66.65 -17.181,67.019 -16.987,67.387C-16.887,67.579 -16.819,67.805 -16.674,67.956C-16.201,68.451 -15.768,68.877 -14.907,68.716C-14.233,68.59 -13.415,68.353 -12.743,68.974C-12.62,69.088 -12.256,69.027 -12.042,68.946C-10.724,68.443 -9.303,68.361 -7.979,67.767C-7.201,67.418 -6.409,67.208 -5.792,66.57C-5.574,66.345 -5.231,66.247 -4.972,66.055C-4.234,65.511 -3.497,64.965 -2.788,64.386C-2.432,64.097 -2.256,63.873 -2.969,63.725C-3.995,63.512 -4.188,63.1 -3.646,62.274C-3.122,61.475 -2.41,60.8 -1.795,60.059C-1.634,59.864 -1.367,59.572 -1.419,59.415C-1.764,58.372 -1.222,57.678 -0.619,56.957C-0.507,56.824 -0.645,56.482 -0.668,56.236C0.096,56.231 0.426,55.644 0.805,55.127C0.811,55.119 0.714,55.02 0.712,55.022C0.269,55.374 -0.171,55.729 -0.606,56.089C-0.642,56.119 -0.648,56.187 -0.668,56.237M-32.688,71.92C-34.553,72.853 -36.411,73.8 -38.286,74.713C-38.914,75.018 -39.589,75.225 -40.235,75.494C-41.512,76.026 -41.671,76.5 -40.957,77.604C-40.753,77.921 -40.503,78.214 -40.336,78.548C-40.02,79.177 -39.535,79.225 -38.981,78.973C-38.41,78.712 -37.853,78.418 -37.311,78.101C-36.533,77.646 -35.731,77.214 -35.027,76.661C-34.671,76.381 -34.595,75.64 -34.236,75.497C-33.783,75.315 -33.286,75.271 -32.843,74.956C-32.129,74.448 -31.332,74.059 -30.604,73.57C-30.07,73.211 -29.584,72.78 -29.091,72.363C-28.977,72.266 -28.818,72.034 -28.855,71.975C-29.19,71.444 -29.492,70.853 -29.959,70.466C-30.156,70.302 -30.923,70.45 -31.082,70.689C-31.496,71.311 -32.176,71.489 -32.689,71.921L-32.688,71.92ZM-16.351,44.474C-16.596,44.566 -16.957,44.587 -17.066,44.763C-17.421,45.337 -17.781,45.842 -18.523,45.91C-18.614,45.919 -18.725,46.015 -18.777,46.101C-18.997,46.462 -19.136,46.893 -19.421,47.187C-19.705,47.478 -20.332,47.152 -20.542,47.796C-20.646,48.114 -21.052,48.34 -21.336,48.591C-22.499,49.614 -23.703,50.592 -24.82,51.662C-25.557,52.368 -26.173,53.2 -26.836,53.982C-26.932,54.095 -27.079,54.279 -27.045,54.372C-26.818,54.995 -27.202,55.393 -27.516,55.827C-27.567,55.896 -27.561,56.006 -27.582,56.098C-27.485,56.116 -27.365,56.182 -27.294,56.147C-26.57,55.792 -25.84,55.444 -25.138,55.048C-24.162,54.496 -23.266,53.742 -22.229,53.373C-21.034,52.948 -20.204,52.277 -19.505,51.249C-19.223,50.835 -19.056,50.454 -18.893,50.001C-18.687,49.425 -18.461,48.869 -18.031,48.33C-17.158,47.238 -16.168,46.075 -16.352,44.473C-15.669,44.45 -15.548,43.953 -15.478,43.422C-15.477,43.416 -15.65,43.356 -15.73,43.374C-16.334,43.511 -16.379,43.974 -16.351,44.474M7.501,57.871C7.304,57.819 6.973,57.669 6.928,57.729C6.272,58.622 5.115,58.8 4.388,59.554C4.24,59.707 3.472,59.642 3.991,60.222L3.254,60.812C2.996,61.121 2.729,61.424 2.492,61.749C2.463,61.788 2.597,61.946 2.656,62.048C3.058,61.724 3.902,62.007 3.907,61.138C4.999,60.889 5.685,60.051 6.513,59.401C7.046,58.982 7.47,58.575 7.5,57.87C7.695,57.959 7.955,58.178 8.072,58.118C8.822,57.733 9.558,57.313 10.257,56.842C10.437,56.72 10.465,56.373 10.563,56.13C10.691,56.328 10.812,56.682 10.947,56.688C11.17,56.697 11.524,56.531 11.602,56.346C11.739,56.02 11.709,55.623 11.749,55.256C11.859,55.482 12.029,55.699 12.068,55.937C12.149,56.426 12.285,56.641 12.799,56.327C13.108,56.139 13.477,56.051 13.811,55.901C14.448,55.616 15.167,55.43 15.696,55.007C16.999,53.968 18.349,53.028 19.863,52.328C20.054,52.24 20.245,52.112 20.376,51.953C20.455,51.858 20.447,51.661 20.417,51.523C20.403,51.456 20.239,51.364 20.158,51.378C19.18,51.541 17.943,51.222 17.297,51.98C16.75,52.623 16.085,51.755 15.757,52.417C14.978,51.52 14.413,52.313 13.842,52.697C13.13,53.176 12.461,53.721 11.796,54.266C11.43,54.567 11.111,54.925 10.771,55.257C10.102,55.301 9.829,55.852 9.508,56.301C9.365,56.502 9.396,56.693 9.005,56.688C8.174,56.678 8.073,56.825 7.501,57.871M-24.847,67.672C-25.041,67.706 -25.349,67.833 -25.412,67.758C-25.969,67.086 -26.057,67.508 -26.162,68.033C-26.188,68.164 -26.325,68.344 -26.443,68.373C-27.596,68.655 -27.561,68.641 -27.364,69.698C-27.307,70.004 -27.441,70.281 -27.007,69.983C-26.576,69.685 -26.137,69.073 -25.746,69.107C-24.8,69.189 -24.651,68.671 -24.52,67.999C-23.862,67.592 -23.355,66.904 -22.475,66.895C-22.454,66.894 -22.372,66.585 -22.427,66.529C-22.766,66.189 -23.464,66.2 -23.789,66.535C-24.149,66.907 -24.495,67.293 -24.847,67.672M-19.292,57.544C-20.175,58.067 -20.588,58.925 -20.917,59.839C-20.951,59.934 -20.925,60.051 -20.926,60.158C-21.373,60.485 -21.373,60.811 -20.926,61.138C-20.883,61.582 -20.735,61.988 -20.257,61.539C-19.963,61.262 -19.747,60.816 -19.67,60.413C-19.488,59.467 -19.412,58.501 -19.292,57.543C-18.567,57.313 -19.05,56.134 -18.127,56.058C-18.207,55.768 -18.276,55.474 -18.376,55.191C-18.391,55.15 -18.606,55.117 -18.632,55.151C-18.952,55.584 -19.348,55.996 -19.526,56.485C-19.631,56.771 -19.382,57.187 -19.292,57.544M14.036,74.861C12.786,75.511 11.614,76.269 10.672,77.337C10.6,77.419 10.548,77.548 10.46,77.579C8.719,78.189 7.592,79.711 5.896,80.49C2.942,81.847 0.096,83.463 -2.816,84.933C-2.913,84.981 -3.008,85.043 -3.111,85.067C-3.671,85.2 -3.356,86.381 -4.427,86.052C-4.86,85.918 -5.5,86.46 -6.045,86.693C-6.642,86.948 -7.243,87.19 -7.833,87.458C-8.369,87.702 -8.891,87.977 -9.422,88.231C-10.002,88.51 -10.563,88.936 -11.172,89.027C-13.724,89.407 -15.952,90.837 -18.495,91.216C-19.81,92.155 -21.349,91.625 -22.773,91.805C-24.081,91.97 -25.44,91.76 -26.773,91.667C-27.139,91.642 -27.511,91.482 -27.848,91.317C-29.685,90.418 -31.512,89.498 -33.342,88.584C-33.439,88.536 -33.541,88.492 -33.627,88.427C-35.3,87.158 -36.998,85.92 -38.627,84.596C-39.199,84.132 -39.64,83.484 -40.064,82.867C-40.442,82.318 -40.8,82.616 -40.879,82.939C-41.035,83.585 -41.373,83.692 -41.961,83.712C-42.352,83.726 -42.762,83.951 -43.115,84.164C-43.712,84.524 -44.319,84.895 -44.837,85.357C-46.593,86.923 -48.857,86.836 -50.952,87.174C-51.685,87.293 -52.609,86.757 -53.317,86.315C-53.82,86.001 -53.705,85.337 -53.301,84.869C-52.439,83.871 -52.083,82.496 -50.776,81.802C-50.269,81.533 -49.986,80.794 -49.667,80.231C-49.197,79.397 -48.313,79.034 -47.688,78.381C-47.012,77.676 -46.379,76.919 -45.631,76.301C-45.162,75.914 -44.989,75.653 -45.349,75.114C-46.386,73.562 -47.198,71.914 -47.891,70.161C-48.365,68.961 -48.732,67.738 -49.198,66.557C-49.662,65.379 -49.936,64.201 -50.043,62.992C-50.144,61.864 -50.593,60.773 -50.409,59.617C-50.393,59.515 -50.395,59.378 -50.45,59.303C-51.408,58.002 -50.674,56.716 -50.425,55.428C-50.211,54.322 -50,53.215 -49.379,52.24C-49.296,52.109 -49.264,51.933 -49.248,51.774C-49.194,51.245 -49.355,50.512 -49.069,50.233C-48.655,49.832 -48.335,49.419 -48.044,48.936C-47.744,48.436 -47.316,48.012 -47.027,47.507C-46.575,46.717 -46.197,45.884 -45.778,45.075C-45.608,44.746 -45.49,44.325 -45.216,44.127C-43.93,43.196 -43.093,41.835 -41.927,40.793C-40.744,39.737 -39.862,38.452 -39.19,37.014C-39.062,36.74 -38.824,36.49 -38.578,36.305C-37.419,35.431 -36.267,34.542 -35.06,33.737C-33.714,32.839 -32.367,31.909 -30.916,31.211C-29.823,30.685 -28.831,30.103 -28.002,29.23C-27.857,29.076 -27.533,28.948 -27.537,28.817C-27.593,27.322 -26.16,27.285 -25.37,26.685C-24.996,26.4 -24.196,26.492 -23.661,26.653C-23.076,26.829 -22.707,26.625 -22.345,26.303C-21.872,25.882 -21.121,25.436 -21.08,24.951C-21.03,24.359 -21.593,23.715 -21.889,23.093C-22.003,22.853 -22.194,22.617 -22.212,22.369C-22.39,19.917 -22.957,17.445 -22.207,15.014C-21.752,13.54 -21.345,12.019 -20.008,10.966C-18.876,10.076 -18.249,8.689 -17.092,7.79C-15.78,6.77 -14.521,5.681 -13.2,4.673C-12.827,4.388 -12.698,4.148 -12.871,3.73C-12.932,3.583 -13.049,3.387 -13,3.276C-12.349,1.821 -12.037,0.106 -10.619,-0.83C-9.412,-1.627 -8.063,-2.239 -6.715,-2.779C-5.721,-3.178 -4.819,-2.531 -3.975,-2.077C-2.698,-1.389 -1.833,-0.454 -1.909,1.194C-1.942,1.905 -1.46,2.633 -1.819,3.402C-1.853,3.476 -1.699,3.694 -1.583,3.77C-1.08,4.101 -1.049,4.113 -1.181,4.27C-1.688,4.87 -1.739,5.673 -2.053,6.303C-2.513,7.228 -2.651,8.614 -4.289,8.655C-5.021,8.673 -5.75,9.274 -6.455,9.658C-6.706,9.795 -6.881,10.071 -7.091,10.284C-7.633,9.543 -8.204,10.73 -8.841,10.23C-9.281,9.885 -9.975,9.883 -10.483,9.597C-10.772,9.434 -10.926,9.017 -11.122,8.703C-11.349,8.34 -11.532,7.947 -11.782,7.601C-11.883,7.462 -12.159,7.298 -12.275,7.345C-13.543,7.858 -14.724,8.505 -15.43,9.754C-15.737,10.298 -15.872,10.472 -16.049,10.528C-16.514,10.673 -17.029,10.663 -17.172,11.367C-17.246,11.73 -17.745,11.994 -18.019,12.331C-19.146,13.714 -19.865,15.334 -20.175,17.048C-20.348,18.003 -20.173,19.148 -19.775,20.038C-19.48,20.7 -20.23,21.275 -19.64,21.827C-19.475,21.982 -19.551,22.371 -19.406,22.574C-19.19,22.877 -18.915,23.214 -18.59,23.337C-18.392,23.412 -18.043,23.127 -17.777,22.976C-16.219,22.094 -14.65,21.227 -13.114,20.308C-11.907,19.586 -10.752,18.78 -9.555,18.043C-8.969,17.682 -8.191,17.557 -8.104,16.661C-8.098,16.597 -7.723,16.477 -7.582,16.535C-6.95,16.795 -6.53,16.395 -6.118,16.08C-4.449,14.8 -2.695,13.657 -0.832,12.681C-0.737,12.631 -0.662,12.528 -0.563,12.502C0.083,12.329 -0.13,11.435 0.547,11.24C1.082,11.085 1.617,10.831 2.069,10.506C3.199,9.693 4.333,8.903 5.22,7.771C5.835,6.987 6.663,6.299 7.528,5.796C9.21,4.816 10.419,3.383 11.599,1.917C13.215,-0.093 14.754,-2.164 16.337,-4.202C17.15,-5.249 18.015,-6.223 18.098,-7.685C18.159,-8.776 18.801,-9.764 18.75,-10.936C18.721,-11.589 19.147,-12.261 19.361,-12.926C19.443,-13.181 19.625,-13.48 19.556,-13.692C19.338,-14.365 19.045,-15.006 19.579,-15.659C18.984,-16.221 20.124,-16.909 19.452,-17.532C19.364,-17.613 19.742,-18.267 19.973,-18.61C20.847,-19.908 21.77,-21.173 22.628,-22.48C22.941,-22.956 23.384,-23.443 23.045,-24.122C22.982,-24.25 23.071,-24.455 23.089,-24.624C23.223,-24.533 23.345,-24.409 23.492,-24.358C23.938,-24.204 24.194,-24.576 24.068,-24.837C23.765,-25.468 24.086,-25.484 24.534,-25.764C24.978,-26.042 25.285,-26.696 25.441,-27.245C25.798,-28.492 26.796,-29.188 27.626,-30.028C28.024,-30.431 29.269,-30.166 29.682,-29.551C29.88,-29.257 29.973,-29.17 30.263,-29.33C30.358,-29.383 30.482,-29.399 30.556,-29.47C30.946,-29.846 31.391,-30.604 31.694,-30.549C32.687,-30.371 33.747,-30.07 34.559,-29.5C36.089,-28.425 37.858,-27.661 39.109,-26.213C39.357,-25.925 39.472,-25.951 39.734,-26.142C40.022,-26.35 40.398,-26.681 40.663,-26.624C41.158,-26.518 41.726,-26.275 42.042,-25.902C42.964,-24.812 43.793,-23.641 44.623,-22.476C44.933,-22.042 45.15,-21.541 45.397,-21.064C45.619,-20.634 45.715,-20.056 46.058,-19.789C46.868,-19.158 47.027,-18.268 47.297,-17.399C47.487,-16.783 47.596,-16.114 47.915,-15.572C48.572,-14.455 48.398,-13.132 48.954,-11.99C49.602,-10.661 49.569,-9.052 50.599,-7.866C50.668,-7.787 50.74,-7.663 50.727,-7.571C50.51,-6.034 51.681,-4.908 51.92,-3.506C52.125,-2.303 52.433,-1.115 52.57,0.094C52.703,1.258 52.715,2.427 53.38,3.462C53.443,3.56 53.276,3.801 53.223,3.978C53.119,4.324 52.966,4.666 52.931,5.02C52.857,5.79 53.428,6.503 52.918,7.368C52.58,7.941 52.685,8.776 52.593,9.493C52.483,10.347 52.307,11.198 52.282,12.054C52.242,13.447 51.952,14.783 51.561,16.107C51.515,16.262 51.388,16.403 51.375,16.557C51.237,18.088 50.118,19.003 49.135,19.941C48.392,20.651 47.414,21.054 46.305,20.962C45.765,20.917 45.217,20.946 44.673,20.968C44.542,20.973 44.415,21.085 44.286,21.148C44.385,21.266 44.465,21.417 44.59,21.495C44.721,21.579 44.905,21.575 45.051,21.641C45.41,21.805 45.399,22.057 45.089,22.224C44.283,22.657 43.457,23.05 42.634,23.45C42.544,23.493 42.423,23.493 42.32,23.482C41.038,23.34 39.753,23.048 38.479,23.095C37.499,23.131 36.594,22.986 35.661,22.804C35.452,22.763 35.173,22.916 34.967,23.044C34.455,23.365 33.962,23.763 33.551,22.932C31.81,22.585 30.171,21.922 28.539,21.259C27.177,20.706 25.844,20.166 24.319,20.249C23.821,20.276 23.302,19.902 22.926,20.539C22.885,20.609 22.502,20.591 22.488,20.547C22.137,19.428 21.208,19.967 20.615,20.011C18.364,20.179 16.005,20.162 13.956,21.095C12.479,21.768 10.706,22.039 9.597,23.439C7.501,24.239 5.825,25.741 3.916,26.855C2.995,27.392 2.002,27.938 1.545,29.022C2.512,28.58 3.483,28.146 4.445,27.693C5.075,27.396 5.701,27.089 6.312,26.755C6.736,26.522 7.199,26.3 7.523,25.958C8.049,25.403 8.643,25.259 9.381,25.148C10.296,25.012 11.161,24.555 12.051,24.244C12.716,24.012 13.374,23.736 14.057,23.577C15.262,23.298 16.556,23.272 17.682,22.818C19.598,22.045 21.554,21.902 23.56,21.93C24.388,21.942 25.175,21.955 25.769,21.19C25.996,20.898 26.372,20.822 26.235,21.467C26.21,21.583 26.418,21.833 26.568,21.89C27.828,22.366 29.208,22.63 30.339,23.312C31.719,24.146 33.359,24.795 34.017,26.516C34.106,26.749 34.351,26.922 34.524,27.122C35.038,27.715 35.608,28.267 35.621,29.147C35.624,29.395 35.737,29.697 35.904,29.878C36.597,30.629 37.472,31.265 37.306,32.477C37.3,32.523 37.343,32.618 37.369,32.62C38.34,32.699 38.02,33.672 38.414,34.163C38.876,34.738 39.179,35.45 39.501,36.125C40.14,37.466 40.628,38.874 41.472,40.122C41.8,40.607 41.894,41.181 41.536,41.806C41.283,42.249 41.284,42.835 41.153,43.352C41.037,43.809 40.885,44.256 40.771,44.713C40.71,44.953 40.684,45.204 40.667,45.452C40.656,45.604 40.734,45.883 40.7,45.894C39.642,46.257 39.653,47.457 38.964,48.085C38.563,48.451 38.08,48.711 38.463,49.365C38.498,49.425 38.434,49.59 38.367,49.656C37.131,50.852 36.079,52.132 35.381,53.767C35.012,54.632 33.978,55.2 33.291,55.945C32.395,56.917 31.621,58.013 30.654,58.903C29.767,59.719 29.134,60.766 28.119,61.467C27.622,61.811 27.305,62.411 26.891,62.881C25.427,64.536 23.633,65.788 21.845,67.057C20.949,67.693 20.209,68.55 19.395,69.284C18.493,70.097 17.715,71.056 16.675,71.749C15.768,72.354 15.168,73.241 14.689,74.209C14.471,74.426 14.254,74.643 14.036,74.861" style="fill:rgb(66,45,39);fill-rule:nonzero;"/>
                    </g>
                </g>
            </g>
        </g>
    </g>
</svg>
