<?xml version="1.0" encoding="UTF-8" standalone="no"?>
<!DOCTYPE svg PUBLIC "-//W3C//DTD SVG 1.1//EN" "http://www.w3.org/Graphics/SVG/1.1/DTD/svg11.dtd">
<svg width="100%" height="100%" viewBox="0 0 337 436" version="1.1" xmlns="http://www.w3.org/2000/svg" xmlns:xlink="http://www.w3.org/1999/xlink" xml:space="preserve" xmlns:serif="http://www.serif.com/" style="fill-rule:evenodd;clip-rule:evenodd;stroke-linejoin:round;stroke-miterlimit:2;">
    <g transform="matrix(1,0,0,1,-1517.19,-3092.9)">
        <g transform="matrix(1,0,0,1,-36445.7,-500.501)">
            <g transform="matrix(4.16667,0,0,4.16667,36000,0)">
                <g id="Diskokugle">
                    <g transform="matrix(1,0,0,1,518.349,928.772)">
                        <path d="M0,-28.017L0.068,-27.879L0.138,-28.015L0,-28.017ZM12.461,-24.678L12.387,-24.572L12.504,-24.555L12.461,-24.678ZM-22.064,-15.273L-22.137,-15.169L-22.028,-15.149L-22.064,-15.273ZM-26.288,-14.5L-26.221,-14.37L-26.155,-14.5L-26.288,-14.5ZM-2.408,31.476L-2.419,31.598L-2.292,31.547L-2.408,31.476ZM-10.612,27.442L-10.6,27.342L-10.714,27.382L-10.612,27.442ZM1.886,1L1.998,1.007L1.95,0.889L1.886,1ZM-34.177,6.004L-34.314,5.916L-34.334,6.057L-34.177,6.004ZM5.03,6.667C4.976,6.651 4.923,6.634 4.869,6.618C4.862,6.692 4.856,6.766 4.849,6.841C4.905,6.833 4.973,6.842 5.012,6.812C5.039,6.791 5.025,6.717 5.03,6.667M-11.263,10.97C-11.207,10.877 -11.174,10.82 -11.14,10.763C-11.184,10.764 -11.228,10.765 -11.272,10.766C-11.269,10.817 -11.267,10.868 -11.263,10.97M-26.71,6.584C-26.659,6.557 -26.584,6.542 -26.564,6.501C-26.546,6.463 -26.588,6.397 -26.604,6.343C-26.683,6.388 -26.761,6.434 -26.84,6.479C-26.797,6.514 -26.754,6.549 -26.71,6.584M-41.441,16.47C-41.397,16.452 -41.324,16.443 -41.315,16.415C-41.303,16.376 -41.341,16.323 -41.358,16.275C-41.421,16.307 -41.485,16.339 -41.549,16.371C-41.513,16.404 -41.477,16.437 -41.441,16.47M-11.79,-39.236C-11.769,-39.283 -11.725,-39.337 -11.735,-39.376C-11.744,-39.411 -11.814,-39.43 -11.857,-39.456C-11.883,-39.379 -11.909,-39.302 -11.935,-39.225C-11.887,-39.229 -11.838,-39.232 -11.79,-39.236M-32.239,21.98C-32.224,21.928 -32.187,21.869 -32.203,21.831C-32.219,21.792 -32.286,21.775 -32.331,21.748C-32.349,21.825 -32.368,21.903 -32.386,21.98L-32.239,21.98ZM-28.355,-1.821C-28.31,-1.844 -28.264,-1.867 -28.219,-1.89C-28.275,-1.964 -28.328,-2.041 -28.392,-2.108C-28.398,-2.114 -28.468,-2.059 -28.508,-2.033C-28.457,-1.962 -28.406,-1.891 -28.355,-1.821M-20.715,27.694C-20.77,27.768 -20.836,27.838 -20.873,27.92C-20.883,27.943 -20.796,28.047 -20.773,28.04C-20.684,28.015 -20.603,27.961 -20.519,27.918C-20.584,27.843 -20.649,27.768 -20.715,27.694M-36.389,-8.849C-36.406,-8.794 -36.422,-8.739 -36.438,-8.684C-36.364,-8.676 -36.289,-8.667 -36.215,-8.658C-36.224,-8.715 -36.216,-8.784 -36.246,-8.825C-36.266,-8.853 -36.34,-8.842 -36.389,-8.849M8.849,-16.926C8.81,-16.886 8.77,-16.847 8.73,-16.807C8.807,-16.775 8.883,-16.742 8.959,-16.71C8.974,-16.762 9.016,-16.829 8.998,-16.863C8.978,-16.9 8.901,-16.906 8.849,-16.926M25.017,-20.164C24.953,-20.219 24.889,-20.274 24.824,-20.329C24.801,-20.283 24.763,-20.238 24.759,-20.19C24.754,-20.143 24.783,-20.093 24.797,-20.044C24.871,-20.084 24.944,-20.123 25.017,-20.164M15.299,-22.149C15.343,-22.171 15.407,-22.183 15.425,-22.218C15.441,-22.251 15.408,-22.309 15.397,-22.355C15.328,-22.316 15.26,-22.277 15.191,-22.237L15.299,-22.149ZM-24.329,-20.208C-24.279,-20.236 -24.228,-20.264 -24.178,-20.291C-24.25,-20.369 -24.312,-20.486 -24.399,-20.51C-24.453,-20.525 -24.546,-20.4 -24.622,-20.337C-24.524,-20.294 -24.427,-20.251 -24.329,-20.208M-19.981,-20.039C-20.062,-20.086 -20.143,-20.132 -20.224,-20.178C-20.263,-20.078 -20.332,-19.976 -20.327,-19.878C-20.324,-19.83 -20.186,-19.788 -20.109,-19.743C-20.067,-19.842 -20.024,-19.94 -19.981,-20.039M6.038,-22.352C5.999,-22.387 5.96,-22.423 5.921,-22.459C5.884,-22.38 5.847,-22.301 5.81,-22.222C5.863,-22.215 5.93,-22.185 5.966,-22.207C6.005,-22.23 6.015,-22.301 6.038,-22.352M15.379,-10.597C15.437,-10.692 15.493,-10.786 15.55,-10.881C15.462,-10.917 15.376,-10.963 15.284,-10.981C15.264,-10.984 15.186,-10.867 15.201,-10.836C15.242,-10.748 15.317,-10.676 15.379,-10.597M29.945,-10.292C29.888,-10.295 29.831,-10.298 29.773,-10.301C29.784,-10.202 29.786,-10.099 29.813,-10.004C29.819,-9.985 29.921,-9.994 29.979,-9.99C29.968,-10.091 29.957,-10.191 29.945,-10.292M-21.912,26.518C-21.851,26.566 -21.758,26.678 -21.72,26.661C-21.631,26.624 -21.569,26.524 -21.495,26.449C-21.561,26.396 -21.657,26.284 -21.687,26.299C-21.776,26.345 -21.839,26.442 -21.912,26.518M-30.792,-23.285C-30.957,-23.069 -31.083,-22.957 -31.132,-22.819C-31.156,-22.749 -31.04,-22.63 -30.987,-22.533C-30.859,-22.611 -30.667,-22.663 -30.624,-22.773C-30.584,-22.876 -30.704,-23.04 -30.792,-23.285M-34.826,-13.703C-34.974,-13.773 -35.096,-13.873 -35.149,-13.845C-35.229,-13.802 -35.3,-13.67 -35.3,-13.575C-35.301,-13.502 -35.188,-13.428 -35.126,-13.355C-35.03,-13.466 -34.933,-13.578 -34.826,-13.703M27.774,-5.772C27.69,-5.821 27.607,-5.87 27.523,-5.919C27.471,-5.825 27.391,-5.734 27.383,-5.637C27.379,-5.596 27.53,-5.542 27.611,-5.495C27.666,-5.587 27.72,-5.679 27.774,-5.772M-30.66,0.737C-30.748,0.904 -30.875,1.054 -30.844,1.104C-30.761,1.237 -30.608,1.326 -30.483,1.433C-30.425,1.332 -30.296,1.199 -30.324,1.138C-30.391,0.992 -30.532,0.881 -30.66,0.737M-9.95,-53.424C-10.024,-53.443 -10.098,-53.462 -10.172,-53.481C-10.225,-53.297 -10.286,-53.113 -10.318,-52.925C-10.322,-52.904 -10.154,-52.855 -10.066,-52.819C-10.027,-53.021 -9.989,-53.223 -9.95,-53.424M11.172,-23.866C11.049,-23.98 10.945,-24.131 10.896,-24.114C10.738,-24.061 10.601,-23.947 10.456,-23.856C10.562,-23.757 10.682,-23.567 10.769,-23.581C10.912,-23.604 11.033,-23.76 11.172,-23.866M26.503,1.339C26.407,1.115 26.367,0.959 26.277,0.843C26.247,0.805 26.008,0.85 25.998,0.89C25.963,1.032 25.936,1.219 26.004,1.327C26.045,1.391 26.269,1.339 26.503,1.339M2.802,10.964C2.931,11.056 3.016,11.117 3.102,11.178C3.195,11.035 3.296,10.896 3.367,10.743C3.375,10.727 3.141,10.56 3.122,10.576C3.001,10.687 2.907,10.83 2.802,10.964M-9.546,14.402C-9.544,14.501 -9.543,14.601 -9.542,14.7L-8.756,14.7C-8.752,14.644 -8.747,14.587 -8.742,14.531C-9.01,14.488 -9.278,14.445 -9.546,14.402M-5.766,-26.772C-5.81,-26.811 -5.864,-26.891 -5.898,-26.884C-6.173,-26.824 -6.448,-26.758 -6.712,-26.664C-6.74,-26.654 -6.746,-26.422 -6.689,-26.357C-6.487,-26.128 -5.98,-26.269 -5.783,-26.597C-5.756,-26.643 -5.77,-26.713 -5.766,-26.772M-1.99,-24.706C-2.233,-24.892 -2.381,-25.056 -2.564,-25.119C-2.633,-25.143 -2.894,-24.869 -2.879,-24.843C-2.774,-24.665 -2.637,-24.489 -2.467,-24.378C-2.419,-24.347 -2.227,-24.538 -1.99,-24.706M7.818,-24.988C7.647,-24.871 7.415,-24.792 7.401,-24.684C7.385,-24.559 7.531,-24.332 7.657,-24.286C7.892,-24.2 8.169,-24.264 8.171,-24.582C8.171,-24.704 7.965,-24.826 7.818,-24.988M-0.77,21.923C-1.052,22.456 -1.156,22.626 -1.224,22.81C-1.233,22.835 -1.057,22.974 -0.962,22.979C-0.72,22.993 -0.477,22.926 -0.491,22.621C-0.498,22.464 -0.609,22.313 -0.77,21.923M14.005,8.385C13.832,8.204 13.714,8.081 13.597,7.957C13.492,8.081 13.305,8.206 13.306,8.33C13.306,8.452 13.479,8.64 13.609,8.672C13.7,8.695 13.845,8.508 14.005,8.385M-9.412,8.358C-9.164,8.441 -8.952,8.552 -8.732,8.572C-8.585,8.585 -8.427,8.468 -8.275,8.409C-8.366,8.283 -8.443,8.069 -8.553,8.05C-8.847,8 -9.24,7.793 -9.412,8.358M12.332,2.019C12.138,2.153 11.973,2.209 11.966,2.281C11.935,2.591 12.15,2.699 12.416,2.682C12.513,2.676 12.603,2.564 12.696,2.501C12.573,2.339 12.451,2.177 12.332,2.019M-2.53,28.792C-2.441,28.991 -2.396,29.09 -2.351,29.189C-2.158,29.081 -1.961,28.978 -1.779,28.853C-1.767,28.844 -1.894,28.575 -1.919,28.581C-2.125,28.63 -2.323,28.715 -2.53,28.792M-26.45,13.125C-26.509,12.537 -26.473,12.335 -26.556,12.213C-26.672,12.04 -26.935,11.776 -27.032,11.814C-27.347,11.938 -27.173,12.199 -27.052,12.395C-26.961,12.542 -26.833,12.665 -26.45,13.125M4.886,7.837C4.796,7.92 4.657,7.989 4.645,8.076C4.633,8.166 4.734,8.28 4.805,8.368C4.838,8.41 4.922,8.443 4.974,8.434C5.146,8.402 5.352,8.395 5.475,8.294C5.62,8.174 5.358,7.877 5.063,7.838C5.003,7.83 4.941,7.837 4.886,7.837M12.822,-28.019C12.963,-28.187 13.154,-28.32 13.137,-28.417C13.116,-28.544 12.935,-28.721 12.812,-28.73C12.704,-28.737 12.489,-28.545 12.489,-28.439C12.488,-28.318 12.671,-28.197 12.822,-28.019M1.255,10.217C1.163,10.081 1.101,9.987 1.038,9.894C0.916,10.005 0.74,10.097 0.692,10.234C0.664,10.315 0.839,10.466 0.922,10.586C1.036,10.46 1.149,10.334 1.255,10.217M-38.999,7.532C-38.999,7.71 -39.009,7.889 -38.997,8.066C-38.981,8.294 -38.947,8.521 -38.9,8.929C-38.542,8.171 -38.542,8.171 -38.999,7.532M1.625,8.978C1.914,8.796 2.203,8.624 2.473,8.426C2.503,8.403 2.456,8.175 2.392,8.14C2.024,7.943 1.536,8.179 1.426,8.61C1.407,8.684 1.521,8.793 1.625,8.978M24.142,9.145C23.493,9.4 23.329,9.775 23.259,10.365C23.883,10.162 24.135,9.844 24.142,9.145M13.893,-4.549C13.847,-4.583 13.806,-4.637 13.754,-4.649C13.514,-4.708 13.131,-4.438 13.12,-4.177C13.117,-4.087 13.272,-3.905 13.291,-3.913C13.482,-3.994 13.677,-4.086 13.833,-4.219C13.899,-4.275 13.876,-4.436 13.893,-4.549M-6.159,-27.937C-6.414,-28.288 -6.558,-28.518 -6.743,-28.707C-6.77,-28.735 -7.117,-28.537 -7.107,-28.497C-7.054,-28.289 -6.967,-28.064 -6.82,-27.915C-6.747,-27.841 -6.521,-27.918 -6.159,-27.937M-11.273,-41.107C-10.254,-40.991 -9.704,-41.15 -9.158,-41.341C-9.739,-41.482 -10.315,-41.58 -11.273,-41.107M-18.04,-10.988C-18.246,-10.158 -18.246,-10.158 -17.724,-9.443C-17.724,-9.82 -17.691,-10.036 -17.733,-10.236C-17.776,-10.443 -17.891,-10.635 -18.04,-10.988M8.917,-12.834C9.659,-12.405 10.2,-12.491 10.727,-12.544C10.968,-12.568 11.213,-12.662 10.991,-13.095C10.4,-13.021 9.778,-12.942 8.917,-12.834M9.79,-14.145C9.991,-14.493 10.158,-14.707 10.233,-14.95C10.261,-15.041 10.077,-15.304 9.984,-15.307C9.622,-15.317 9.48,-15.038 9.48,-14.725C9.48,-14.586 9.622,-14.447 9.79,-14.145M-41.156,0.08C-40.877,0.111 -40.596,0.131 -40.32,0.178C-40.03,0.227 -39.745,0.302 -39.167,0.429C-39.924,-0.367 -40.514,-0.319 -41.156,0.08M-29.005,13.359C-29.133,13.149 -29.172,12.997 -29.256,12.965C-29.546,12.856 -30.013,13.217 -29.98,13.549C-29.969,13.652 -29.689,13.837 -29.616,13.804C-29.387,13.7 -29.198,13.508 -29.005,13.359M-22.528,-2.435C-21.431,-2.052 -21.133,-2.102 -21.095,-2.606C-21.525,-2.927 -21.946,-2.926 -22.528,-2.435M-39.869,-17.367C-39.006,-16.796 -39.006,-16.796 -38.418,-17.28C-38.907,-17.309 -39.292,-17.332 -39.869,-17.367M-25.872,-34.945C-26.265,-35.207 -26.474,-35.389 -26.718,-35.483C-26.788,-35.51 -27.037,-35.298 -27.064,-35.167C-27.134,-34.828 -26.969,-34.542 -26.605,-34.537C-26.425,-34.534 -26.242,-34.73 -25.872,-34.945M27.749,-13.45C27.432,-13.058 27.185,-12.804 27.01,-12.508C26.949,-12.404 27.019,-12.104 27.112,-12.056C27.237,-11.991 27.477,-12.034 27.609,-12.12C28.013,-12.383 28.169,-12.745 27.749,-13.45M-19.989,-14.758C-19.692,-14.987 -19.313,-15.134 -19.281,-15.336C-19.226,-15.688 -19.618,-15.789 -19.917,-15.836C-20.22,-15.883 -20.587,-15.555 -20.499,-15.296C-20.435,-15.11 -20.208,-14.979 -19.989,-14.758M7.882,-36.681C7.912,-36.575 7.941,-36.47 7.97,-36.364C8.2,-36.328 8.43,-36.266 8.661,-36.262C9.091,-36.254 9.415,-36.519 9.248,-36.689C9.103,-36.836 8.851,-36.965 8.655,-36.953C8.393,-36.937 8.14,-36.778 7.882,-36.681M12.511,-31.37C11.789,-30.272 11.781,-30.275 11.875,-29.494C12.678,-29.83 12.678,-29.83 12.511,-31.37M2.194,-30.359C2.127,-30.636 2.138,-30.864 2.03,-30.968C1.88,-31.112 1.609,-31.269 1.448,-31.221C1.303,-31.178 1.183,-30.877 1.152,-30.673C1.128,-30.52 1.225,-30.312 1.333,-30.184C1.436,-30.061 1.666,-29.909 1.765,-29.95C1.946,-30.025 2.071,-30.233 2.194,-30.359M15.621,2.994C15.314,2.66 15.193,2.418 15.008,2.35C14.669,2.225 14.4,2.43 14.306,2.759C14.267,2.899 14.401,3.23 14.43,3.227C14.758,3.193 15.081,3.11 15.621,2.994M-36.746,-0.241C-37.096,-0.582 -37.381,-0.523 -37.543,-0.193C-37.767,0.264 -37.821,0.757 -37.541,1.353C-37.338,1.003 -37.154,0.713 -36.999,0.408C-36.891,0.194 -36.823,-0.04 -36.746,-0.241M-18.415,-20.287C-18.567,-19.779 -18.707,-19.527 -18.7,-19.278C-18.691,-18.977 -18.51,-18.666 -18.149,-18.734C-17.792,-18.801 -17.723,-19.156 -17.81,-19.444C-17.881,-19.675 -18.099,-19.861 -18.415,-20.287M-28.759,-22.272C-28.314,-21.768 -27.823,-21.854 -27.375,-21.928C-26.983,-21.993 -27.012,-22.326 -27.29,-22.696C-27.758,-22.561 -28.258,-22.417 -28.759,-22.272M-1.288,-31.156C-0.704,-32.422 -0.704,-32.422 -0.844,-33.293C-1.379,-32.957 -1.379,-32.957 -1.288,-31.156M-31.32,26.615C-31.404,25.872 -31.677,25.398 -32.278,25.133C-32.353,25.1 -32.519,25.17 -32.585,25.244C-32.653,25.321 -32.705,25.483 -32.669,25.568C-32.444,26.106 -31.977,26.358 -31.32,26.615M14.355,-20.542C13.821,-20.093 13.333,-19.742 12.974,-19.118C14.349,-19.203 14.409,-19.263 14.355,-20.542M16.352,-19.853C16.44,-19.966 16.602,-20.086 16.632,-20.233C16.709,-20.612 16.594,-20.96 16.269,-21.194C16.189,-21.252 16.043,-21.233 15.93,-21.225C15.883,-21.221 15.826,-21.159 15.8,-21.11C15.578,-20.686 15.625,-20.286 15.956,-19.943C16.023,-19.873 16.179,-19.889 16.352,-19.853M30.937,1.531C30.454,1.528 29.942,2.354 30.205,2.788C30.306,2.955 30.611,3.05 30.834,3.073C30.97,3.087 31.238,2.916 31.253,2.803C31.298,2.449 31.269,2.082 31.228,1.725C31.219,1.65 31.038,1.595 30.937,1.531M3.62,25.694C4.453,25.576 5.08,25.569 5.606,25.094C5.284,24.489 4.869,24.225 4.121,24.322C3.988,24.685 3.838,25.098 3.62,25.694M25.554,2.845C26.346,2.956 27.107,2.982 27.833,3.354C28.094,3.489 28.419,3.275 28.41,2.806C27.485,2.114 26.526,2.284 25.554,2.845M3.142,-32.783C3.226,-33.492 3.469,-34.078 2.892,-34.444C2.421,-34.743 1.968,-34.544 1.627,-33.969C1.937,-33.485 2.256,-33.004 3.142,-32.783M22.549,4.43C23.259,4.013 23.486,3.507 23.265,2.941C23.079,2.463 22.531,2.579 22.11,2.562C21.894,2.552 21.61,2.413 21.509,2.717C21.841,3.264 22.156,3.782 22.549,4.43M3.862,31.013C2.998,30.302 2.866,30.247 2.413,30.445C1.867,30.685 1.275,30.905 1.32,31.771C2.238,31.745 2.976,31.502 3.862,31.013M7.999,8.861C9.063,9.489 10.09,10.198 11.456,10.267C11.395,9.965 11.412,9.689 11.319,9.643C10.282,9.143 9.212,8.742 7.999,8.861M22.158,21.14C23.995,19.981 24.612,19.328 25.032,18.247C23.273,18.389 22.893,19.938 22.158,21.14M-5.714,27.742C-6.319,28.146 -6.234,28.683 -6.296,29.156C-6.337,29.47 -6.273,29.839 -5.9,29.877C-5.631,29.904 -5.223,29.817 -5.087,29.629C-4.776,29.198 -4.594,28.674 -4.295,28.053C-4.893,27.922 -5.349,27.822 -5.714,27.742M20.361,9.135C18.615,9.555 18.615,9.555 17.024,9.273C17.01,9.382 16.943,9.541 16.991,9.594C17.606,10.261 18.434,10.504 19.288,10.612C19.905,10.689 20.279,10.163 20.361,9.135M-18.774,23.472C-17.54,22.693 -16.298,21.927 -15.084,21.119C-14.948,21.028 -14.971,20.7 -14.919,20.483C-15.143,20.439 -15.409,20.296 -15.585,20.369C-17.03,20.968 -18.07,22.046 -18.774,23.472M-9.037,-51.748C-8.868,-51.735 -8.78,-51.701 -8.749,-51.729C-7.794,-52.627 -7.793,-53.785 -7.912,-54.959C-7.923,-55.067 -8.182,-55.229 -8.319,-55.223C-8.466,-55.216 -8.685,-55.07 -8.736,-54.933C-9.125,-53.893 -9.174,-52.823 -9.037,-51.748M-41.294,9.131C-41.796,9.366 -42.359,9.579 -42.467,10.196C-42.578,10.831 -43.033,11.092 -43.494,11.389C-43.518,11.405 -43.434,11.587 -43.373,11.779C-42.233,11.107 -41.034,10.579 -39.819,9.779C-40.418,9.516 -40.853,9.325 -41.294,9.131M30.893,-5.792C31.192,-5.964 31.521,-6.044 31.566,-6.204C31.638,-6.46 31.623,-6.864 31.463,-7.034C31.133,-7.385 30.715,-7.702 30.271,-7.878C29.976,-7.996 29.55,-7.912 29.227,-7.797C28.801,-7.646 28.733,-6.956 29.115,-6.725C29.685,-6.381 30.294,-6.102 30.893,-5.792M-9.225,-43.794C-8.867,-45.139 -8.565,-46.465 -8.462,-47.826C-8.453,-47.946 -8.461,-48.101 -8.529,-48.187C-8.672,-48.37 -8.846,-48.626 -9.032,-48.648C-9.178,-48.665 -9.479,-48.395 -9.507,-48.22C-9.741,-46.742 -9.485,-45.275 -9.225,-43.794M24.809,-21.377C25.092,-22.458 24.952,-23.257 24.636,-23.972C24.343,-24.637 23.878,-25.241 23.408,-25.804C23.266,-25.975 22.821,-26.025 22.575,-25.944C22.25,-25.837 22.223,-25.475 22.333,-25.154C22.393,-24.979 22.46,-24.802 22.552,-24.643C23.077,-23.733 23.604,-22.825 24.149,-21.927C24.235,-21.785 24.414,-21.7 24.809,-21.377M12.15,-12.784C12.949,-12.476 13.47,-12.449 13.836,-12.839C14.063,-13.082 14.202,-13.5 14.207,-13.842C14.23,-15.252 14.28,-16.651 14.872,-17.971C13.852,-18.211 13.618,-18.23 13.162,-18.128C12.378,-17.954 12.141,-17.473 12.628,-16.794C13.371,-15.759 13.537,-14.667 13.282,-13.506C12.922,-13.277 12.628,-13.089 12.15,-12.784M18.185,-22.204C18.43,-21.627 18.084,-20.974 18.624,-20.372C19.443,-20.48 20.299,-20.58 21.151,-20.711C22.448,-20.91 22.629,-21.283 22.006,-22.465C21.864,-22.734 21.66,-22.969 21.454,-23.262C20.904,-22.999 20.421,-22.709 19.9,-22.538C19.392,-22.371 18.843,-22.326 18.185,-22.204M8.197,-4.08C9.844,-4.294 11.331,-4.732 12.388,-6.101C12.245,-6.262 12.169,-6.426 12.085,-6.43C11.035,-6.476 9.984,-6.519 8.933,-6.513C8.718,-6.511 8.406,-6.357 8.307,-6.179C7.945,-5.536 7.63,-4.853 8.197,-4.08M5.745,17.864C5.518,18.311 5.283,18.619 5.202,18.964C4.916,20.167 4.667,21.379 4.452,22.597C4.422,22.764 4.634,23.019 4.799,23.155C4.864,23.208 5.167,23.095 5.258,22.977C5.937,22.098 6.608,21.212 7.246,20.304C7.987,19.249 7.839,18.753 6.631,18.139C6.418,18.031 6.169,17.993 5.745,17.864M25.877,17.247C27.345,15.781 28.568,13.903 28.966,12.621C29.01,12.48 28.903,12.292 28.854,12.077C28.33,12.213 27.865,12.418 27.394,12.435C26.872,12.453 26.386,11.883 25.816,12.292C25.643,12.859 25.47,13.421 25.221,14.235C25.616,14.479 26.095,14.773 26.54,15.047C26.318,15.782 26.162,16.299 25.877,17.247M-5.926,31.134C-6.753,30.847 -7.476,31.046 -8.158,31.331C-9.422,31.86 -10.667,32.436 -11.907,33.019C-12.128,33.123 -12.536,33.076 -12.506,33.574C-9.68,33.888 -6.916,33.51 -4.051,33.092C-4.76,32.463 -4.76,32.463 -6.073,32.238C-6.026,31.885 -5.979,31.532 -5.926,31.134M25.3,-4.11C24.76,-3.903 24.343,-3.864 24.118,-3.636C22.945,-2.451 21.71,-1.309 20.944,0.211C20.811,0.475 20.74,0.771 20.643,1.047C21.878,1.574 22.331,1.671 23.013,1.618C23.627,1.571 24.145,1.299 24.277,0.704C24.609,-0.79 25.277,-2.214 25.3,-4.11M-3.095,21.644C-4.298,21.337 -5.493,20.895 -6.934,21.338C-6.695,22.881 -6.479,24.354 -6.234,25.822C-6.154,26.302 -5.812,26.605 -5.336,26.646C-4.923,26.682 -4.502,26.614 -4.008,26.587C-3.658,25.111 -3.323,23.724 -3.009,22.333C-2.971,22.167 -3.049,21.975 -3.095,21.644M12.918,0.902C13.455,0.108 13.612,-0.616 13.182,-1.315C12.759,-2.003 12.204,-2.659 11.324,-2.718C10.296,-2.787 9.26,-2.734 8.172,-2.734C8.111,-2.3 8.034,-1.942 8.018,-1.582C8.002,-1.213 8.035,-0.84 8.066,-0.471C8.107,0.008 8.355,0.395 8.827,0.461C10.159,0.648 11.457,1.191 12.918,0.902M0.861,-22.993C2.079,-23.063 3.201,-23.065 4.305,-23.207C5.462,-23.356 5.766,-23.835 5.593,-25.034C5.488,-25.766 5.363,-26.51 4.691,-27.139C3.208,-26.34 1.546,-27.296 0.06,-26.771C-0.013,-26.594 -0.068,-26.528 -0.056,-26.48C0.223,-25.4 0.51,-24.323 0.861,-22.993M-23.534,-32.635C-25.221,-32.998 -26.697,-33.315 -28.154,-33.629C-28.907,-32.802 -29.435,-31.966 -29.763,-31.027C-29.866,-30.731 -29.755,-30.36 -29.742,-30.018C-29.063,-29.984 -28.499,-30.028 -27.972,-29.909C-27.437,-29.788 -26.938,-29.505 -26.424,-29.292C-26.195,-29.198 -25.973,-29.084 -25.738,-29.007C-25.176,-28.825 -24.76,-28.985 -24.545,-29.563C-24.203,-30.482 -23.927,-31.425 -23.534,-32.635M2.605,21.825C3.44,20.672 3.778,19.436 3.706,18.104C3.689,17.784 3.457,17.302 3.201,17.198C2.116,16.76 0.99,16.349 -0.228,16.86C-0.574,17.951 -0.917,19.006 -1.243,20.067C-1.39,20.546 -1.182,20.942 -0.683,21.067C0.398,21.336 1.487,21.57 2.605,21.825M-39.257,19.039C-38.482,20.683 -36.563,23.051 -35.398,23.818C-35.141,23.987 -34.859,24.126 -34.576,24.25C-34.202,24.415 -33.845,24.247 -33.661,23.868C-33.427,23.385 -33.453,22.936 -33.701,22.451C-34.546,20.798 -35.358,19.129 -36.197,17.472C-36.237,17.392 -36.404,17.375 -36.5,17.333C-37.431,17.909 -38.349,18.477 -39.257,19.039M25.97,-23.471C26.224,-23.93 26.361,-24.205 26.523,-24.463C26.981,-25.191 26.853,-25.848 26.386,-26.533C25.864,-27.299 25.464,-28.15 24.923,-28.902C24.315,-29.747 23.649,-30.569 22.527,-30.95C22.16,-30.496 21.809,-30.073 21.469,-29.64C21.099,-29.168 20.338,-29.071 20.184,-28.167C20.674,-27.703 20.953,-26.919 21.697,-26.565C23.989,-27.156 24.637,-26.334 25.97,-23.471M27.789,-27.667C28.725,-28.454 29.111,-29.512 29.793,-30.492C29.347,-30.778 29.003,-31.033 28.63,-31.233C27.216,-31.991 26.107,-33.04 25.421,-34.508C25.315,-34.734 25.223,-34.972 25.076,-35.169C24.914,-35.387 24.697,-35.564 24.384,-35.88C24.062,-35.149 23.78,-34.599 23.576,-34.021C23.308,-33.26 23.393,-32.595 24.089,-32.018C25.005,-31.259 25.711,-30.31 26.312,-29.273C26.644,-28.698 26.929,-28.041 27.789,-27.667M-2.769,20.749C-2.504,20.092 -2.297,19.584 -2.094,19.074C-1.956,18.729 -1.798,18.388 -1.698,18.031C-1.633,17.797 -1.634,17.537 -1.643,17.289C-1.664,16.707 -1.923,16.271 -2.483,16.213C-3.652,16.091 -4.833,16.059 -6.01,16.041C-6.411,16.034 -6.75,16.323 -6.779,16.73C-6.859,17.886 -7.079,19.065 -6.512,20.265C-5.333,20.417 -4.17,20.567 -2.769,20.749M-24.416,-2.245C-24.566,-2.113 -24.767,-1.885 -25.015,-1.736C-25.209,-1.618 -25.466,-1.531 -25.688,-1.545C-26.629,-1.604 -27.276,-1.474 -28.438,-0.895C-28.479,0.383 -28.203,1.615 -27.635,2.932C-27.46,2.493 -27.336,2.182 -27.24,1.941C-26.492,1.772 -25.749,1.77 -25.192,1.447C-23.818,0.651 -22.504,-0.068 -20.82,0.452C-20.273,0.621 -19.717,0.079 -19.694,-0.52C-19.678,-0.919 -19.834,-1.325 -19.938,-1.854C-20.784,-1.744 -21.542,-1.742 -22.235,-1.53C-23.142,-1.253 -23.538,-2.19 -24.416,-2.245M-8.423,20.027C-7.758,18.632 -7.908,17.329 -8.145,16.092C-8.926,15.616 -9.612,15.909 -10.278,15.892C-10.897,15.877 -11.518,15.857 -12.135,15.891C-12.788,15.926 -13.495,15.743 -14.15,16.289C-13.949,17.628 -13.66,18.923 -12.912,20.027L-8.423,20.027ZM8.443,-7.315C9.691,-7.077 10.863,-7.039 12.033,-7.018C12.335,-7.013 12.644,-7.123 12.94,-7.214C13.391,-7.353 13.669,-7.664 13.765,-8.135C13.915,-8.865 14.091,-9.59 14.223,-10.324C14.324,-10.891 14.072,-11.331 13.517,-11.461C12.917,-11.601 12.286,-11.755 11.684,-11.706C10.705,-11.625 9.74,-11.383 8.81,-11.216C8.392,-9.959 8.297,-9 8.443,-7.315M6.653,-16.634C4.994,-16.586 3.584,-16.022 2.122,-15.754C1.89,-15.712 1.576,-15.344 1.549,-15.099C1.446,-14.176 1.424,-13.242 1.421,-12.311C1.42,-11.971 1.695,-11.706 2.032,-11.715C3.339,-11.748 4.645,-11.813 5.95,-11.896C6.343,-11.921 6.679,-12.143 6.794,-12.539C7.178,-13.862 7.499,-15.191 6.653,-16.634M-20.988,-33.764C-18.945,-33.559 -17.274,-33.56 -15.608,-33.651C-14.516,-33.71 -14.222,-34.005 -14.045,-35.137C-13.916,-35.961 -13.766,-36.721 -13.072,-37.28C-12.891,-37.425 -12.788,-37.684 -12.684,-37.906C-12.358,-38.602 -12.461,-38.982 -13.063,-39.54C-13.513,-39.957 -13.945,-40.392 -14.396,-40.83C-15.322,-40.933 -16.169,-40.627 -16.699,-39.9C-17.09,-39.364 -17.5,-38.689 -17.227,-37.749C-16.801,-37.994 -16.506,-38.205 -16.179,-38.34C-15.843,-38.479 -15.478,-38.604 -15.121,-38.616C-14.933,-38.623 -14.685,-38.411 -14.561,-38.232C-14.488,-38.125 -14.554,-37.858 -14.643,-37.717C-14.771,-37.514 -14.967,-37.347 -15.151,-37.185C-16.284,-36.189 -17.513,-35.364 -19.011,-35.01C-19.673,-34.854 -20.271,-34.57 -20.988,-33.764M25.99,-10.271C25.982,-10.272 25.975,-10.272 25.967,-10.273C25.987,-10.522 26.009,-10.771 26.026,-11.02C26.042,-11.27 26.066,-11.52 26.063,-11.77C26.051,-12.707 25.604,-13.214 24.691,-13.151C23.51,-13.069 22.33,-12.914 21.162,-12.72C20.294,-12.576 19.968,-12.008 20.323,-11.22C20.784,-10.198 21.383,-9.239 21.862,-8.224C22.315,-7.263 23.127,-6.886 24.079,-6.696C25.154,-6.482 25.632,-6.78 25.796,-7.847C25.919,-8.646 25.93,-9.463 25.99,-10.271M27.796,-14.141C28.249,-14.168 28.492,-14.178 28.734,-14.196C29.922,-14.286 30.079,-14.189 30.534,-13.089C30.651,-12.807 30.745,-12.509 30.914,-12.261C30.963,-12.189 31.358,-12.222 31.38,-12.283C31.522,-12.68 31.736,-13.116 31.683,-13.507C31.504,-14.855 31.31,-16.211 30.963,-17.523C30.469,-19.391 29.594,-21.111 28.534,-22.727C28.421,-22.9 28.208,-23.007 27.956,-23.215C27.599,-22.26 27.265,-21.468 27.014,-20.65C26.891,-20.246 26.854,-19.787 26.896,-19.366C27.028,-18.07 27.2,-16.777 27.394,-15.489C27.456,-15.075 27.632,-14.677 27.796,-14.141M-14.539,-27.71C-12.655,-27.458 -10.872,-27.36 -9.075,-27.554C-9.013,-27.561 -8.951,-27.572 -8.89,-27.585C-8.326,-27.702 -8.011,-28.067 -7.985,-28.622C-7.942,-29.554 -7.918,-30.49 -7.944,-31.423C-7.96,-32.047 -8.213,-32.303 -8.854,-32.417C-10.395,-32.691 -11.932,-32.791 -13.484,-32.159C-13.884,-30.763 -15.022,-29.574 -14.539,-27.71M-37.913,32.264C-37.658,31.868 -37.495,31.677 -37.4,31.456C-36.71,29.861 -36.212,28.187 -35.267,26.697C-34.842,26.027 -35.065,25.435 -35.81,24.98C-36.999,24.255 -37.96,23.313 -38.815,22.221C-39.309,21.589 -39.912,21.034 -40.517,20.501C-41.021,20.056 -41.191,20.129 -41.849,20.89C-40.618,22.427 -40.142,24.271 -39.747,26.178C-39.37,28.003 -38.815,29.792 -38.325,31.594C-38.281,31.757 -38.144,31.895 -37.913,32.264M-15.975,-22.097C-15.601,-21.992 -15.244,-21.786 -14.909,-21.816C-12.99,-21.985 -11.077,-22.211 -9.162,-22.419C-9.1,-22.426 -9.041,-22.449 -8.979,-22.461C-8.415,-22.572 -8.098,-22.926 -8.061,-23.487C-8.011,-24.234 -7.968,-24.985 -7.984,-25.732C-7.998,-26.404 -8.361,-26.771 -8.99,-26.87C-9.113,-26.89 -9.239,-26.891 -9.363,-26.894C-10.923,-26.929 -12.483,-26.979 -14.043,-26.992C-14.914,-26.999 -15.347,-26.687 -15.508,-25.853C-15.741,-24.641 -16.114,-23.438 -15.975,-22.097M-32.834,-21.065C-33.621,-19.528 -34.081,-17.923 -34.371,-16.266C-34.493,-15.568 -34.135,-15.026 -33.427,-14.909C-32.322,-14.725 -31.203,-14.63 -30.093,-14.474C-29.368,-14.372 -28.89,-14.674 -28.59,-15.308C-28.457,-15.589 -28.291,-15.868 -28.23,-16.166C-27.981,-17.385 -27.753,-18.609 -27.546,-19.835C-27.48,-20.228 -27.615,-20.629 -28.028,-20.743C-29.592,-21.178 -31.173,-21.467 -32.834,-21.065M-0.306,-21.463C-0.73,-21.537 -1.208,-21.693 -1.684,-21.69C-2.86,-21.682 -4.036,-21.622 -5.211,-21.547C-7.152,-21.422 -7.368,-21.199 -7.523,-19.264C-7.548,-18.955 -7.546,-18.643 -7.537,-18.334C-7.499,-17.09 -7.249,-16.798 -6.025,-16.689C-4.425,-16.547 -2.821,-16.435 -1.217,-16.324C-0.973,-16.307 -0.721,-16.341 -0.478,-16.387C-0.069,-16.464 0.231,-16.726 0.212,-17.14C0.144,-18.548 0.387,-19.997 -0.306,-21.463M-8.48,-21.103C-8.768,-21.156 -9.013,-21.258 -9.245,-21.234C-11.271,-21.018 -13.298,-20.801 -15.318,-20.534C-15.963,-20.449 -16.462,-20.098 -16.612,-19.372C-16.749,-18.704 -16.984,-18.055 -17.111,-17.385C-17.199,-16.918 -17.177,-16.43 -17.212,-15.822C-16.598,-15.883 -16.108,-15.887 -15.639,-15.987C-13.75,-16.39 -11.846,-16.634 -9.914,-16.667C-8.576,-16.691 -8.408,-16.855 -8.333,-18.149C-8.294,-18.831 -8.25,-19.515 -8.259,-20.197C-8.263,-20.49 -8.397,-20.782 -8.48,-21.103M-34.112,-21.829C-33.558,-23.267 -32.958,-24.508 -32.603,-25.815C-31.998,-28.047 -31.155,-30.174 -30.182,-32.261C-30.089,-32.461 -30.041,-32.682 -29.879,-33.182C-30.394,-32.907 -30.677,-32.811 -30.889,-32.633C-32.747,-31.074 -34.593,-29.492 -36.068,-27.554C-37.044,-26.271 -37.908,-24.901 -38.78,-23.543C-38.991,-23.214 -39.294,-22.797 -38.824,-22.28C-38.278,-22.377 -37.679,-22.512 -37.072,-22.583C-36.458,-22.655 -35.837,-22.684 -35.219,-22.694C-34.739,-22.702 -34.412,-22.425 -34.112,-21.829M24.103,-13.832C24.421,-14.728 24.138,-15.38 23.956,-16.03C23.755,-16.748 23.462,-17.44 23.27,-18.159C23.098,-18.804 23.214,-19.535 22.65,-20.127C22.423,-20.127 22.173,-20.16 21.936,-20.121C20.831,-19.938 19.723,-19.758 18.627,-19.529C18.018,-19.402 17.43,-19.182 16.832,-19.005C16.304,-18.849 15.991,-18.514 15.893,-17.96C15.796,-17.416 15.597,-16.882 15.561,-16.336C15.503,-15.469 15.529,-14.596 15.55,-13.727C15.556,-13.506 15.678,-13.289 15.842,-12.766C16.083,-13.388 16.297,-13.712 16.324,-14.051C16.388,-14.857 16.365,-15.67 16.375,-16.481C16.379,-16.791 16.296,-17.132 16.399,-17.402C16.497,-17.658 16.751,-17.921 17.003,-18.034C17.363,-18.195 17.769,-18.082 17.998,-17.741C18.165,-17.492 18.256,-17.177 18.322,-16.879C18.593,-15.649 19.198,-14.571 19.748,-13.472C21.266,-13.148 22.639,-13.544 24.103,-13.832M-28.056,-9.385C-27.39,-9.385 -26.865,-9.496 -26.41,-9.364C-25.16,-9 -23.958,-9.244 -22.734,-9.45C-22.186,-9.543 -21.618,-9.517 -21.06,-9.564C-19.947,-9.658 -19.625,-9.961 -19.51,-11.032C-19.429,-11.777 -19.347,-12.524 -19.317,-13.271C-19.303,-13.62 -19.413,-13.974 -19.473,-14.374C-19.995,-14.374 -20.423,-14.406 -20.844,-14.366C-21.339,-14.319 -21.826,-14.181 -22.321,-14.134C-23.338,-14.037 -23.391,-14.091 -23.909,-15.25C-23.934,-15.306 -24.084,-15.306 -24.213,-15.342C-24.332,-14.881 -24.45,-14.421 -24.566,-13.973C-25.269,-13.846 -25.901,-13.803 -26.48,-13.603C-26.861,-13.472 -27.335,-13.186 -27.474,-12.848C-27.894,-11.825 -28.249,-10.756 -28.056,-9.385M-42.151,-15.519C-43.01,-14.171 -43.181,-12.649 -43.634,-11.246C-43.862,-10.542 -44.125,-9.719 -43.905,-8.927C-40.394,-8.608 -39.277,-8.671 -37.796,-9.266C-37.562,-10.026 -37.303,-10.788 -37.096,-11.563C-36.887,-12.345 -36.71,-13.137 -36.556,-13.931C-36.403,-14.716 -36.701,-15.103 -37.497,-15.225C-37.682,-15.253 -37.876,-15.294 -38.056,-15.267C-39.424,-15.059 -40.778,-15.135 -42.151,-15.519M-36.67,-7.219C-37.455,-5.311 -37.318,-3.397 -37.367,-1.382C-36.711,-1.304 -36.163,-1.173 -35.619,-1.186C-34.247,-1.221 -32.874,-1.293 -31.505,-1.404C-30.493,-1.487 -30.218,-1.809 -30.17,-2.836C-30.106,-4.207 -30.064,-5.58 -30.025,-6.953C-30.017,-7.24 -30.061,-7.528 -30.091,-7.953C-32.309,-7.705 -34.399,-7.472 -36.67,-7.219M0.165,6.698C0.784,5.107 0.899,2.478 0.406,0.776C0.135,0.776 -0.182,0.71 -0.46,0.788C-1.558,1.092 -2.661,1.068 -3.783,0.988C-4.708,0.922 -5.643,0.945 -6.57,0.996C-7.161,1.028 -7.509,1.48 -7.325,2.03C-6.896,3.308 -6.973,4.596 -7.062,5.901C-7.082,6.185 -6.946,6.479 -6.885,6.753C-6.616,6.796 -6.422,6.883 -6.255,6.846C-5.021,6.572 -3.8,6.679 -2.558,6.828C-1.655,6.936 -0.708,7.066 0.165,6.698M-1.556,15.021C-0.727,13.146 -0.037,9.788 -0.063,7.943C-1.149,7.393 -2.38,7.661 -3.527,7.408C-4.004,7.303 -4.522,7.311 -5.013,7.356C-5.629,7.411 -6.248,7.526 -6.806,8.013C-6.982,8.866 -7.099,9.76 -6.924,10.704C-6.766,11.549 -6.645,12.397 -6.812,13.292C-7.01,14.351 -6.623,14.776 -5.507,14.865C-4.215,14.967 -2.914,14.972 -1.556,15.021M-34.668,14.46C-32.095,13.613 -29.893,12.375 -27.77,10.982C-27.225,10.624 -27.159,10.046 -27.347,9.481C-27.758,8.244 -28.194,7.015 -28.667,5.801C-28.876,5.265 -29.355,5.122 -29.904,5.374C-30.801,5.786 -31.711,6.182 -32.567,6.671C-33.369,7.13 -34.215,7.568 -34.757,8.368C-34.96,8.669 -35.237,8.996 -35.264,9.328C-35.395,10.991 -35.55,12.671 -34.668,14.46M5.991,-6.615C7.388,-7.921 6.701,-9.468 6.634,-10.937C4.628,-11.246 4.192,-11.241 2.879,-10.769C2.543,-10.648 2.161,-10.465 1.962,-10.193C1.557,-9.634 1.367,-8.963 1.405,-8.257C1.441,-7.574 1.501,-6.893 2.047,-6.48C2.859,-6.265 3.618,-6.784 4.387,-6.332C3.664,-6.132 2.997,-5.981 2.353,-5.762C1.756,-5.558 1.389,-5.085 1.509,-4.47C1.767,-3.145 1.694,-1.74 2.378,-0.452C3.583,-0.129 4.795,-0.08 5.965,-0.157C6.085,-0.358 6.194,-0.459 6.202,-0.567C6.328,-2.359 6.455,-4.153 6.536,-5.948C6.544,-6.12 6.253,-6.306 5.991,-6.615M-23.287,17.083C-22.987,17.068 -22.855,17.086 -22.742,17.049C-22.567,16.992 -22.383,16.925 -22.241,16.813C-20.932,15.777 -19.453,15.212 -17.783,15.085C-16.91,15.019 -16.712,14.711 -16.858,13.857C-16.921,13.49 -17.014,13.125 -17.125,12.769C-17.533,11.465 -17.945,10.161 -18.38,8.866C-18.454,8.644 -18.648,8.463 -18.749,8.317C-18.892,8.278 -18.955,8.242 -19.012,8.249C-21.082,8.512 -22.892,9.521 -24.786,10.284C-25.271,10.48 -25.394,10.925 -25.203,11.571C-24.744,13.124 -24.258,14.67 -23.76,16.211C-23.667,16.497 -23.471,16.75 -23.287,17.083M20.765,-6.188C20.204,-7.278 19.821,-8.129 19.343,-8.922C18.844,-9.749 19.073,-10.941 17.984,-11.557C17.431,-10.823 17.346,-9.937 17.103,-9.129C16.857,-8.311 16.027,-7.755 16.032,-6.832C16.465,-6.653 16.827,-6.504 17.188,-6.354C17.174,-6.269 17.16,-6.184 17.146,-6.099L15.408,-6.099C14.962,-3.817 14.641,-1.692 16.201,0.221C16.428,0.499 16.562,0.852 16.688,1.079C17.926,1.583 18.64,1.033 19.078,0.102C19.701,-1.225 20.676,-2.264 21.651,-3.311C22.032,-3.721 22.463,-4.084 22.86,-4.479C23.072,-4.691 23.344,-4.898 23.078,-5.355C21.653,-5.802 19.985,-5.085 18.558,-5.948C18.867,-6.024 19.162,-5.949 19.453,-5.965C19.805,-5.984 20.153,-6.079 20.765,-6.188M3.824,-36.474C4.153,-36.572 4.333,-36.606 4.497,-36.678C5.633,-37.181 6.774,-37.672 7.895,-38.206C8.544,-38.514 9.128,-38.454 9.605,-37.956C10.249,-37.285 10.99,-36.639 11.41,-35.837C12.155,-34.413 12.739,-32.897 13.295,-31.385C13.712,-30.251 14.185,-29.933 15.201,-30.465C16.794,-31.3 18.222,-32.451 20.001,-32.937C20.096,-32.963 20.196,-33.42 20.109,-33.566C19.96,-33.816 19.687,-34.015 19.427,-34.172C18.362,-34.814 17.24,-35.371 16.218,-36.074C14.495,-37.26 12.521,-37.848 10.599,-38.547C8.49,-39.313 6.285,-39.743 4.078,-40.14C3.956,-40.162 3.836,-40.199 3.713,-40.214C3.227,-40.271 2.877,-39.943 2.901,-39.434C2.912,-39.189 2.941,-38.935 3.019,-38.704C3.255,-38.003 3.519,-37.311 3.824,-36.474M-8.119,6.835C-8.083,6.571 -7.968,6.258 -8.013,5.971C-8.209,4.738 -8.329,3.516 -8.192,2.26C-8.143,1.805 -8.407,1.315 -8.553,0.744C-9.397,0.646 -10.19,0.534 -10.987,0.467C-11.606,0.415 -12.263,0.536 -12.845,0.373C-14.177,0 -15.441,0.448 -16.727,0.561C-17.588,0.637 -17.84,1.106 -17.695,2.026C-17.482,3.376 -17.248,4.723 -17.012,6.07C-16.982,6.245 -16.884,6.409 -16.794,6.638C-16.574,6.69 -16.339,6.799 -16.105,6.795C-14.11,6.76 -12.133,6.917 -10.157,7.2C-9.499,7.295 -8.787,7.303 -8.119,6.835M-22.248,-27.703C-22.358,-27.668 -22.468,-27.606 -22.578,-27.604C-22.699,-27.602 -22.819,-27.675 -22.942,-27.683C-23.975,-27.751 -24.156,-27.632 -24.439,-26.71C-24.75,-25.7 -25.064,-24.691 -25.368,-23.678C-25.528,-23.143 -25.707,-22.604 -25.399,-21.935C-25.059,-21.844 -24.634,-21.6 -24.247,-21.652C-22.686,-21.862 -21.148,-21.443 -19.596,-21.549C-19.348,-21.566 -19.096,-21.519 -18.849,-21.536C-17.864,-21.602 -17.528,-21.857 -17.29,-22.82C-17.021,-23.907 -16.792,-25.006 -16.57,-26.104C-16.523,-26.333 -16.584,-26.583 -16.59,-26.715C-16.988,-27.314 -17.721,-27.044 -18.277,-27.671C-17.71,-27.721 -17.368,-27.756 -17.025,-27.78C-16.398,-27.824 -15.99,-28.1 -15.823,-28.747C-15.59,-29.65 -15.283,-30.535 -15.049,-31.438C-14.977,-31.719 -15.038,-32.034 -15.038,-32.303C-16.323,-32.683 -20.206,-32.705 -22.085,-32.345C-22.318,-31.873 -22.613,-31.331 -22.858,-30.768C-23.646,-28.953 -23.639,-28.95 -22.248,-27.703M17.749,23.926C17.831,23.921 17.913,23.916 17.789,23.924L17.705,23.924C17.561,23.659 17.478,23.322 17.263,23.141C16.41,22.425 15.517,21.758 14.694,21.117L14.694,20.096L13.692,20.096C15.154,17.967 16.551,15.924 17.959,13.889C18.419,13.224 18.895,12.573 18.96,11.611C17.404,10.659 15.685,10.124 13.948,9.647C13.412,9.499 12.965,9.804 12.787,10.338C12.63,10.81 12.593,11.343 12.352,11.76C11.78,12.748 11.477,13.818 11.142,14.892C10.794,16.008 10.332,17.089 9.927,18.165C12.545,20.755 12.545,20.755 12.303,22.259C11.684,22.263 11.271,21.892 10.897,21.471C10.608,21.146 10.377,20.765 10.068,20.462C9.716,20.117 9.332,19.765 8.651,19.976C7.649,21.106 6.541,22.265 5.681,23.719C5.95,23.99 6.149,24.217 6.376,24.412C6.754,24.736 7.198,24.995 7.527,25.36C8.276,26.193 8.684,27.124 8.159,28.264C8.016,28.574 7.786,28.942 8.205,29.351C8.455,29.289 8.764,29.255 9.038,29.137C10.242,28.619 11.458,28.123 12.624,27.528C13.456,27.104 14.616,27.005 14.743,25.729C15.747,25.14 16.545,24.208 17.749,23.926M-1.935,-5.126C-1.988,-5.017 -2.04,-4.908 -2.095,-4.801C-2.287,-4.424 -2.284,-4.104 -1.824,-3.936C-1.523,-3.827 -1.189,-3.797 -1.042,-4.129C-0.869,-4.519 -1.056,-4.834 -1.448,-4.99C-1.612,-5.055 -1.801,-5.058 -1.979,-5.089C-1.35,-5.846 -0.432,-6.02 0.516,-6.19C0.592,-7.593 0.407,-8.864 0.104,-10.226C-0.301,-10.226 -0.661,-10.233 -1.021,-10.224C-1.281,-10.218 -1.528,-10.212 -1.589,-10.56C-1.341,-11.409 -0.287,-11.198 0.261,-12.03C0.276,-12.697 0.337,-13.563 0.301,-14.424C0.269,-15.189 -0.038,-15.51 -0.844,-15.675C-2.931,-16.102 -5.041,-15.969 -7.155,-16.022C-7.328,-15.631 -7.542,-15.358 -7.558,-15.074C-7.625,-13.83 -7.639,-12.583 -7.658,-11.337C-7.661,-11.156 -7.601,-10.968 -7.544,-10.792C-7.316,-10.088 -6.857,-9.738 -6.138,-9.856C-5.28,-9.998 -4.439,-10.244 -3.588,-10.433C-3.351,-10.485 -3.105,-10.521 -2.863,-10.515C-2.777,-10.513 -2.653,-10.379 -2.621,-10.281C-2.589,-10.181 -2.612,-9.98 -2.676,-9.947C-2.998,-9.78 -3.332,-9.618 -3.68,-9.517C-4.695,-9.221 -5.724,-8.973 -6.736,-8.668C-7.166,-8.538 -7.544,-8.256 -7.593,-7.769C-7.703,-6.673 -7.868,-5.567 -7.538,-4.477C-5.555,-4.25 -3.753,-4.768 -1.935,-5.126M-15.902,30.559C-15.301,29.766 -14.764,28.914 -14.086,28.195C-12.933,26.97 -11.536,26.217 -9.768,26.421C-9.398,26.463 -9.02,26.507 -8.651,26.481C-8.017,26.436 -7.57,25.993 -7.638,25.37C-7.794,23.956 -7.798,22.512 -8.294,21.096C-8.865,21.029 -9.413,20.948 -9.964,20.903C-12.253,20.714 -12.58,21.186 -11.606,23.275C-11.369,23.783 -11.068,24.265 -10.867,24.786C-10.796,24.967 -10.862,25.303 -10.996,25.441C-11.24,25.693 -11.603,25.644 -11.818,25.377C-12.206,24.894 -12.55,24.374 -12.892,23.857C-13.201,23.39 -13.453,22.883 -13.785,22.434C-14.143,21.948 -14.542,21.867 -15.105,22.13C-15.44,22.287 -15.754,22.497 -16.061,22.708C-16.882,23.275 -17.701,23.846 -18.507,24.433C-18.896,24.716 -19.256,25.04 -19.607,25.328C-19.449,26.551 -18.602,27.298 -18.168,28.249C-17.685,29.305 -16.898,30.076 -15.864,30.598L-16.998,30.598C-16.896,31.087 -16.686,31.513 -16.762,31.88C-16.848,32.302 -17.186,32.673 -17.421,33.076C-16.187,33.569 -16.189,33.589 -15.057,33.407C-15.718,32.472 -15.717,32.472 -15.82,31.291C-15.842,31.047 -15.874,30.803 -15.902,30.559M-11.968,-3.923C-11.165,-3.935 -10.36,-3.929 -9.558,-3.966C-9.087,-3.988 -8.695,-4.235 -8.585,-4.704C-8.317,-5.849 -8.169,-7.001 -8.742,-8.114C-11.003,-8.427 -13.211,-8.492 -15.422,-8.458C-18.315,-8.413 -18.057,-8.958 -18.307,-5.57C-18.369,-4.733 -18.431,-3.857 -17.981,-2.957C-15.915,-3.284 -13.902,-3.603 -11.889,-3.921C-12.652,-3.338 -13.509,-3.041 -14.47,-2.938C-15.333,-2.846 -16.185,-2.638 -17.037,-2.46C-17.276,-2.411 -17.516,-2.314 -17.725,-2.188C-18.101,-1.962 -18.276,-1.338 -18.105,-0.844C-17.959,-0.421 -17.6,-0.314 -17.202,-0.366C-16.461,-0.462 -15.725,-0.616 -14.982,-0.691C-14.496,-0.74 -13.965,-0.809 -13.516,-0.669C-12.169,-0.249 -10.787,-0.64 -9.438,-0.398C-9.063,-0.331 -8.719,-0.753 -8.791,-1.135C-8.925,-1.857 -9.1,-2.571 -9.274,-3.358C-9.702,-3.38 -10.067,-3.443 -10.422,-3.407C-11.027,-3.347 -11.523,-3.539 -11.968,-3.923M-29.005,26.063C-29.798,24.901 -30.467,24.206 -31.262,23.756C-31.163,24.599 -30.617,25.13 -30.167,25.701C-29.864,26.084 -29.415,26.099 -28.965,26.02C-29.016,26.315 -29.199,26.67 -29.097,26.896C-28.461,28.314 -27.52,29.398 -25.732,29.568C-25.129,28.809 -24.551,28.005 -23.893,27.274C-23.238,26.545 -22.504,25.887 -21.768,25.162C-22.195,23.572 -22.989,22.192 -23.788,20.851C-24.854,20.886 -25.543,21.371 -25.886,22.246C-26.375,23.496 -27.332,24.406 -28.109,25.443C-28.315,25.719 -28.701,25.859 -29.005,26.063M-3.065,-33.336C-3.02,-33.177 -2.975,-33.017 -3.022,-33.183C-2.93,-33.03 -3.011,-33.166 -3.093,-33.302C-3.015,-34.094 -2.664,-34.575 -1.782,-34.52C-1.526,-34.504 -1.277,-34.608 -1.361,-34.968C-1.847,-35.22 -2.492,-35.353 -2.782,-35.748C-3.284,-36.431 -3.773,-37.187 -3.79,-38.116C-3.797,-38.486 -3.84,-38.865 -3.934,-39.223C-4.232,-40.358 -4.693,-40.67 -5.821,-40.496C-6.414,-40.405 -6.997,-40.252 -7.82,-40.077C-7.497,-39.759 -7.294,-39.628 -7.19,-39.441C-7.05,-39.188 -6.821,-38.8 -6.916,-38.629C-7.578,-37.441 -7.1,-36.168 -7.245,-34.946C-7.366,-33.929 -6.938,-33.575 -5.94,-33.608C-5.38,-33.626 -4.819,-33.772 -4.266,-33.735C-3.858,-33.708 -3.463,-33.48 -3.065,-33.336M18.672,-26.893C18.798,-25.818 18.792,-25.81 19.941,-25.523C19.78,-26.273 19.413,-26.763 18.629,-26.853C18.533,-27.485 18.174,-27.856 17.539,-27.946C17.047,-28.015 16.547,-28.043 16.062,-28.143C15.522,-28.255 15.211,-28.66 15.316,-29.034C15.443,-29.487 15.829,-29.513 16.2,-29.56C16.693,-29.622 17.198,-29.636 17.678,-29.754C18.277,-29.901 18.874,-30.089 19.437,-30.339C20.156,-30.658 20.566,-31.246 20.712,-32.068C19.846,-32.416 19.173,-32.034 18.529,-31.699C17.427,-31.126 16.36,-30.487 15.276,-29.881C14.433,-29.409 14.252,-28.991 14.499,-28.054C14.746,-27.116 15.093,-26.807 16.065,-26.801C16.934,-26.795 17.803,-26.86 18.672,-26.893M1.44,-40.066C1.487,-39.966 1.533,-39.866 1.579,-39.765C1.522,-39.856 1.464,-39.946 1.406,-40.036C1.025,-40.543 0.591,-40.604 -0.049,-40.222C0.521,-39.873 0.987,-40.023 1.44,-40.066M-8.409,-57.1C-7.667,-56.951 -7.011,-56.819 -6.269,-56.669C-5.453,-54.327 -6.523,-52.388 -7.528,-50.338C-6.921,-49.37 -6.957,-48.288 -7.129,-47.144C-7.332,-45.795 -7.358,-44.419 -7.466,-42.981C-7.027,-42.843 -6.691,-42.712 -6.344,-42.636C-6.041,-42.571 -5.675,-42.66 -5.421,-42.524C-3.446,-41.465 -1.268,-41.822 0.816,-41.657C3.323,-41.458 5.783,-41.172 8.165,-40.325C9.163,-39.97 10.191,-39.682 11.224,-39.443C14.253,-38.743 16.963,-37.356 19.549,-35.681C20.171,-35.278 20.818,-34.913 21.533,-34.483C22.615,-35.864 23.173,-37.352 23.492,-38.948C23.552,-39.252 23.566,-39.569 23.659,-39.862C23.786,-40.259 24.459,-40.4 24.771,-40.102C24.947,-39.933 25.125,-39.737 25.22,-39.517C25.518,-38.831 25.905,-38.149 26.024,-37.426C26.281,-35.859 27.232,-34.68 28.122,-33.499C28.845,-32.539 29.931,-31.985 31.192,-31.897C31.601,-31.869 32.006,-31.783 32.584,-31.698C32.358,-31.226 32.247,-30.883 32.05,-30.601C31.478,-29.782 30.85,-29.002 30.285,-28.178C29.933,-27.664 29.652,-27.102 29.343,-26.559C28.97,-25.903 28.973,-25.261 29.387,-24.614C29.959,-23.72 30.504,-22.809 31.074,-21.915C31.41,-21.387 31.698,-20.877 31.779,-20.214C31.852,-19.616 32.172,-19.041 32.424,-18.475C32.885,-17.438 33.321,-16.408 33.051,-15.227C32.997,-14.991 33.014,-14.72 33.067,-14.481C33.452,-12.752 33.282,-11.001 33.303,-9.257C33.313,-8.507 33.28,-7.744 33.405,-7.011C33.757,-4.948 33.438,-2.893 33.416,-0.836C33.402,0.41 33.308,1.656 33.287,2.902C33.265,4.217 33.283,5.531 32.67,6.752C32.561,6.971 32.509,7.227 32.475,7.472C32.31,8.663 31.769,9.704 31.326,10.804C30.618,12.566 29.512,14.067 28.66,15.717C27.18,18.587 24.862,20.613 22.419,22.548C21.246,23.477 20.004,24.325 18.755,25.151C15.987,26.982 13.04,28.481 9.967,29.733C8.984,30.133 7.977,30.487 7.025,30.952C4.93,31.975 2.651,32.411 0.451,33.096C-2.369,33.974 -5.294,34.311 -8.22,34.521C-11.464,34.754 -14.724,34.741 -17.928,34.095C-20.135,33.65 -22.273,32.937 -24.273,31.866C-24.429,31.782 -24.625,31.771 -24.816,31.723C-24.662,32.423 -24.661,32.422 -24.229,32.935C-23.951,33.266 -23.675,33.599 -23.399,33.93C-23.641,34.386 -23.949,34.172 -24.149,33.996C-25.083,33.174 -26.051,32.377 -26.891,31.465C-27.962,30.303 -29.186,29.355 -30.515,28.535C-31.466,27.948 -32.461,27.435 -33.536,26.834C-33.8,27.18 -34.061,27.436 -34.22,27.745C-35.167,29.579 -36.045,31.453 -36.456,33.486C-36.664,34.517 -36.657,35.592 -36.742,36.648C-36.772,37.016 -36.741,37.395 -36.82,37.751C-36.919,38.201 -37.584,38.349 -37.876,37.993C-38.067,37.76 -38.281,37.479 -38.317,37.198C-38.632,34.753 -39.84,32.572 -40.358,30.189C-40.677,28.726 -41.041,27.273 -41.397,25.819C-41.65,24.79 -41.878,23.76 -42.542,22.876C-43.208,21.99 -43.986,21.336 -45.112,21.15C-45.541,21.079 -45.976,20.977 -46.375,20.809C-46.644,20.696 -46.893,20.473 -47.082,20.243C-47.375,19.887 -47.193,19.275 -46.753,19.173C-46.148,19.033 -45.525,18.96 -44.907,18.879C-44.66,18.846 -44.407,18.876 -44.157,18.861C-42.346,18.754 -42.141,18.425 -42.922,16.855C-43.31,16.073 -43.723,15.304 -44.119,14.527C-44.261,14.249 -44.433,13.977 -44.517,13.681C-45.065,11.76 -45.501,9.803 -46.149,7.916C-47.018,5.383 -46.973,2.749 -47.229,0.147C-47.278,-0.345 -47.254,-0.854 -47.187,-1.345C-46.968,-2.953 -46.736,-4.561 -46.465,-6.162C-46.268,-7.328 -46.024,-8.477 -45.631,-9.61C-45.144,-11.019 -44.954,-12.528 -44.505,-13.952C-44.094,-15.257 -43.543,-16.522 -42.994,-17.778C-42.319,-19.324 -41.545,-20.826 -40.883,-22.377C-40.391,-23.532 -39.749,-24.591 -39.139,-25.68C-37.798,-28.07 -36.01,-30.022 -33.9,-31.725C-33.318,-32.195 -32.801,-32.745 -32.261,-33.266C-30.45,-35.012 -28.397,-36.421 -26.2,-37.633C-25.434,-38.055 -24.683,-38.505 -23.914,-38.922C-20.975,-40.514 -17.855,-41.564 -14.548,-42.072C-13.321,-42.261 -12.105,-42.527 -10.838,-42.767C-10.767,-43.227 -10.678,-43.583 -10.666,-43.941C-10.654,-44.271 -10.791,-44.533 -11.183,-44.594C-11.827,-44.694 -11.996,-45.197 -11.905,-45.712C-11.756,-46.565 -11.514,-47.405 -11.266,-48.237C-11.125,-48.71 -10.894,-49.157 -10.686,-49.659C-10.919,-50.103 -11.098,-50.577 -11.387,-50.97C-12.322,-52.243 -11.913,-53.446 -11.253,-54.64C-11.104,-54.909 -10.885,-55.147 -10.666,-55.368C-9.871,-56.172 -9.552,-57.15 -9.563,-58.258C-9.581,-60.011 -9.487,-61.749 -9.154,-63.482C-8.991,-64.33 -9.071,-65.223 -9.021,-66.095C-9.015,-66.189 -8.884,-66.342 -8.799,-66.35C-8.634,-66.366 -8.419,-66.353 -8.297,-66.259C-7.863,-65.923 -7.807,-65.413 -7.768,-64.91C-7.675,-63.704 -7.996,-62.553 -8.243,-61.394C-8.543,-59.981 -8.475,-58.566 -8.409,-57.1" style="fill:rgb(255,255,223);fill-rule:nonzero;"/>
                    </g>
                    <g transform="matrix(-0.398173,-0.91731,-0.91731,0.398173,499.098,901.176)">
                        <path d="M-0.091,-0.139C-0.121,-0.104 -0.171,-0.071 -0.173,-0.036C-0.175,-0.005 -0.12,0.028 -0.091,0.06C-0.061,0.025 -0.011,-0.008 -0.009,-0.043C-0.007,-0.074 -0.062,-0.107 -0.091,-0.139" style="fill:rgb(255,255,223);fill-rule:nonzero;"/>
                    </g>
                    <g transform="matrix(0.421731,-0.906721,-0.906721,-0.421731,498.083,901.015)">
                        <path d="M-0.108,-0.068C-0.144,-0.029 -0.208,0.01 -0.206,0.048C-0.205,0.09 -0.144,0.129 -0.108,0.169C-0.073,0.131 -0.007,0.091 -0.008,0.054C-0.01,0.012 -0.072,-0.027 -0.108,-0.068" style="fill:rgb(255,255,223);fill-rule:nonzero;"/>
                    </g>
                </g>
            </g>
        </g>
    </g>
</svg>
