<?xml version="1.0" encoding="UTF-8" standalone="no"?>
<!DOCTYPE svg PUBLIC "-//W3C//DTD SVG 1.1//EN" "http://www.w3.org/Graphics/SVG/1.1/DTD/svg11.dtd">
<svg width="100%" height="100%" viewBox="0 0 835 857" version="1.1" xmlns="http://www.w3.org/2000/svg" xmlns:xlink="http://www.w3.org/1999/xlink" xml:space="preserve" xmlns:serif="http://www.serif.com/" style="fill-rule:evenodd;clip-rule:evenodd;stroke-linejoin:round;stroke-miterlimit:2;">
    <g transform="matrix(1,0,0,1,-349.838,-1306.96)">
        <g transform="matrix(1,0,0,1,-36445.7,-500.501)">
            <g transform="matrix(4.16667,0,0,4.16667,37114.5,2443.96)">
                <path d="M0,-100.072C-0.502,-100.771 -0.832,-101.428 -1.669,-100.893C-1.422,-100.229 -1.104,-99.691 0,-100.072M4.882,-62.133C4.153,-61.472 4.329,-60.926 4.868,-60.397C5.422,-60.321 5.701,-60.56 5.695,-61.26C5.471,-61.501 5.177,-61.816 4.882,-62.133M28.148,-110.416C27.014,-109.752 27.014,-109.752 27.36,-108.493C27.881,-108.743 28.395,-108.99 29.227,-109.389C28.755,-109.839 28.427,-110.15 28.148,-110.416M-24.191,-126.088C-23.828,-126.676 -23.675,-127.278 -24.288,-127.876C-25.09,-127.975 -25.578,-127.661 -25.674,-126.828C-25.367,-126.282 -24.952,-125.943 -24.191,-126.088M1.269,-120.064C0.732,-118.216 0.744,-117.902 1.355,-117.781C2.236,-118.778 2.236,-118.778 1.909,-120.03C1.696,-120.042 1.482,-120.053 1.269,-120.064M11.253,-74.883C10.187,-74.275 9.494,-73.531 8.933,-72.654C8.907,-72.614 9.017,-72.487 9.094,-72.345C9.658,-72.097 10.267,-71.828 10.979,-71.515C11.704,-72.671 11.536,-73.711 11.253,-74.883M12.549,-101.27C10.433,-100.316 9.903,-98.992 9.446,-97.699C9.252,-97.154 9.039,-96.36 9.819,-95.793C11.41,-97.032 11.302,-99.059 12.549,-101.27M-35.912,-142.487C-34.455,-139.456 -34.449,-139.468 -32.742,-138.534C-32.022,-138.141 -31.345,-137.62 -30.496,-138.216C-33.199,-142.452 -33.976,-143.417 -35.002,-143.474C-35.187,-143.273 -35.5,-142.933 -35.912,-142.487M34.956,-91.805C32.858,-92.587 31.418,-94.108 30.106,-95.689C28.791,-97.275 27.774,-99.107 26.549,-100.947C26.23,-100.275 25.907,-99.595 25.59,-98.927C26.285,-98.436 26.847,-98.04 27.422,-97.633C27.586,-97.059 27.744,-96.509 27.902,-95.959C28.262,-95.676 28.622,-95.393 28.958,-95.129C29.086,-94.651 29.204,-94.21 29.262,-93.995C30.655,-92.798 31.882,-91.744 33.081,-90.714C33.693,-90.62 34.281,-90.464 34.956,-91.805M-9.078,-91.707C-8.221,-89.249 -7.097,-87.598 -5.44,-86.412C-5.109,-86.431 -4.879,-86.444 -4.59,-86.461C-4.02,-87.251 -3.429,-88.07 -2.867,-88.849C-3.222,-89.568 -3.528,-90.187 -3.917,-90.973C-5.311,-91.26 -6.359,-92.517 -8.084,-92.614C-8.381,-92.343 -8.72,-92.033 -9.078,-91.707M11.693,-77.92C13.393,-79.201 13.467,-81.023 14.095,-82.725C12.92,-83.511 11.781,-84.272 10.569,-85.082C9.675,-84.672 8.849,-84.293 7.973,-83.891C8.526,-81.369 10.608,-80.021 11.693,-77.92M7.211,-118.906C8.37,-119.428 9.306,-119.851 10.342,-120.318C11.075,-119.356 11.75,-118.47 12.621,-117.327C13.2,-117.979 13.656,-118.493 14.077,-118.967C13.099,-120.971 11.808,-122.554 10.255,-123.942C9.677,-124.459 9.066,-124.616 8.317,-124.361C7.58,-123.662 6.826,-122.947 6.078,-122.237C6.563,-120.776 5.584,-119.981 4.599,-119.014C5.513,-118.809 6.313,-118.853 7.211,-118.906M-4.711,-71.111C-5.089,-72.567 -6.19,-73.031 -6.64,-73.955C-7.047,-75.03 -7.476,-76.097 -7.984,-77.125C-8.124,-77.408 -8.501,-77.575 -8.734,-77.766C-10.485,-77.883 -10.486,-77.885 -11.727,-77.341C-12.248,-75.295 -10.999,-73.537 -10.938,-71.621C-10.467,-71.299 -10.093,-71.043 -9.794,-70.838C-6.953,-71.564 -6.953,-71.564 -4.711,-71.111M-24.439,-122.938C-24.649,-121.336 -24.544,-119.714 -24.551,-118.106C-24.558,-116.468 -24.518,-114.829 -24.499,-113.191C-23.421,-111.764 -24.129,-109.995 -23.663,-108.41C-22.75,-107.697 -22.189,-106.6 -21.015,-106.185C-19.998,-106.678 -19.255,-107.346 -18.854,-108.575C-20.09,-111.188 -20.151,-114.304 -21.762,-116.792L-21.762,-118.698C-22.43,-120.279 -22.967,-121.553 -23.507,-122.832C-23.713,-122.855 -23.932,-122.88 -24.439,-122.938M32.088,-97.26C33.174,-95.574 34.915,-95.07 35.741,-93.615C36.608,-92.087 38.767,-91.935 39.45,-89.811C39.853,-90.256 40.079,-90.506 40.277,-90.725C39.784,-91.842 39.369,-92.783 39.024,-93.564C39.06,-95.054 40.389,-95.917 40.219,-97.282C36.743,-98.169 36.745,-98.171 34.07,-100.835C32.586,-102.314 31.092,-103.783 29.339,-105.518C29.267,-104.759 29.075,-104.286 29.213,-103.949C30.132,-101.703 31.121,-99.486 32.088,-97.26M-0.475,-104.427C0.569,-103.43 1.58,-102.464 2.725,-101.37C3.821,-101.187 5.007,-100.779 5.604,-99.21C4.307,-99.139 3.063,-98.933 1.975,-98.25C1.354,-97.859 0.875,-97.375 0.892,-96.568C1.773,-94.485 1.773,-94.485 2.913,-93.538C4.703,-93.963 6.353,-94.654 7.642,-96.03C6.981,-97.245 7.255,-98.54 7.279,-99.519C8.213,-100.844 8.997,-101.956 9.847,-103.163C10.525,-103.549 11.325,-104.003 11.986,-104.38C12.556,-105.857 11.018,-106.375 10.94,-107.306C10.829,-108.621 9.674,-109.271 9.423,-110.378C9.185,-111.426 8.796,-112.338 8.057,-113.137L6.943,-113.137C6.189,-112.477 5.402,-111.788 4.892,-111.341C2.98,-110.611 1.197,-110.891 -0.497,-109.922C-0.538,-108.139 -0.605,-106.293 -0.475,-104.427M23.284,-100.552C23.607,-101.07 24.134,-101.633 24.031,-101.796C23.349,-102.874 24.224,-103.807 24.186,-104.806C24.14,-105.979 24.172,-107.154 24.181,-108.328C24.185,-108.797 24.109,-109.305 24.258,-109.728C25.068,-112.037 25.716,-114.369 25.658,-116.845C26.754,-118.214 25.817,-120.134 26.921,-121.5C26.663,-123.181 27.64,-124.655 27.716,-126.284C27.764,-127.323 27.443,-128.424 28.041,-129.385C28.68,-130.411 28.111,-131.765 29.001,-132.703C30.001,-136.056 31.432,-139.228 33.092,-142.298C34.034,-144.04 34.752,-145.87 35.351,-147.749C35.39,-147.872 35.161,-148.079 35.056,-148.246C34.63,-148.052 34.204,-147.858 33.829,-147.687C33.313,-147.02 32.822,-146.384 32.438,-145.886C31.263,-145.544 30.035,-145.994 29.406,-144.793C29.465,-144.481 29.525,-144.158 29.616,-143.675C28.877,-143.064 28.079,-142.403 27.119,-141.609C27.241,-140.087 26.31,-138.707 25.594,-137.122L25.594,-134.502C25.167,-133.573 24.779,-132.731 24.407,-131.924C24.553,-131.564 24.683,-131.243 24.806,-130.939C24.389,-129.711 23.981,-128.513 23.574,-127.316C24.017,-126.543 23.603,-125.804 23.546,-125.037C23.475,-124.072 23.197,-123.222 22.82,-122.366C22.101,-120.733 21.928,-119.005 21.998,-117.916C20.789,-114.469 19.794,-111.631 18.799,-108.794C19.175,-107.978 18.585,-107.264 18.568,-106.501C18.557,-105.976 18.782,-105.445 18.883,-104.998C18.563,-104.731 18.334,-104.54 18.09,-104.336C19.83,-103.069 21.496,-101.855 23.284,-100.552M-7.051,-54.537C-7.911,-53.562 -7.56,-52.506 -7.487,-51.361C-7.062,-50.914 -6.58,-50.408 -6.075,-49.879C-2.229,-48.644 1.733,-47.893 5.63,-47.289C5.859,-47.021 6.021,-46.853 6.153,-46.664C6.203,-46.592 6.184,-46.471 6.203,-46.326C3.227,-45.525 0.6,-43.365 -2.91,-44.104C-5.116,-45.136 -7.195,-46.612 -9,-48.482C-9.092,-48.578 -9.371,-48.494 -9.641,-48.494L-9.641,-46.564C-8.424,-45.103 -8.442,-43.014 -7.703,-41.192C-7.503,-40.7 -7.509,-39.92 -7.772,-39.485C-8.44,-38.38 -8.302,-37.221 -8.302,-36.061C-8.301,-35.223 -8.415,-34.455 -8.839,-33.7C-9.041,-33.34 -8.941,-32.812 -8.973,-32.417C-7.988,-31.095 -6.656,-30.712 -5.258,-30.456C-4.314,-29.271 -2.803,-29.195 -1.56,-28.606C-0.31,-28.013 1.04,-27.629 2.626,-27.051L5.813,-27.051C7.945,-27.887 9.459,-29.576 11.299,-30.783C11.659,-31.02 12.061,-31.514 12.072,-31.899C12.1,-32.962 12.92,-33.535 13.308,-34.353C13.695,-35.168 13.749,-36.135 14.005,-37.02C14.293,-38.02 14.643,-39.002 14.988,-40.056C14.988,-40.932 15.069,-41.881 14.961,-42.809C14.882,-43.483 14.437,-44.114 14.355,-44.789C14.117,-46.743 13.184,-48.587 13.557,-50.443C13.169,-51.128 12.889,-51.639 12.589,-52.138C12.539,-52.221 12.404,-52.253 12.224,-52.358C10.535,-51.471 8.572,-51.441 6.822,-51.87C5.202,-52.267 3.63,-52.424 2.003,-52.476C1.666,-52.487 1.337,-52.66 0.999,-52.738C-1.247,-53.256 -3.541,-53.581 -5.685,-54.513C-6.078,-54.683 -6.608,-54.537 -7.051,-54.537M-48.382,-19.326C-47.316,-20.172 -46.226,-21.038 -45.136,-21.903C-44.198,-24.126 -42.104,-24.631 -39.995,-25.237C-39.216,-26.056 -38.404,-26.905 -37.597,-27.76C-36.878,-28.521 -36.144,-29.23 -35.648,-30.216C-35.134,-31.236 -34.449,-32.414 -33.513,-32.918C-32.234,-33.606 -32.469,-34.923 -31.725,-35.784C-30.436,-37.276 -29.958,-39.348 -28.363,-40.652C-28.21,-40.777 -28.146,-41.07 -28.128,-41.292C-28.017,-42.632 -27.088,-43.312 -26.014,-43.973C-25.473,-43.939 -24.829,-44.05 -24.326,-43.833C-23.481,-43.468 -22.605,-43.019 -21.959,-42.384C-20.645,-41.093 -19.036,-40.105 -18,-38.518C-17.763,-38.154 -17.267,-37.719 -16.897,-37.725C-15.354,-37.748 -14.769,-36.372 -13.697,-35.731C-13.516,-35.623 -13.254,-35.65 -12.935,-35.6C-12.644,-35.873 -12.31,-36.186 -12.057,-36.423C-11.621,-37.654 -11.826,-38.835 -11.513,-39.99C-11.242,-40.991 -11.825,-42.223 -12.138,-43.948C-12.37,-44.564 -13.191,-45.584 -13.364,-46.924C-13.448,-47.579 -13.857,-48.257 -14.285,-48.792C-15.371,-50.153 -16.126,-51.777 -17.581,-52.853C-18.952,-53.869 -20.651,-53.885 -22.18,-54.359C-23.695,-54.83 -25.339,-54.695 -26.985,-54.125C-28.654,-53.547 -30.185,-52.769 -31.412,-52.167C-32.75,-50.54 -33.857,-49.193 -35.291,-47.449C-36.881,-43.882 -38.678,-39.852 -40.585,-35.575C-42.051,-33.234 -44.12,-31.016 -46.32,-28.911C-46.572,-28.67 -46.8,-28.393 -46.995,-28.103C-49.733,-24.038 -53.508,-21.184 -57.085,-19.158C-58.948,-17.758 -60.234,-16.762 -61.551,-15.809C-63.053,-14.721 -64.605,-13.7 -66.088,-12.587C-66.64,-12.172 -67.146,-11.635 -67.521,-11.056C-68.465,-9.594 -69.322,-8.077 -69.829,-7.228C-71.464,-5.083 -72.651,-3.527 -73.89,-1.902C-73.165,-1.546 -72.605,-1.506 -72.07,-1.852C-70.608,-2.796 -69.1,-3.684 -67.718,-4.734C-66.139,-5.935 -64.617,-7.331 -62.712,-7.837C-60.645,-8.386 -59.163,-9.513 -58.071,-11.208C-57.548,-12.223 -57.025,-13.238 -56.301,-14.643C-56.246,-14.865 -56.534,-15.631 -56.008,-16.134C-54.493,-16.55 -53.049,-16.945 -51.67,-17.323C-50.909,-17.993 -50.208,-18.61 -49.576,-19.166C-49.115,-19.228 -48.765,-19.275 -48.382,-19.326M-4.056,-18.268C-5.811,-19.383 -7.101,-20.439 -8.572,-21.082C-10.685,-22.006 -12.928,-22.649 -15.01,-21.815C-15.728,-18.723 -16.27,-15.881 -17.087,-13.12C-17.4,-12.064 -17.666,-11.026 -17.402,-10.043C-17.079,-8.838 -16.99,-7.613 -16.833,-6.406C-16.652,-5.02 -16.791,-3.592 -16.791,-2.195C-16.047,-0.962 -15.358,0.251 -14.603,1.421C-11.773,5.813 -9.329,10.48 -5.574,14.22C-5.408,14.385 -5.218,14.545 -5.106,14.745C-3.174,18.212 -0.348,21.05 1.718,24.41C2.533,25.735 3.523,26.843 4.599,27.913C5.599,28.908 6.625,29.877 7.756,30.97C7.977,32.914 9.744,34.153 10.286,36.156C10.792,38.029 11.979,39.717 12.848,41.45C12.682,41.862 12.359,42.263 12.453,42.491C13.124,44.111 12.973,45.635 12.258,47.207C12.035,47.697 12.168,48.368 12.207,48.951C12.23,49.286 12.39,49.611 12.539,50.111C13.381,50.521 14.297,50.967 15.312,51.461C15.741,51.059 16.078,50.744 16.356,50.485C16.349,48.536 16.731,46.792 15.797,45.127C15.591,44.761 15.708,44.204 15.706,43.735C15.698,41.976 15.703,40.217 15.703,38.597C17.208,36.65 18.033,34.658 17.754,32.183C17.433,31.576 17.156,30.77 16.649,30.154C15.469,28.722 14.228,27.33 12.914,26.02C11.844,24.953 10.633,24.028 9.561,23.107C8.283,20.194 7.068,17.427 5.912,14.792C5.828,12.324 4.796,10.141 5.015,8.002C1.119,3.441 -3.483,0.102 -8.114,-3.128C-7.672,-4.236 -7.293,-5.199 -6.904,-6.159C-6.468,-7.235 -6.023,-8.308 -5.496,-9.593C-5.734,-11.624 -5.225,-13.746 -4.4,-15.839C-4.119,-16.552 -4.169,-17.396 -4.056,-18.268M15.747,-34.878C14.805,-32.997 14.019,-31.428 13.073,-29.538C11.428,-28.187 9.536,-26.634 7.499,-24.961C6.24,-24.982 4.844,-24.598 3.522,-25.31C2.727,-25.15 1.946,-24.994 1.351,-24.874C0.922,-24.982 0.682,-25.005 0.475,-25.1C-2.172,-26.313 -4.634,-27.926 -7.471,-28.73C-7.914,-28.855 -8.349,-29.08 -8.728,-29.345C-9.58,-29.942 -10.316,-30.892 -11.247,-31.14C-12.208,-31.396 -12.808,-32.13 -13.871,-32.446C-13.905,-31.471 -13.855,-30.536 -13.994,-29.631C-14.115,-28.842 -14.448,-28.085 -14.736,-27.157C-14.464,-26.744 -14.155,-26.277 -13.789,-25.723C-12.835,-25.661 -11.91,-25.601 -10.797,-25.529C-8.929,-24.446 -6.917,-23.28 -4.9,-22.111C-3.803,-22.583 -2.762,-23.031 -1.575,-23.541C-1.328,-22.199 -0.984,-21.079 -0.953,-19.95C-0.922,-18.825 -1.206,-17.692 -1.401,-16.175C-1.688,-15.58 -2.144,-14.634 -2.657,-13.57C-2.343,-11.263 -3.26,-9.113 -4.165,-6.954C-4.61,-5.892 -4.998,-4.806 -5.432,-3.68C-4.747,-3.039 -3.884,-2.536 -3.489,-1.786C-2.993,-0.844 -2.015,-0.684 -1.372,-0.021C-0.819,0.549 -0.037,0.894 0.633,1.356C1.396,1.883 2.173,2.397 2.897,2.975C3.713,3.627 4.477,4.345 5.325,4.967C6.037,5.745 6.417,6.681 6.629,7.749C6.875,8.984 7.24,10.227 7.772,11.364C8.326,12.549 8.521,13.792 8.863,15.018C9.265,16.46 9.974,17.821 10.598,19.195C11.177,20.472 11.819,21.721 12.473,23.063C14.527,25.031 16.43,27.278 19.031,29.339C19.208,29.821 19.526,30.687 19.911,31.734L19.911,36.697C19.354,37.639 18.704,38.738 17.944,40.023C18.374,40.836 18.212,41.942 18.26,43.033C18.317,44.312 18.445,45.588 18.528,46.866C18.603,48.021 18.286,49.231 19.21,50.558C18.396,51.15 17.54,51.772 16.281,52.688L13.479,52.688C12.277,52.242 10.892,51.629 9.975,49.833C9.975,47.685 10.224,45.184 9.901,42.76C9.614,40.612 8.806,38.477 7.819,36.537C6.938,34.806 6.201,32.967 5.023,31.397C4.392,30.557 3.632,29.815 2.994,29.1C2.325,28.893 1.776,28.724 1.073,28.507C0.993,28.124 1.015,27.608 0.787,27.252C-0.341,25.489 -1.493,23.738 -2.718,22.041C-4.215,19.967 -5.809,17.964 -7.329,15.905C-8.431,14.411 -9.395,12.808 -10.573,11.378C-12.068,9.563 -13.266,7.585 -14.406,5.347C-17.158,3.33 -18.151,0.024 -19.617,-3.131C-19.617,-5.728 -19.552,-8.437 -19.637,-11.141C-19.71,-13.509 -19.296,-15.729 -18.554,-17.988C-17.951,-19.825 -17.252,-21.736 -17.491,-23.77C-17.518,-24.001 -17.56,-24.271 -17.473,-24.47C-16.454,-26.825 -16.896,-29.312 -16.774,-31.748C-16.74,-32.429 -16.54,-33.101 -16.392,-33.907C-16.572,-34.29 -16.82,-34.82 -17.038,-35.286C-19.796,-37.491 -22.504,-39.657 -25.343,-41.926C-26.207,-40.702 -27.06,-39.654 -27.709,-38.419C-28.511,-36.893 -29.304,-35.354 -30.164,-33.867C-30.97,-32.472 -32.37,-31.415 -33.142,-30.008C-34.791,-27.003 -37.633,-25.302 -40.111,-23.209C-40.894,-22.548 -41.951,-22.21 -42.543,-21.901C-46.445,-18.736 -49.807,-15.442 -54.54,-14.265C-55.316,-12.767 -56,-11.278 -56.838,-9.881C-57.611,-8.592 -58.549,-7.403 -59.417,-6.167C-59.854,-6.253 -60.287,-6.338 -60.911,-6.46C-61.361,-5.931 -61.874,-5.329 -62.402,-4.71C-62.65,-4.797 -62.976,-4.911 -63.459,-5.079C-65.102,-3.986 -66.836,-2.842 -68.556,-1.678C-68.74,-1.553 -68.857,-1.32 -68.982,-1.123C-69.106,-0.928 -69.202,-0.716 -69.327,-0.481C-71.337,-0.096 -73.265,0.927 -75.692,0.389C-75.844,0.273 -76.206,-0.002 -76.561,-0.272C-76.34,-1.128 -76.142,-1.896 -75.97,-2.565C-74.372,-4.542 -72.832,-6.446 -71.325,-8.309C-71.217,-8.821 -71.122,-9.276 -71.025,-9.736C-70.075,-11.069 -68.534,-11.931 -67.985,-13.571C-65.888,-15.229 -63.563,-16.587 -61.663,-18.507C-60.349,-19.834 -58.822,-20.796 -57.034,-21.495C-55.671,-22.028 -54.456,-23.072 -53.339,-24.071C-51.675,-25.56 -50.11,-27.168 -48.589,-28.806C-47.483,-29.998 -46.628,-31.435 -45.458,-32.55C-44.36,-33.596 -43.737,-35.045 -42.43,-35.896C-42.175,-36.062 -42.005,-36.481 -41.948,-36.81C-41.646,-38.556 -40.302,-39.815 -39.862,-41.533C-39.462,-43.091 -38.474,-44.457 -37.876,-45.99C-37.213,-47.694 -36.03,-49.196 -35.067,-50.783C-34.706,-51.378 -34.325,-51.963 -33.835,-52.739C-32.097,-53.759 -30.191,-54.879 -28.235,-56.027C-26.863,-55.644 -25.579,-56.458 -24.166,-56.178C-22.914,-55.93 -21.602,-55.983 -20.179,-55.894C-19.045,-55.339 -17.786,-54.721 -16.268,-53.978C-15.613,-53.925 -14.687,-53.851 -13.642,-53.767C-13.009,-53.215 -12.308,-52.603 -11.49,-51.889C-11.351,-52.295 -11.123,-52.606 -11.179,-52.855C-11.43,-53.979 -11.76,-55.085 -12.111,-56.378C-12.821,-57.324 -13.656,-58.436 -14.459,-59.504C-14.269,-60.218 -14.128,-60.762 -13.979,-61.303C-13.661,-62.455 -14.501,-63.501 -14.228,-64.689C-13.997,-65.699 -13.936,-66.779 -13.996,-67.817C-14.069,-69.053 -14.321,-70.231 -14.02,-71.52C-13.663,-73.05 -14.616,-74.442 -15.111,-75.85C-15.496,-76.947 -16.121,-77.959 -16.596,-78.922C-16.775,-80.275 -16.944,-81.541 -17.109,-82.806C-17.136,-83.02 -17.183,-83.242 -17.152,-83.45C-17.049,-84.135 -16.881,-84.812 -16.804,-85.5C-16.752,-85.964 -16.785,-86.442 -16.827,-86.91C-16.886,-87.565 -17.263,-88.104 -17.091,-88.895C-16.944,-89.57 -17.532,-90.405 -17.85,-91.326C-19.543,-92.346 -21.208,-93.56 -22.194,-95.554C-22.591,-96.355 -23.48,-96.909 -24.129,-97.591C-24.764,-98.259 -25.378,-98.947 -26.114,-99.749C-25.364,-100.654 -24.707,-101.446 -23.96,-102.347C-24.595,-102.86 -25.204,-103.354 -25.799,-103.835C-25.973,-104.696 -25.047,-104.627 -24.749,-105.14C-24.641,-106.352 -25.636,-107.198 -25.979,-108.494C-25.621,-111.031 -26.398,-113.605 -27.08,-116.415C-27.005,-116.639 -26.863,-117.064 -26.65,-117.704C-27.106,-119.275 -28.114,-121.051 -26.802,-122.754C-26.69,-124.044 -27.905,-124.789 -27.746,-126.088C-27.627,-127.059 -27.851,-128.217 -28.315,-129.079C-28.926,-130.213 -28.636,-131.385 -28.883,-132.465C-29.451,-133.266 -29.989,-134.025 -30.69,-135.013C-33.21,-135.885 -36.031,-136.799 -37.834,-139.919C-37.984,-140.375 -38.273,-141.255 -38.59,-142.217L-38.59,-147.998C-37.724,-148.862 -36.692,-148.334 -35.718,-148.652C-35.4,-148.996 -35.014,-149.413 -34.586,-149.875L-32.954,-149.875C-32.024,-149.26 -32.51,-148.298 -32.167,-147.49C-31.871,-147.094 -31.522,-146.626 -31.208,-146.206C-31.369,-145.493 -31.517,-144.833 -31.638,-144.296C-31.205,-143.519 -30.851,-142.907 -29.976,-143.029C-29.125,-144.959 -29.125,-144.959 -27.48,-146.428C-26.937,-146.274 -26.302,-146.092 -25.658,-145.909C-24.871,-143.46 -23.752,-141.197 -25.134,-138.88C-24.923,-137.84 -24.745,-136.939 -24.555,-136.041C-24.367,-135.149 -24.168,-134.26 -23.946,-133.247C-24.564,-132.773 -25.202,-132.284 -25.841,-131.794C-25.945,-131.226 -26.13,-130.633 -25.403,-130.306C-24.551,-130.16 -24.275,-131.058 -23.523,-131.324C-23.315,-131.179 -22.93,-131.053 -22.814,-130.802C-22.428,-129.963 -22.025,-129.102 -21.843,-128.206C-21.659,-127.296 -21.729,-126.334 -21.674,-125.095C-20.278,-123.213 -20.404,-120.44 -18.972,-118.264C-18.864,-115.771 -17.528,-113.691 -17.073,-111.386C-15.456,-111.632 -14.237,-112.086 -13.076,-111.634C-11.564,-109.752 -10.164,-107.892 -8.637,-106.142C-7.084,-104.362 -4.767,-103.599 -2.951,-102.008C-2.592,-102.413 -2.291,-102.754 -1.974,-103.111C-2.205,-103.71 -2.412,-104.247 -2.667,-104.911L-2.667,-108.143C-2.997,-109.303 -4.348,-109.786 -3.886,-111.579C-3.65,-112.445 -2.282,-112.848 -1.395,-113.733C-1.318,-114.974 -2.482,-115.096 -3.143,-115.67C-3.419,-116.184 -3.695,-116.699 -3.976,-117.221C-3.761,-118.935 -2.379,-120.007 -1.633,-121.433C-1.119,-121.71 -0.605,-121.988 0.075,-122.355L3.189,-122.355C4.358,-123.459 5.547,-124.583 6.837,-125.802L10.319,-125.802C11.801,-125.504 12.623,-123.382 14.636,-123.003C14.856,-122.374 15.081,-121.731 15.284,-121.153C16.767,-119.97 18.2,-118.828 19.67,-117.656C20.374,-120.562 21.052,-123.363 21.759,-126.28C21.461,-127.143 21.197,-128.099 21.542,-129.189C22.45,-132.049 23.277,-134.936 24.094,-137.824C24.25,-138.378 24.215,-138.986 24.269,-139.577C24.69,-140.141 25.11,-140.703 25.517,-141.247C25.71,-142.772 25.361,-144.332 26.164,-145.749C26.277,-145.949 25.968,-146.387 25.81,-146.842C26.057,-147.107 26.362,-147.435 26.78,-147.883C27.495,-147.471 28.172,-147.082 28.965,-146.626C29.051,-147.366 29.131,-148.051 29.209,-148.724C29.638,-149.52 30.216,-150.033 31.681,-149.823C31.76,-149.702 32.059,-149.246 32.376,-148.761C33.769,-149.679 33.657,-151.571 35.188,-152.657C35.625,-152.681 36.313,-152.719 37.042,-152.76C37.403,-152.459 37.756,-152.165 38.109,-151.87C38.178,-151.484 38.359,-151.113 38.279,-150.809C37.782,-148.915 37.718,-146.87 36.628,-145.178C35.362,-143.213 34.781,-140.945 33.607,-138.915C32.47,-136.95 31.956,-134.598 31.337,-132.369C30.873,-130.702 30.024,-129.066 30.669,-127.364C30.178,-126.73 29.821,-126.269 29.427,-125.759C29.511,-125.26 29.813,-124.636 29.641,-124.199C29.395,-123.577 29.395,-123.11 29.822,-122.494C29.404,-121.596 28.964,-120.651 28.544,-119.75C28.364,-117.907 28.187,-116.098 27.995,-114.133C28.785,-113.385 29.162,-112.138 30.371,-111.441C31.107,-111.017 31.395,-109.87 32.097,-109.317C32.819,-108.749 33.698,-108.376 34.331,-107.655C34.796,-107.125 35.388,-106.694 35.79,-106.124C37.172,-104.165 39.113,-102.961 41.246,-101.814C42.245,-102.036 43.247,-102.259 44.519,-102.543C44.964,-102.049 45.509,-101.443 46.009,-100.887C46.123,-99.214 45.428,-98.032 44.375,-97.037C43.338,-96.059 42.445,-94.997 41.894,-93.415C42.276,-92.786 43.096,-92.027 43.133,-91.233C43.184,-90.101 44.574,-90.023 44.486,-88.781C44.023,-88.635 43.5,-88.47 42.953,-88.297C42.563,-87.749 42.161,-87.185 41.788,-86.661C41.162,-86.466 40.614,-86.296 39.998,-86.104C39.702,-85.161 39.4,-84.199 39.111,-83.276C40.37,-82.361 41.801,-83.264 43.004,-82.534C42.813,-82.244 42.631,-81.966 42.381,-81.585C40.333,-81.219 38.22,-81.531 36.217,-81.393C35.003,-82.022 34.205,-83.181 32.696,-83.223C32.473,-82.918 32.21,-82.56 31.845,-82.062C32.831,-80.966 33.757,-79.935 34.793,-78.782C34.598,-77.955 34.391,-77.077 34.138,-76.006C34.904,-75.568 35.72,-75.101 36.948,-74.398C34.777,-74.366 33.069,-74.153 31.235,-74.825C30.896,-74.079 30.572,-73.366 30.164,-72.468C29.739,-72.233 29.129,-71.898 28.503,-71.553L23.367,-71.553C22.566,-72.133 21.639,-72.805 20.745,-73.453C20.721,-73.757 20.62,-74.024 20.699,-74.217C21.001,-74.954 21.361,-75.668 21.751,-76.501C23.655,-75.769 24.984,-73.779 27.435,-74.574C27.494,-74.9 27.771,-75.429 27.614,-75.738C26.942,-77.057 26.963,-78.447 27.033,-79.86C26.58,-80.821 26.136,-81.765 25.702,-82.687C25.8,-82.926 25.836,-83.264 25.975,-83.314C27.054,-83.698 27.601,-84.592 28.137,-85.538C29.072,-85.621 29.985,-85.702 30.833,-85.778C30.965,-86.127 31.165,-86.388 31.101,-86.53C30.526,-87.799 29.898,-89.039 29.553,-90.408C29.428,-90.902 29.04,-91.329 28.627,-92.033C28.07,-91.096 27.566,-90.448 27.276,-89.715C26.775,-88.451 25.922,-87.395 24.838,-86.783C22.935,-85.71 21.646,-84.056 20.204,-82.709C19.992,-82.026 19.823,-81.479 19.612,-80.801C19.14,-80.899 18.712,-80.988 18.012,-81.133C17.682,-80.832 17.183,-80.379 16.979,-80.193C16.022,-78.037 15.22,-76.232 14.303,-74.167C14.282,-73.04 15.333,-71.83 15.06,-70.355C14.99,-69.973 15.293,-69.439 15.569,-69.09C17.023,-67.252 17.21,-64.732 18.873,-63.015C19.131,-61.339 20.435,-60.194 21.06,-58.706C21.792,-56.961 22.827,-55.42 24.105,-54.173L24.105,-52.947C22.727,-52.333 21.361,-51.724 19.676,-50.973L15.587,-50.973C14.828,-50.294 14.819,-49.465 15.104,-48.907C15.723,-47.696 15.668,-46.42 15.766,-45.197C16.225,-44.583 16.644,-44.02 17.104,-43.405C17.146,-40.504 15.26,-37.889 15.747,-34.878" style="fill:rgb(255,255,223);fill-rule:nonzero;"/>
            </g>
        </g>
        <g transform="matrix(1,0,0,1,-36445.7,-500.501)">
            <g transform="matrix(4.16667,0,0,4.16667,37433.9,2471.65)">
                <path d="M0,-115.178C0.093,-115.175 0.187,-115.173 0.28,-115.17C0.28,-115.429 0.282,-115.687 0.27,-115.945C0.27,-115.955 0.126,-115.958 0.049,-115.965C0.033,-115.702 0.016,-115.44 0,-115.178M14.323,-48.196C14.142,-48.271 13.967,-48.366 13.781,-48.406C13.72,-48.419 13.628,-48.289 13.551,-48.224C13.665,-48.113 13.785,-47.908 13.891,-47.915C14.04,-47.926 14.178,-48.094 14.323,-48.196M-15.107,-65.637C-14.672,-64.852 -14.542,-64.254 -13.813,-64.463C-13.751,-64.699 -13.623,-64.923 -13.658,-65.117C-13.713,-65.427 -13.876,-65.718 -14.02,-66.082C-14.364,-65.941 -14.64,-65.828 -15.107,-65.637M6.116,-65.741C5.525,-66.065 4.946,-66.383 4.419,-66.672C3.914,-66.383 3.488,-66.172 3.658,-65.584C5.233,-64.428 5.237,-64.423 6.116,-65.741M37.127,-52.494C37.131,-53.024 36.934,-53.362 36.255,-53.317C35.131,-52.805 35.003,-51.582 34.43,-50.53C34.735,-50.329 34.979,-50.167 35.258,-49.983C35.917,-50.866 36.522,-51.679 37.127,-52.494M34.845,-31.13C34.92,-31.393 35.062,-31.715 35.099,-32.048C35.378,-34.535 34.568,-36.885 34.039,-39.246C33.694,-40.784 33.51,-42.214 34.056,-43.707C34.1,-43.826 33.88,-44.042 33.768,-44.239C33.434,-44.208 33.089,-44.175 32.774,-44.145C32.238,-43.094 31.72,-42.077 31.263,-41.18C31.376,-40.325 31.531,-39.534 31.576,-38.736C31.715,-36.273 32.551,-33.984 33.333,-31.69C33.508,-31.175 34.067,-30.77 34.845,-31.13M-11.573,-124.805C-12.341,-124.319 -12.95,-123.943 -12.755,-122.971C-11.936,-121.778 -10.027,-121.656 -9.478,-119.945C-9.632,-119.494 -9.815,-118.956 -10.027,-118.334C-9.426,-117.14 -8.802,-115.9 -8.187,-114.678C-6.866,-114.017 -5.64,-113.339 -4.362,-112.781C-2.844,-112.119 -2.44,-110.493 -1.501,-109.526C-0.798,-109.31 -0.253,-109.142 0.297,-108.973C0.772,-107.895 1.227,-106.863 1.659,-105.883C2.626,-105.828 2.984,-106.41 3.199,-106.908C3.735,-109.236 2.741,-111.188 2.374,-113.227C2.323,-113.51 1.923,-113.731 1.701,-113.962C1.216,-113.81 0.787,-113.675 0.376,-113.546C-1.463,-114.391 -2.681,-116.036 -4.514,-116.831C-5.688,-117.341 -5.894,-118.943 -7.071,-119.623C-7.351,-119.785 -7.325,-120.477 -7.434,-120.904C-8.249,-121.917 -9.051,-122.913 -9.917,-123.988C-10.335,-124.194 -10.855,-124.451 -11.573,-124.805M9.774,16.846C9.715,15.888 9.658,14.966 9.6,14.028C8.951,13.311 8.325,12.62 7.764,12C7.123,9.372 7.03,8.234 7.349,6.952C6.777,6.15 6.186,5.321 5.554,4.435C5.052,4.556 4.63,4.659 4.114,4.783L4.114,7.571C3.106,10.04 2.278,12.068 1.5,13.975C3.025,18.446 6.458,21.352 9.118,24.05C9.876,25.096 9.44,26.056 10.691,26.365C11.517,26.098 12.595,25.75 13.679,25.399C13.547,25.025 13.432,24.698 13.317,24.371C13.541,23.61 13.764,22.848 13.952,22.211C13.301,21.171 12.821,20.232 12.179,19.42C11.458,18.507 10.592,17.709 9.774,16.846M7.463,-103.344C6.419,-101.791 5.301,-102.2 4.235,-102.672C3.346,-101.798 2.341,-101.157 1.913,-99.985C2.38,-99.347 2.79,-98.788 3.265,-98.139C3.303,-97.412 3.345,-96.596 3.387,-95.78C3.836,-94.833 4.285,-93.886 4.717,-92.974C4.807,-91.539 4.602,-90.132 5.344,-88.81C5.588,-88.376 5.527,-87.582 5.294,-87.105C4.583,-85.651 4.296,-84.054 3.34,-82.652C2.387,-81.254 1.706,-79.631 0.856,-78.131C0.377,-77.286 0.291,-76.376 1.06,-75.352C2.008,-75.352 3.067,-75.455 4.095,-75.32C4.929,-75.21 5.571,-76.205 6.421,-75.61C8.065,-76.129 9.715,-76.597 11.407,-76.967C12.513,-77.209 13.506,-77.965 14.51,-78.47C15.228,-79.141 15.914,-79.782 16.589,-80.412C17.307,-82.18 18.002,-83.892 18.676,-85.554C18.226,-86.208 17.834,-86.778 17.393,-87.419C17.529,-88.203 17.665,-88.994 17.838,-89.993C17.764,-90.196 17.607,-90.627 17.393,-91.213C18.314,-92.953 18.285,-94.897 18.085,-96.628C17.523,-97.477 16.288,-97.317 16.453,-98.459C17.219,-98.626 17.986,-98.792 18.475,-98.898C19.588,-100.606 17.543,-101.976 18.554,-103.361C18.04,-104.609 17.556,-105.785 17.137,-106.804C15.844,-107.834 14.605,-108.675 13.184,-108.867C12.654,-109.714 12.226,-110.4 12.048,-110.684C10.143,-111.704 8.641,-112.508 7.069,-113.35C6.731,-112.924 6.452,-112.574 6.203,-112.261C6.797,-110.517 7.353,-108.884 7.876,-107.35C8.378,-107.056 8.898,-106.943 8.767,-106.058C8.499,-105.834 8.071,-105.478 7.664,-105.138C7.595,-104.521 7.53,-103.94 7.463,-103.344M-30.109,-132.215C-29.774,-131.511 -30.264,-131.143 -30.885,-130.591C-31.849,-130.528 -33.007,-130.451 -34.407,-130.359C-35.99,-129.136 -37.74,-127.784 -39.625,-126.328L-41.438,-126.328C-42.146,-127.268 -41.779,-128.229 -41.821,-129.083C-41.183,-130.112 -40.571,-131.099 -39.946,-132.107C-40.555,-132.565 -41.089,-132.966 -41.613,-133.36C-41.332,-135.219 -40.029,-136.225 -38.845,-137.274C-38.255,-137.46 -37.711,-137.633 -37.076,-137.834C-37.269,-138.761 -37.527,-139.631 -37.615,-140.518C-37.707,-141.447 -37.635,-142.394 -37.635,-143.216C-37.055,-144.126 -36.526,-144.888 -35.579,-145.17C-35.35,-145.052 -35.051,-145.001 -34.972,-144.842C-33.987,-142.849 -32.935,-140.932 -31.448,-139.222C-30.289,-137.89 -28.641,-137.146 -27.657,-135.572C-26.955,-135.48 -26.266,-135.389 -25.555,-135.295C-24.133,-133.487 -21.976,-132.802 -19.978,-131.947C-17.236,-130.773 -13.447,-128.694 -11.203,-127.017C-10.103,-126.194 -8.816,-125.619 -7.708,-124.986C-7.33,-125.126 -7.11,-125.208 -6.877,-125.294C-5.419,-124.573 -3.953,-123.847 -2.451,-123.105C-1.626,-122.327 -0.774,-121.525 0.049,-120.75C0.458,-120.915 0.778,-121.045 1.144,-121.193C3.603,-120.648 4.889,-118.052 7.645,-117.549C7.92,-117.207 8.336,-116.776 8.652,-116.281C9.794,-114.495 11.31,-113.148 13.002,-111.855C15.77,-109.738 17.297,-108.55 20.855,-106.818C21.148,-106.675 21.337,-106.32 21.632,-106.002C21.017,-104.128 20.668,-102.297 21.504,-100.278C21.962,-99.172 21.615,-97.732 21.63,-96.442C20.599,-94.824 21.086,-93.016 20.998,-91.283C20.945,-90.233 21.099,-89.155 20.334,-88.193C20.99,-86.678 21.361,-85.112 20.528,-83.463C21.047,-83.253 21.562,-83.045 22.069,-82.84C22.525,-82.2 22.42,-81.51 22.287,-80.816C21.653,-80.322 21.019,-79.829 20.548,-79.461C20.232,-78.652 20.209,-78.101 20.705,-77.632C21.571,-77.421 21.889,-78.265 22.49,-78.539C24.821,-79.602 27.002,-80.945 29.451,-81.808C32.425,-82.857 35.106,-84.558 37.563,-86.469C39.04,-86.923 40.372,-86.54 41.611,-85.96C42.262,-86.449 42.819,-86.867 43.365,-87.277C44.482,-87.182 44.945,-86.319 45.515,-85.638C45.579,-85.379 45.662,-85.158 45.685,-84.93C45.842,-83.437 45.421,-81.889 46.297,-80.454C46.565,-80.014 46.4,-79.304 46.416,-78.717C46.445,-77.668 46.261,-76.582 46.975,-75.659C47.124,-73.687 47.497,-71.698 46.506,-69.761C46.836,-68.819 47.356,-67.866 47.014,-66.655C46.292,-65.48 45.363,-64.323 44.912,-62.802C44.535,-61.532 43.762,-60.315 42.456,-59.578C41.864,-59.243 41.426,-58.637 40.811,-58.053C40.996,-55.221 40.082,-52.637 38.747,-50.117C37.651,-48.05 36.917,-45.819 37.238,-43.427C36.839,-42.905 36.485,-42.44 36.043,-41.86C36.385,-41.349 36.754,-40.799 37.162,-40.191C37.402,-38.767 36.899,-37.159 37.885,-35.806C37.848,-34.301 38.034,-32.837 37.546,-31.294C37.062,-29.766 36.569,-28.215 36.284,-26.596C35.508,-26.167 34.797,-25.775 34.081,-25.379C33.546,-25.657 33.031,-25.924 32.399,-26.252C32.478,-26.688 32.557,-27.12 32.654,-27.652C32.298,-27.918 31.863,-28.244 31.236,-28.714C30.708,-30.882 29.174,-32.903 29.117,-35.487C29.285,-35.614 29.558,-35.821 29.971,-36.136C29.338,-37.223 28.2,-37.908 27.389,-39.104C28.01,-40.845 28.412,-42.726 29.756,-44.314C30.564,-45.27 30.963,-46.572 31.492,-47.614L31.492,-52.355C30.703,-52.656 29.968,-52.936 29.284,-53.197C29.091,-54.182 29.198,-55.09 28.71,-56.03C29.449,-57.357 29.325,-59.175 30.752,-60.104C30.848,-60.848 31.03,-61.449 30.317,-61.777C30.094,-61.737 29.812,-61.77 29.661,-61.645C27.594,-59.935 25.545,-58.202 23.493,-56.477C23.269,-56.564 23.049,-56.65 22.781,-56.754C22.049,-56.257 21.292,-55.743 20.444,-55.167C20.484,-54.896 20.449,-54.53 20.596,-54.267C20.963,-53.609 20.956,-53.003 20.807,-52.259C20.577,-51.105 20.211,-49.906 20.715,-48.714C20.284,-47.785 21.474,-46.65 20.346,-45.809C20.325,-44.632 20.294,-43.456 20.286,-42.28C20.274,-40.514 20.279,-38.748 20.276,-36.982C19.25,-35.085 20.024,-32.79 18.933,-30.906C19.008,-28.132 17.607,-25.764 16.752,-22.706C16.752,-21.932 16.753,-20.638 16.752,-19.344C16.752,-18.873 16.878,-18.354 16.724,-17.939C15.5,-14.63 16.258,-11.199 16.042,-7.831C15.976,-6.789 16.232,-5.723 15.741,-4.704C15.622,-4.457 15.795,-4.072 15.829,-3.749C15.9,-3.056 16.091,-2.348 16.009,-1.673C15.886,-0.648 15.507,0.345 15.36,1.37C15.23,2.275 15.27,3.204 15.228,4.275C13.486,4.675 11.827,4.32 10.106,4.603C9.313,5.851 9.864,7.288 9.69,8.459C10.247,10.827 12.518,12.165 12.578,14.643C13.165,15.309 13.785,16.011 14.201,16.481C14.837,18.042 15.362,19.329 15.949,20.769C15.892,20.939 15.783,21.265 15.612,21.776C15.942,22.567 16.53,23.485 16.679,24.47C16.837,25.52 17.67,26.034 18.133,26.944C17.733,28.602 16.174,28.979 14.93,29.096C13.629,29.218 12.458,29.703 11.095,29.992C9.35,28.789 8.061,27.091 6.486,25.653C6.241,24.911 5.989,24.152 5.702,23.283C5.027,23.067 4.375,22.859 3.439,22.56C2.704,21.75 1.78,20.732 0.797,19.65C1.051,19.244 1.348,18.77 1.668,18.259C0.733,17.608 -0.203,16.957 -1.167,16.287C-1.301,15.487 -1.445,14.626 -1.604,13.679C-0.751,11.956 0.13,10.177 1.11,8.2C0.296,6.757 1.857,5.049 0.834,3.245C0.257,3.158 -0.419,3.057 -0.943,2.978C-1.837,2.076 -2.64,1.266 -3.661,0.236C-3.721,-1.2 -3.862,-2.862 -3.164,-4.607C-2.622,-5.962 -3.327,-7.662 -2.369,-9.028C-2.412,-10.472 -1.636,-11.705 -1.324,-13.058C-1.221,-13.507 -0.948,-13.939 -0.935,-14.384C-0.896,-15.672 -0.789,-16.897 -0.315,-18.15C0.081,-19.198 -0.38,-20.507 0.433,-21.518C0.252,-24.22 1.602,-26.765 1.227,-29.499C1.086,-30.53 1.268,-31.571 0.741,-32.588C0.442,-33.162 0.513,-33.957 0.511,-34.652C0.497,-40.892 0.49,-47.132 0.521,-53.372C0.525,-54.275 0.742,-55.177 0.882,-56.243C-0.761,-57.723 -2.297,-59.478 -3.491,-61.605C-3.847,-62.944 -4.231,-64.383 -4.715,-66.198C-5.364,-64.896 -5.064,-63.874 -5.137,-62.907C-5.225,-61.743 -5.23,-60.571 -5.348,-59.41C-5.448,-58.421 -5.657,-57.444 -5.818,-56.461C-4.753,-54.158 -4.753,-54.158 -3.25,-52.881C-3.618,-52.592 -3.968,-52.319 -4.341,-52.027C-5.152,-52.418 -5.88,-52.769 -6.7,-53.165C-7.109,-53.938 -7.542,-54.758 -8.072,-55.76L-8.072,-59.319C-9.083,-60.167 -9.666,-59.007 -10.462,-59.095C-11.275,-59.185 -12.106,-59.115 -12.884,-59.115C-13.461,-59.395 -13.987,-59.65 -14.566,-59.931C-14.931,-60.45 -15.329,-61.014 -15.706,-61.548C-16.778,-61.42 -17.781,-61.3 -18.702,-61.189C-21.708,-63.418 -22.814,-66.352 -22.806,-69.815C-22.801,-72.052 -22.805,-74.288 -22.805,-76.67C-21.751,-78.757 -21.331,-81.148 -21.058,-83.855C-21.276,-84.649 -21.499,-85.793 -21.908,-86.866C-22.323,-87.954 -23.271,-88.946 -23.353,-90.028C-23.454,-91.381 -24.652,-91.973 -24.945,-93.225C-23.61,-96.296 -24.491,-99.625 -24.139,-103.068C-22.499,-105.455 -22.757,-108.756 -20.925,-111.466C-19.732,-112.628 -17.903,-112.775 -16.306,-113.43C-15.896,-113.598 -15.377,-113.47 -15.177,-112.874C-15.18,-112.067 -15.713,-111.676 -16.418,-111.428C-17.184,-111.158 -17.96,-110.913 -18.71,-110.605C-19.024,-110.475 -19.283,-110.212 -19.508,-110.051C-20.346,-107.329 -21.162,-104.681 -22.076,-101.714L-22.076,-92.571C-21.411,-89.817 -19.7,-87.542 -19.003,-84.823C-18.636,-83.392 -18.466,-82.175 -19.006,-80.768C-19.624,-79.155 -20.18,-77.472 -20.42,-75.771C-20.679,-73.935 -20.76,-72.013 -20.512,-70.184C-20.267,-68.384 -19.512,-66.653 -18.981,-64.891C-17.633,-65.299 -17.633,-65.299 -16.371,-67.807L-16.371,-76.459C-15.853,-76.584 -15.428,-76.686 -14.969,-76.796C-14.632,-76.385 -14.346,-76.036 -14.064,-75.692C-13.406,-75.822 -12.751,-75.951 -11.994,-76.101C-11.576,-75.052 -11.199,-74.105 -10.744,-72.963C-11.759,-71.148 -11.686,-68.999 -11.436,-66.94C-11.188,-64.901 -10.654,-62.83 -8.902,-61.171C-8.408,-61.462 -7.938,-61.739 -7.397,-62.058C-7.273,-63.619 -7.043,-65.075 -7.786,-66.557C-8.213,-67.41 -8.108,-68.403 -7.457,-69.24C-8.105,-70.628 -8.74,-71.987 -9.393,-73.385C-9.041,-73.794 -8.744,-74.139 -8.742,-74.141C-7.423,-75.208 -6.449,-73.757 -5.415,-74.494C-4.5,-75.146 -3.698,-73.931 -2.716,-74.111C-1.884,-75.237 -2.701,-76.662 -2.132,-77.815C-1.572,-78.946 -1.449,-80.246 -0.476,-81.236C0.408,-82.135 1.024,-83.298 1.861,-84.492L1.861,-95.787C1.378,-96.304 0.64,-96.739 0.662,-97.132C0.745,-98.613 -0.751,-99.207 -0.959,-100.576C-1.432,-103.692 -2.523,-106.618 -4.599,-109.089C-4.896,-109.443 -5.11,-109.866 -5.325,-110.198C-6.988,-111.091 -8.569,-112.058 -10.247,-112.808C-11.928,-113.558 -13.706,-114.09 -15.269,-114.655C-15.888,-114.485 -16.322,-114.365 -16.826,-114.227C-17.228,-114.72 -17.584,-115.158 -17.994,-115.662C-17.653,-116.501 -17.351,-117.244 -17.057,-117.968C-16.198,-118.735 -14.915,-119.019 -14.588,-120.31C-14.735,-120.493 -14.844,-120.764 -15.033,-120.842C-16.744,-121.545 -18.469,-122.214 -20.632,-123.067C-21.524,-123.99 -22.95,-124.948 -24.577,-125.696C-26.239,-126.461 -27.855,-127.404 -29.126,-128.774C-28.863,-129.973 -28.214,-130.476 -27.058,-130.409C-25.21,-129.578 -23.778,-128.017 -21.715,-127.322C-19.894,-126.709 -18.347,-125.285 -16.573,-124.152L-14.109,-124.152C-13.832,-124.38 -13.478,-124.671 -13.147,-124.944C-13.27,-125.238 -13.296,-125.528 -13.445,-125.622C-14.922,-126.549 -16.407,-127.464 -17.916,-128.337C-18.619,-128.744 -19.342,-129.149 -20.226,-129.039C-21.477,-128.884 -22.497,-129.509 -23.49,-130.123C-25.074,-131.102 -26.607,-132.163 -28.199,-133.128C-28.573,-133.354 -29.097,-133.334 -29.594,-133.436C-30.52,-134.3 -31.462,-135.178 -32.282,-135.944C-33.395,-136.196 -34.303,-136.13 -35.283,-135.923C-35.438,-135.024 -35.573,-134.238 -35.693,-133.538C-36.696,-132.298 -38.638,-132.191 -38.985,-130.204C-38.695,-130.203 -38.42,-130.137 -38.192,-130.212C-36.761,-130.683 -35.78,-131.958 -34.174,-132.233C-32.565,-132.508 -32.596,-132.689 -30.109,-132.215" style="fill:rgb(255,255,223);fill-rule:nonzero;"/>
            </g>
        </g>
    </g>
</svg>
