<?xml version="1.0" encoding="UTF-8" standalone="no"?>
<!DOCTYPE svg PUBLIC "-//W3C//DTD SVG 1.1//EN" "http://www.w3.org/Graphics/SVG/1.1/DTD/svg11.dtd">
<svg width="100%" height="100%" viewBox="0 0 475 756" version="1.1" xmlns="http://www.w3.org/2000/svg" xmlns:xlink="http://www.w3.org/1999/xlink" xml:space="preserve" xmlns:serif="http://www.serif.com/" style="fill-rule:evenodd;clip-rule:evenodd;stroke-linejoin:round;stroke-miterlimit:2;">
    <g transform="matrix(1,0,0,1,-1908.35,-754.371)">
        <g transform="matrix(4.16667,0,0,4.16667,2087.67,1049.67)">
            <path d="M0,39.464C-0.037,39.207 -0.074,38.95 -0.111,38.693C-0.398,38.823 -0.727,38.908 -0.946,39.112C-1.011,39.172 -0.768,39.565 -0.665,39.806C-0.444,39.692 -0.222,39.579 0,39.464M17.835,-21.54C17.611,-21.501 17.387,-21.462 17.163,-21.423C17.312,-20.665 17.46,-19.906 17.609,-19.148C17.803,-19.185 17.996,-19.221 18.19,-19.258C18.072,-20.019 17.953,-20.78 17.835,-21.54M-0.179,7.891C0.155,7.45 0.389,7.141 0.623,6.832C0.313,6.63 -0.027,6.235 -0.298,6.277C-0.595,6.323 -0.829,6.774 -1.091,7.049C-0.821,7.298 -0.551,7.547 -0.179,7.891M25.22,8.568C25.51,8.464 25.801,8.36 26.091,8.256C25.644,7.454 25.197,6.653 24.75,5.851C24.556,5.943 24.362,6.036 24.168,6.128L25.22,8.568ZM36.042,5.052C35.568,4.48 35.242,3.916 35.109,3.959C34.611,4.117 34.176,4.474 33.717,4.757C33.946,5.064 34.174,5.625 34.404,5.626C34.867,5.627 35.332,5.324 36.042,5.052M6.661,3.006C6.937,3.069 7.213,3.133 7.489,3.197C7.876,1.622 8.263,0.048 8.65,-1.527C8.358,-1.594 8.066,-1.662 7.774,-1.73C7.403,-0.152 7.032,1.427 6.661,3.006M52.469,18.843C52.422,19.212 52.375,19.58 52.328,19.949C53.208,20.003 54.088,20.058 54.967,20.113C54.992,19.869 55.018,19.624 55.043,19.38C54.185,19.201 53.327,19.022 52.469,18.843M4.289,44.586C2.934,41.802 2.934,41.802 1.377,43.685C2.33,43.98 3.179,44.243 4.289,44.586M-13.915,-1.831C-15.176,-5.706 -15.272,-5.805 -18.716,-7.178C-16.765,-5.005 -15.34,-3.418 -13.915,-1.831M28.854,41.425C32.317,43.606 32.317,43.606 34.386,41.77C32.622,41.66 31.116,41.566 28.854,41.425M-1.158,15.657C2.78,13.83 2.78,13.83 2.973,10.638C1.5,12.427 0.171,14.042 -1.158,15.657M19.643,-9.359C20.306,-11.877 19.729,-13.571 18.583,-15.935C17.632,-13.199 17.84,-11.439 19.643,-9.359M34.483,34.163C34.072,34.103 33.662,34.043 33.252,33.983C32.542,35.189 31.831,36.394 30.729,38.265C32.211,38.358 33.79,38.607 33.837,38.435C34.215,37.056 34.305,35.597 34.483,34.163M8.253,43.723C8.299,41.102 7.408,38.988 4.799,37.423C3.802,40.955 6.359,42.154 8.253,43.723M-8.091,2.532C-8.136,5.96 -6.352,7.888 -4.619,9.839C-4.749,7.199 -4.138,4.24 -8.091,2.532M-13.472,21.939C-9.638,24.358 -6.606,23.219 -5.321,19.066C-7.967,19.999 -10.381,20.85 -13.472,21.939M17.215,21.432C17.638,17.788 17.762,15.063 16.262,11.7C15.079,14.371 14.177,16.407 13.184,18.648C14.334,19.442 15.367,20.156 17.215,21.432M1.66,36.151C1.819,35.788 1.979,35.425 2.138,35.062C-1.791,29.122 -8.352,29.244 -14.638,28.727C-9.206,31.201 -3.773,33.676 1.66,36.151M47.658,17.613C47.707,17.255 47.756,16.897 47.805,16.539C45.694,15.612 43.632,14.541 41.459,13.794C38.695,12.844 36.168,11.989 34.519,9.093C33.516,7.331 31.47,5.618 28.607,6.81C29.747,10.754 31.657,13.511 35.677,14.499C37.785,15.018 39.758,16.073 41.859,16.635C43.744,17.14 45.721,17.301 47.658,17.613M33.729,29.367C33.483,29.087 33.237,28.807 32.992,28.526C25.393,31.32 21.472,37.566 18.359,44.536C17.032,47.507 15.504,50.487 16.875,54.652C19.223,49.447 20.736,44.522 23.489,40.431C26.261,36.311 30.265,33.021 33.729,29.367M18.579,-0.689C17.18,8.604 19.926,16.009 30.062,19.143C27.696,24.283 21.56,26.31 20.574,32.046C24.695,30.079 28.517,27.831 32.317,25.548C36.053,23.303 40.638,22.696 44.369,19.572C43.386,19.257 42.824,19.126 42.301,18.902C36.753,16.517 30.664,15.367 25.838,11.318C23.784,9.594 22.007,7.862 21.123,5.249C20.436,3.215 19.439,1.287 17.586,-0.782C15.704,-9.364 13.819,-17.959 11.933,-26.554C11.198,-24.189 10.561,-21.668 10.633,-19.167C10.822,-12.636 11.333,-6.114 11.678,0.413C11.716,1.127 11.617,1.89 11.397,2.57C9.448,8.574 6.57,14.073 2.561,18.985C-0.244,22.423 -3.94,24.578 -8.122,26.396C4.336,33.029 6.009,31.802 13.746,47.244C15.55,43.417 17.181,39.959 18.811,36.5C18.474,36.513 18.137,36.527 17.8,36.54C16.954,34.828 15.919,33.18 15.322,31.385C14.825,29.893 14.761,28.235 14.655,26.641C14.504,24.348 13.13,23.194 11.087,22.893C9.701,22.688 8.244,22.878 6.827,22.997C5.515,23.107 4.214,23.358 2.907,23.546C2.703,23.118 2.498,22.691 2.293,22.263C2.835,22.068 3.415,21.94 3.915,21.667C8.109,19.375 11.204,16.28 13.135,11.668C14.398,8.652 14.389,5.794 14.452,2.772C14.514,-0.257 14.559,-0.256 18.579,-0.689M48.605,-11.34C49.372,-8.714 47.582,-7.547 46.531,-6.073C44.177,-2.772 41.614,0.398 39.479,3.834C37.487,7.041 37.837,8.288 40.85,10.42C42.496,11.584 44.357,12.478 46.198,13.324C48.442,14.355 50.797,15.14 53.049,16.152C57.943,18.353 62.922,19.616 68.297,18.122C69.066,17.908 69.946,18.092 70.868,18.45C68.453,20.53 65.641,21.628 62.576,22.031C58.832,22.524 54.834,22.209 51.372,23.44C46.939,25.016 42.826,27.617 38.786,30.117C36.93,31.265 37.382,33.473 38.089,35.324C39.579,39.225 41.256,42.825 44.704,45.696C48.009,48.449 50.493,52.195 53.286,55.546C53.682,56.021 53.787,56.738 54.254,57.915C48.442,54.549 43.249,51.514 38.022,48.538C36.774,47.828 35.466,47.108 34.092,46.76C31.05,45.989 28.113,46.118 25.603,48.714C25.779,47.694 25.955,46.674 26.151,45.541C25.568,45.647 25.191,45.603 25.069,45.758C24.535,46.441 23.964,47.131 23.607,47.91C21.736,51.994 19.576,55.994 18.218,60.247C17.323,63.049 17.488,66.227 17.4,69.243C17.26,74.032 17.461,78.835 17.233,83.618C16.937,89.854 16.356,96.076 15.909,102.304C15.724,104.884 15.811,107.525 13.955,110.335C13.456,109.22 12.886,108.539 12.888,107.861C12.91,100.609 12.664,93.331 13.202,86.113C13.86,77.28 12.18,68.786 10.573,60.246C10.009,57.248 9.306,54.254 8.378,51.351C7.103,47.359 5.058,46.724 1.429,48.915C0.434,49.515 -0.516,50.194 -1.53,50.757C-5.054,52.716 -5.062,52.703 -4.197,57.107C-7.612,55.197 -9.682,57.015 -11.72,59.316C-13.22,61.01 -14.998,62.458 -16.499,63.871C-18.492,62.991 -18.28,61.711 -17.72,60.722C-16.586,58.718 -15.341,56.743 -13.891,54.96C-11.432,51.938 -11.358,52.01 -13.707,48.685C-14.078,48.159 -14.351,47.562 -14.699,46.945C-14.251,46.796 -14.086,46.679 -13.999,46.721C-9.617,48.846 -8.292,48.661 -6.1,44.411C-4.121,40.572 -3.486,36.958 -8.192,34.346C-12.275,32.081 -16.459,30.398 -21.096,29.476C-24.244,28.851 -27.336,28.612 -30.491,28.51C-30.925,28.496 -31.396,28.495 -31.783,28.329C-33.506,27.591 -35.149,26.374 -36.928,26.142C-38.638,25.918 -40.48,26.691 -43.037,27.171C-42.305,25.853 -42.1,24.897 -41.555,24.627C-40.554,24.129 -39.298,23.672 -38.242,23.828C-27.941,25.359 -19.189,20.946 -10.431,16.656C-6.948,14.95 -6.671,13.867 -8.341,10.423C-10.864,5.22 -14.584,0.858 -18.504,-3.309C-21.297,-6.279 -21.575,-9.407 -19.794,-12.896C-19.667,-13.143 -19.426,-13.339 -19.213,-13.531C-19.113,-13.62 -18.952,-13.641 -18.257,-13.911C-17.253,-12.93 -15.863,-11.915 -14.918,-10.584C-12.11,-6.624 -8.602,-3.929 -3.49,-3.738C-3.18,-2.295 -3.018,-0.996 -2.612,0.222C-2.065,1.86 -0.851,3.223 0.885,2.88C1.835,2.692 2.979,1.324 3.255,0.282C4.12,-2.988 6.209,-6.116 4.748,-9.78C4.517,-10.358 4.826,-11.225 5.057,-11.9C8.512,-22.034 9.6,-32.563 10.315,-43.156C10.392,-44.306 10.459,-45.455 10.541,-46.77C11.756,-47.137 12.818,-47.458 13.854,-47.771C14.322,-55.277 14.786,-62.738 15.293,-70.871C15.961,-69.8 16.661,-69.192 16.677,-68.569C16.794,-63.775 16.724,-58.977 16.83,-54.183C16.874,-52.186 17.141,-50.187 17.421,-48.206C17.905,-44.777 18.797,-41.375 18.95,-37.936C19.324,-29.506 20.536,-21.269 22.679,-13.086C23.793,-8.832 25.306,-4.82 27.227,-0.947C28.899,2.425 29.655,2.66 33.064,0.947C34.83,0.059 36.458,-1.279 37.841,-2.712C39.754,-4.694 41.388,-6.947 43.12,-9.101C44.479,-10.792 46.088,-11.83 48.605,-11.34" style="fill:rgb(255,255,223);fill-rule:nonzero;"/>
        </g>
    </g>
</svg>
