<?xml version="1.0" encoding="UTF-8" standalone="no"?>
<!DOCTYPE svg PUBLIC "-//W3C//DTD SVG 1.1//EN" "http://www.w3.org/Graphics/SVG/1.1/DTD/svg11.dtd">
<svg width="100%" height="100%" viewBox="0 0 607 648" version="1.1" xmlns="http://www.w3.org/2000/svg" xmlns:xlink="http://www.w3.org/1999/xlink" xml:space="preserve" xmlns:serif="http://www.serif.com/" style="fill-rule:evenodd;clip-rule:evenodd;stroke-linejoin:round;stroke-miterlimit:2;">
    <g transform="matrix(1,0,0,1,-182.967,-292.353)">
        <g id="Artboard1" transform="matrix(1.20177,0,0,0.919779,183.386,292.411)">
            <rect x="-0.348" y="-0.063" width="505.019" height="703.844" style="fill:none;"/>
            <g id="ABC-Flaske" serif:id="ABC Flaske">
            </g>
            <g transform="matrix(0.191368,0,0,0.250039,124.328,219.123)">
                <g transform="matrix(1,0,0,1,-640,-640)">
                    <g transform="matrix(2,0,0,2,0,0)">
                        <path d="M576,112C576,100.9 570.3,90.6 560.8,84.8C551.3,79 539.6,78.4 529.7,83.4L413.5,141.5L234.1,81.6C226,78.9 217.3,79.5 209.7,83.3L81.7,147.3C70.8,152.8 64,163.9 64,176L64,528C64,539.1 69.7,549.4 79.2,555.2C88.7,561 100.4,561.6 110.3,556.6L226.4,498.5L399.7,556.3C395.4,549.9 391.2,543.2 387.1,536.4C376.1,518.1 365.2,497.1 357.1,474.6L255.9,440.9L255.9,156.4L383.9,199.1L383.9,298.4C414.9,262.6 460.9,240 511.9,240C534.5,240 556.1,244.4 575.9,252.5L576,112ZM392,405.9C392,474.8 456.1,556.3 490.6,595.2C502.2,608.2 521.9,608.2 533.5,595.2C568,556.3 632.1,474.8 632.1,405.9C632.1,340.8 578.4,288 512.1,288C445.8,288 392,340.8 392,405.9Z" style="fill:none;fill-rule:nonzero;"/>
                    </g>
                </g>
            </g>
            <g transform="matrix(0.556203,0,0,0.726728,252.448,374.67)">
                <g transform="matrix(1,0,0,1,-640,-640)">
                    <g transform="matrix(2,0,0,2,0,0)">
                        <path d="M216,64C229.3,64 240,74.7 240,88L240,128L400,128L400,88C400,74.7 410.7,64 424,64C437.3,64 448,74.7 448,88L448,128L480,128C515.3,128 544,156.7 544,192L544,480C544,515.3 515.3,544 480,544L160,544C124.7,544 96,515.3 96,480L96,192C96,156.7 124.7,128 160,128L192,128L192,88C192,74.7 202.7,64 216,64ZM480,496C488.8,496 496,488.8 496,480L496,416L408,416L408,496L480,496ZM496,368L496,288L408,288L408,368L496,368ZM360,368L360,288L280,288L280,368L360,368ZM232,368L232,288L144,288L144,368L232,368ZM144,416L144,480C144,488.8 151.2,496 160,496L232,496L232,416L144,416ZM280,416L280,496L360,496L360,416L280,416ZM480,176L160,176C151.2,176 144,183.2 144,192L144,240L496,240L496,192C496,183.2 488.8,176 480,176Z" style="fill:rgb(46,68,40);fill-rule:nonzero;"/>
                    </g>
                </g>
            </g>
        </g>
    </g>
</svg>
