<svg width="96" height="110" viewBox="0 0 96 110" fill="none" xmlns="http://www.w3.org/2000/svg">
<path d="M36.2719 66.8227C36.2407 66.6671 36.2095 66.5114 36.1784 66.3558C35.9365 66.4345 35.6592 66.486 35.4746 66.6095C35.4198 66.6459 35.6246 66.8839 35.7114 67.0298C35.8977 66.9608 36.0848 66.8923 36.2719 66.8227ZM51.3034 29.8766C51.1146 29.9002 50.9258 29.9238 50.737 29.9474C50.8626 30.4065 50.9873 30.8662 51.1129 31.3252C51.2764 31.3028 51.4391 31.281 51.6026 31.2586C51.5031 30.7977 51.4028 30.3368 51.3034 29.8766ZM36.121 47.701C36.4025 47.4339 36.5998 47.2468 36.797 47.0596C36.5357 46.9373 36.2492 46.6981 36.0208 46.7235C35.7704 46.7514 35.5732 47.0245 35.3524 47.191C35.58 47.3419 35.8075 47.4927 36.121 47.701ZM57.5275 48.111C57.7719 48.048 58.0172 47.985 58.2616 47.9221C57.8849 47.4363 57.5081 46.9512 57.1314 46.4655C56.9679 46.5212 56.8044 46.5775 56.6409 46.6333L57.5275 48.111ZM66.6484 45.9816C66.2489 45.6352 65.9741 45.2936 65.862 45.3196C65.4423 45.4153 65.0757 45.6315 64.6889 45.8029C64.8819 45.9889 65.074 46.3286 65.2679 46.3292C65.6581 46.3298 66.05 46.1463 66.6484 45.9816ZM41.8858 44.7425C42.1185 44.7806 42.3511 44.8194 42.5837 44.8581C42.9099 43.9043 43.236 42.951 43.5622 41.9971C43.3161 41.9566 43.07 41.9154 42.8239 41.8742C42.5112 42.8299 42.1985 43.7862 41.8858 44.7425ZM80.4932 54.3339C80.4536 54.5574 80.414 54.7803 80.3743 55.0037C81.116 55.0364 81.8577 55.0698 82.5985 55.1031C82.6196 54.9553 82.6415 54.8069 82.6626 54.6591C81.9394 54.5507 81.2163 54.4423 80.4932 54.3339ZM39.8867 69.9248C38.7447 68.2387 38.7447 68.2387 37.4325 69.3791C38.2356 69.5577 38.9512 69.717 39.8867 69.9248ZM24.5442 41.813C23.4815 39.4662 23.4006 39.4062 20.4979 38.5747C22.1422 39.8907 23.3432 40.8519 24.5442 41.813ZM60.5903 68.0104C63.5089 69.3312 63.5089 69.3312 65.2527 68.2193C63.766 68.1527 62.4967 68.0957 60.5903 68.0104ZM35.2959 52.4044C38.6149 51.2979 38.6149 51.2979 38.7776 49.3647C37.5361 50.4482 36.416 51.4263 35.2959 52.4044ZM52.8272 37.2538C53.386 35.7288 52.8997 34.7029 51.9338 33.2711C51.1323 34.9282 51.3076 35.9941 52.8272 37.2538ZM65.3344 63.6122C64.9881 63.5759 64.6425 63.5396 64.297 63.5032C63.6986 64.2336 63.0993 64.9634 62.1705 66.0965C63.4196 66.1529 64.7504 66.3037 64.79 66.1995C65.1086 65.3643 65.1844 64.4807 65.3344 63.6122ZM43.2276 69.4021C43.2664 67.8147 42.5154 66.5344 40.3165 65.5866C39.4763 67.7257 41.6313 68.4519 43.2276 69.4021ZM29.4528 44.4554C29.4148 46.5315 30.9184 47.6992 32.379 48.8808C32.2694 47.2819 32.7844 45.4898 29.4528 44.4554ZM24.9176 56.209C28.1489 57.674 30.7043 56.9842 31.7873 54.469C29.5573 55.034 27.5227 55.5494 24.9176 56.209ZM50.7808 55.9019C51.1373 53.695 51.2419 52.0446 49.9776 50.0079C48.9806 51.6255 48.2204 52.8586 47.3835 54.2158C48.3527 54.6967 49.2233 55.1291 50.7808 55.9019ZM37.671 64.8162C37.805 64.5964 37.9398 64.3765 38.0738 64.1567C34.7624 60.5592 29.2328 60.6331 23.9349 60.32C28.513 61.8183 33.092 63.3173 37.671 64.8162ZM76.4384 53.589C76.4797 53.3722 76.521 53.1553 76.5623 52.9385C74.7832 52.3771 73.0453 51.7285 71.2139 51.2761C68.8844 50.7007 66.7546 50.1829 65.3648 48.429C64.5194 47.3618 62.7951 46.3244 60.3821 47.0463C61.3429 49.4349 62.9527 51.1047 66.3408 51.703C68.1174 52.0174 69.7803 52.6563 71.551 52.9967C73.1397 53.3025 74.8059 53.4 76.4384 53.589ZM64.699 60.7076C64.4916 60.538 64.2843 60.3685 64.0778 60.1983C57.6733 61.8904 54.3687 65.6732 51.745 69.8945C50.6266 71.6938 49.3388 73.4986 50.4943 76.0211C52.4732 72.8688 53.7484 69.886 56.0686 67.4083C58.4049 64.9131 61.7795 62.9206 64.699 60.7076ZM51.9304 42.5047C50.7513 48.1328 53.0657 52.6175 61.6084 54.5156C59.6143 57.6286 54.4428 58.8562 53.6118 62.3301C57.085 61.1388 60.3063 59.7774 63.5089 58.3947C66.6577 57.035 70.5219 56.6674 73.6664 54.7754C72.838 54.5846 72.3643 54.5053 71.9235 54.3696C67.2476 52.9252 62.1158 52.2287 58.0484 49.7765C56.3172 48.7324 54.8196 47.6834 54.0745 46.1009C53.4955 44.869 52.6552 43.7014 51.0935 42.4483C49.5074 37.2508 47.9187 32.0453 46.3291 26.8399C45.7097 28.2722 45.1728 29.799 45.2335 31.3137C45.3928 35.2691 45.8234 39.2191 46.1142 43.1721C46.1462 43.6045 46.0628 44.0666 45.8774 44.4784C44.2348 48.1146 41.8092 51.445 38.4303 54.4199C36.0663 56.5021 32.9512 57.8072 29.4266 58.9083C39.9263 62.9254 41.3363 62.1823 47.8571 71.5345C49.3776 69.2168 50.7522 67.1225 52.126 65.0276C51.8419 65.0355 51.5579 65.044 51.2739 65.0518C50.5609 64.015 49.6886 63.0169 49.1854 61.9298C48.7665 61.0262 48.7126 60.022 48.6233 59.0566C48.496 57.6679 47.338 56.969 45.6161 56.7867C44.448 56.6626 43.22 56.7776 42.0258 56.8497C40.92 56.9163 39.8235 57.0683 38.722 57.1822C38.55 56.923 38.3772 56.6644 38.2045 56.4052C38.6613 56.2871 39.1501 56.2096 39.5715 56.0442C43.1062 54.6561 45.7147 52.7817 47.3422 49.9885C48.4067 48.1619 48.3991 46.431 48.4522 44.6008C48.5044 42.7663 48.5423 42.7669 51.9304 42.5047ZM77.2366 36.054C77.883 37.6444 76.3744 38.3512 75.4886 39.2439C73.5046 41.2431 71.3445 43.163 69.5451 45.2439C67.8662 47.1862 68.1612 47.9414 70.7006 49.2326C72.0879 49.9376 73.6563 50.479 75.2079 50.9914C77.0992 51.6158 79.084 52.0912 80.982 52.7041C85.1067 54.0371 89.303 54.8021 93.8331 53.8972C94.4813 53.7676 95.2229 53.8791 96 54.0959C93.9646 55.3556 91.5946 56.0206 89.0114 56.2647C85.856 56.5632 82.4864 56.3725 79.5686 57.118C75.8325 58.0725 72.366 59.6477 68.961 61.1618C67.3968 61.8571 67.7777 63.1943 68.3736 64.3154C69.6294 66.678 71.0428 68.8582 73.9488 70.597C76.7343 72.2643 78.8278 74.533 81.1818 76.5625C81.5155 76.8502 81.604 77.2844 81.9976 77.9973C77.0992 75.9587 72.7225 74.1206 68.3171 72.3182C67.2653 71.8882 66.1629 71.4522 65.0049 71.2414C62.4411 70.7745 59.9658 70.8526 57.8503 72.4248C57.9986 71.8071 58.147 71.1893 58.3122 70.5031C57.8208 70.5673 57.5031 70.5407 57.4003 70.6346C56.9502 71.0482 56.4689 71.4661 56.1681 71.9379C54.5912 74.4113 52.7707 76.8338 51.6262 79.4096C50.8719 81.1066 51.0109 83.0313 50.9368 84.8579C50.8188 87.7583 50.9882 90.6671 50.796 93.5639C50.5465 97.3406 50.0569 101.109 49.6801 104.881C49.5242 106.443 49.5975 108.043 48.0333 109.745C47.6127 109.069 47.1323 108.657 47.134 108.246C47.1526 103.854 46.9452 99.4464 47.3987 95.075C47.9532 89.7254 46.5373 84.5811 45.1829 79.409C44.7076 77.5933 44.1151 75.78 43.333 74.0219C42.2584 71.6042 40.5348 71.2196 37.4763 72.5466C36.6377 72.9099 35.837 73.3212 34.9824 73.6621C32.0124 74.8486 32.0056 74.8407 32.7346 77.5079C29.8565 76.3511 28.1118 77.4522 26.3942 78.8458C25.13 79.8717 23.6315 80.7487 22.3664 81.6044C20.6867 81.0715 20.8654 80.2962 21.3374 79.6973C22.2931 78.4836 23.3424 77.2875 24.5645 76.2076C26.6369 74.3774 26.6993 74.421 24.7195 72.4073C24.4069 72.0887 24.1768 71.7271 23.8835 71.3534C24.2611 71.2632 24.4001 71.1924 24.4734 71.2178C28.1666 72.5048 29.2833 72.3927 31.1308 69.8188C32.7987 67.4937 33.3339 65.305 29.3676 63.7231C25.9264 62.3513 22.4001 61.332 18.492 60.7736C15.8389 60.3951 13.2329 60.2504 10.5739 60.1886C10.2081 60.1801 9.81112 60.1795 9.48495 60.079C8.0328 59.632 6.64806 58.8949 5.14871 58.7544C3.70751 58.6188 2.15506 59.0869 0 59.3776C0.616935 58.5794 0.789709 58.0004 1.24904 57.8369C2.09269 57.5353 3.15126 57.2585 4.04126 57.353C12.723 58.2802 20.0993 55.6076 27.4806 53.0094C30.4161 51.9762 30.6495 51.3203 29.2421 49.2345C27.1156 46.0833 23.9804 43.4416 20.6766 40.9179C18.3226 39.1192 18.0883 37.2247 19.5894 35.1117C19.6964 34.9621 19.8995 34.8434 20.079 34.7271C20.1633 34.6732 20.299 34.6605 20.8848 34.497C21.7309 35.0911 22.9025 35.7058 23.6989 36.5119C26.0655 38.9102 29.0221 40.5424 33.3305 40.6581C33.5918 41.532 33.7283 42.3187 34.0705 43.0564C34.5315 44.0484 35.5547 44.8739 37.0178 44.6662C37.8185 44.5523 38.7826 43.7238 39.0152 43.0927C39.7443 41.1123 41.5049 39.2179 40.2736 36.9988C40.0789 36.6488 40.3393 36.1237 40.534 35.7149C43.4459 29.5774 44.3629 23.2007 44.9655 16.7852C45.0304 16.0887 45.0868 15.3928 45.1559 14.5964C46.18 14.3741 47.075 14.1797 47.9482 13.9902C48.3426 9.44427 48.7337 4.92563 49.161 0C49.724 0.648635 50.3139 1.01686 50.3274 1.39417C50.426 4.29758 50.367 7.20342 50.4564 10.1068C50.4934 11.3163 50.7185 12.5269 50.9545 13.7267C51.3624 15.8034 52.1142 17.8638 52.2431 19.9466C52.5583 25.0521 53.5798 30.0407 55.3859 34.9966C56.3248 37.573 57.6 40.0028 59.219 42.3484C60.6282 44.3906 61.2654 44.5329 64.1385 43.4955C65.6269 42.9577 66.999 42.1473 68.1646 41.2795C69.7769 40.0791 71.154 38.7146 72.6138 37.4101C73.7591 36.3859 75.1152 35.7573 77.2366 36.054Z" fill="black"/>
<path d="M35 60.0001C37.1222 61.6311 38.8356 62.9484 40.6628 64.3522C36.3283 63.8835 35.263 63.1173 35 60.0001Z" fill="black"/>
</svg>
