<svg width="113" height="77" viewBox="0 0 113 77" fill="none" xmlns="http://www.w3.org/2000/svg">
<path d="M106.335 43.4331C106.072 43.3446 105.787 43.2714 105.521 43.148C105.404 43.0935 105.255 42.9386 105.25 42.8246C105.246 42.7105 105.39 42.519 105.499 42.4858C105.814 42.3896 106.146 42.3564 106.455 42.3011C106.995 42.7777 107.294 43.3923 107.615 43.9838C107.863 44.4417 107.813 44.9388 107.63 45.3975C107.461 45.8197 107.343 46.2282 107.477 46.7823C107.612 46.6963 107.736 46.6487 107.82 46.5568C108.003 46.3567 108.139 46.092 108.343 45.9286C109.117 45.309 109.645 44.5064 109.986 43.5242C110.184 42.9556 110.448 42.4135 110.699 41.8696C111.045 41.1206 111.113 40.341 111.093 39.5017C111.062 38.2038 110.448 37.3816 109.527 36.739C109.278 36.5645 108.995 36.4411 108.771 36.2343C108.613 36.0887 108.51 35.853 108.421 35.6376C108.343 35.4521 108.516 35.1933 108.7 35.2112C108.917 35.2325 109.158 35.2384 109.341 35.3482C110.145 35.83 110.977 36.2589 111.545 37.1254C111.768 37.465 111.951 37.7986 112.044 38.1961C112.226 38.9834 112.413 39.7699 112.568 40.564C112.604 40.7444 112.579 41.0091 112.48 41.1376C112.133 41.587 111.973 42.1198 111.793 42.656C111.678 42.9965 111.5 43.314 111.331 43.6289C110.898 44.434 110.462 45.2367 110.011 46.0291C109.897 46.2308 109.735 46.4061 109.576 46.5712C109.146 47.0172 108.708 47.4539 108.269 47.8888C107.541 48.6105 106.824 48.4386 106.405 47.4522C106.156 46.8632 106.188 46.2674 106.335 45.6597C106.509 44.9422 106.567 44.2213 106.335 43.4331Z" fill="black"/>
<path d="M46.1831 70.0385C46.2085 70.0547 46.2347 70.0709 46.2601 70.087C46.2717 70.0581 46.2987 70.0232 46.291 70.0028C46.2825 69.9798 46.244 69.9696 46.2185 69.9543C46.207 69.9824 46.1946 70.0104 46.1831 70.0385ZM45.1889 69.1525C45.1558 69.2019 45.088 69.2674 45.0988 69.2972C45.1196 69.3542 45.1858 69.3908 45.2328 69.4359C45.2644 69.3883 45.3315 69.3244 45.3207 69.2946C45.2991 69.2376 45.2352 69.1993 45.1889 69.1525ZM33.0294 68.9593C33.0564 68.9372 33.108 68.9014 33.1049 68.8955C33.0756 68.8299 33.0379 68.7695 33.0024 68.7074C32.9616 68.7474 32.92 68.7874 32.8791 68.8274C32.9292 68.8716 32.9793 68.915 33.0294 68.9593ZM32.1693 68.1831C32.1724 68.1465 32.1886 68.0852 32.1763 68.0767C32.1246 68.0418 32.0645 68.0231 32.0067 67.9984C32.0036 68.035 31.9867 68.0954 31.999 68.1039C32.0514 68.1388 32.1115 68.1584 32.1693 68.1831ZM32.1701 65.8688C32.1216 65.8586 32.0722 65.8476 32.0229 65.8365C32.026 65.868 32.0198 65.9225 32.0322 65.9284C32.0784 65.9489 32.13 65.954 32.1794 65.965C32.1763 65.9335 32.1732 65.9012 32.1701 65.8688ZM56.5824 59.7943C56.493 59.899 56.4152 59.9526 56.4206 59.9918C56.4344 60.0956 56.4845 60.1935 56.5207 60.2939C56.5793 60.2684 56.6895 60.2327 56.6872 60.219C56.6672 60.088 56.6271 59.9612 56.5824 59.7943ZM42.5571 68.6359C42.4269 68.5695 42.3143 68.509 42.1987 68.4571C42.1895 68.4529 42.1356 68.5329 42.1402 68.5388C42.2226 68.6435 42.3105 68.7431 42.3976 68.8435C42.4361 68.7933 42.4746 68.7431 42.5571 68.6359ZM48.0843 72.0174C47.9579 72.077 47.8731 72.0863 47.84 72.1374C47.7598 72.2608 47.8716 72.4532 48.0365 72.4685C48.0974 72.4745 48.1629 72.4191 48.2269 72.3919C48.1791 72.2676 48.1321 72.1425 48.0843 72.0174ZM14.8325 37.4701C15.083 38.7561 15.5962 40.2635 16.0694 41.0329C15.9692 40.1894 15.8806 39.5119 15.8112 38.8327C15.7481 38.2122 15.4683 37.7833 14.8325 37.4701ZM61.238 60.1961C61.2965 59.127 60.9837 58.2231 60.6623 57.3286C60.586 57.1158 60.3895 56.9388 60.1159 57.0707C59.934 57.4061 59.9093 57.8044 60.0673 58.1108C60.3124 58.5857 60.3879 59.0956 60.5105 59.602C60.5883 59.9246 60.7455 60.202 61.238 60.1961ZM59.42 72.0532C60.0789 71.5408 60.1775 70.8062 60.3109 70.1134C60.4118 69.5874 59.9856 69.2802 59.8346 68.8129C59.6065 68.9559 59.4477 69.0521 59.292 69.1534C58.785 69.4844 58.6724 69.9653 58.8358 70.619C58.9568 71.1033 59.208 71.5476 59.42 72.0532ZM58.459 73.0192C58.1237 72.6302 57.8555 72.3034 57.5704 71.9944C57.3546 71.7595 57.0016 71.7161 56.7543 71.8965C56.6032 72.0072 56.4884 72.1766 56.3443 72.3017C55.8094 72.7672 55.4988 72.6736 55.2738 71.9817C55.1374 71.5603 55.0696 71.0973 54.8677 70.7203C53.8481 68.8214 53.2516 66.7132 52.3969 64.7334C51.9854 63.7793 51.627 62.798 51.2109 61.8473C50.8271 60.968 50.3971 60.1135 49.9894 59.2462C49.6171 58.4538 49.2449 57.6614 48.8796 56.8639C48.7332 56.543 48.6068 56.2102 48.5051 55.9651C48.6245 55.3259 49.1239 55.3174 49.4175 55.0689C49.4738 54.502 49.2418 54.1616 48.8056 54.0254C47.9918 53.7734 47.2027 53.4347 46.3403 53.3632C45.2406 53.2721 44.1485 53.073 43.0503 52.9478C42.4646 52.8806 41.8743 52.867 41.2847 52.8406C41.2408 52.8389 41.1938 52.9283 41.1275 52.9955C41.4427 53.0993 41.7679 53.1513 42.0408 53.3113C42.3251 53.479 42.5594 53.7513 42.8423 54.0015C43.0557 53.8943 43.2476 53.7786 43.4511 53.6994C43.8888 53.5309 44.2487 53.6824 44.5261 54.0781C44.6387 54.239 44.7442 54.4084 44.8306 54.5871C45.2105 55.377 45.5858 56.1711 45.9565 56.966C46.5299 58.1951 47.0994 59.4266 47.6697 60.6582C47.8207 60.9842 47.9803 61.3068 48.112 61.6421C48.6692 63.061 49.1941 64.496 49.7805 65.8995C50.0726 66.6008 50.2175 67.2758 49.9693 68.0162C49.8753 68.2988 49.8645 68.5737 50.0626 68.8172C50.3608 69.184 50.3131 69.5525 50.0718 69.927C49.967 70.0896 49.873 70.2615 49.742 70.4845C50.219 71.4897 50.683 72.5017 51.1839 73.4899C51.2795 73.6771 51.5099 73.8644 51.6995 73.8967C53.0088 74.1154 54.3028 74.4823 55.6468 74.3827C56.7142 74.3035 57.6683 73.9665 58.459 73.0192ZM38.1821 57.6129C38.1505 57.4214 38.2445 57.1439 37.8052 57.1235C37.9824 57.3312 38.0927 57.4614 38.2029 57.5908C38.1952 58.1465 38.4564 58.5849 38.676 59.0598C39.2564 60.3203 40.2374 61.34 40.5133 62.7835C40.5272 62.8575 40.5711 62.9418 40.6251 62.9869C41.1221 63.4048 41.294 64.0406 41.5483 64.6236C41.5969 64.7351 41.7256 64.8041 41.8173 64.8926C41.8797 64.5862 41.8419 64.3572 41.7495 64.1589C41.0905 62.752 40.4386 61.34 39.7465 59.9526C39.3219 59.1015 38.8857 58.2444 38.1821 57.6129ZM52.4216 55.1046L52.2713 55.0544C52.3283 55.0629 52.3846 55.0706 52.4416 55.0791C52.6751 55.5361 52.9002 55.9983 53.1468 56.446C53.2431 56.6196 53.3926 56.7507 53.65 56.6C53.6824 56.1992 53.7178 55.7676 53.7541 55.314C53.304 55.0901 52.8516 55.1753 52.4216 55.1046ZM59.0424 61.0046C59.0308 60.8889 59.0346 60.7672 59 60.6599C58.9846 60.6114 58.8921 60.5935 58.8343 60.5612C58.8142 60.6625 58.7487 60.8046 58.7857 60.8548C58.8412 60.9306 58.9684 60.9417 59.0655 60.98C59.0817 61.3962 58.9699 61.8268 59.2119 62.4984C59.292 61.7953 59.2728 61.3859 59.0424 61.0046ZM56.8776 70.7373C56.9053 70.8054 56.9338 70.8743 56.9623 70.9433C56.9269 70.8811 56.8914 70.819 56.856 70.7569C56.8321 70.6394 56.8082 70.522 56.8429 70.6913C56.7365 70.562 56.8082 70.6488 56.8776 70.7373ZM45.8031 72.214C45.6182 72.1612 45.4332 72.1093 45.2483 72.0566C44.94 71.3688 44.3111 71.191 43.7524 70.8939C43.0079 70.499 42.6249 70.4854 41.6847 70.905C41.8342 71.0054 41.9475 71.0948 42.07 71.162C43.0773 71.7187 44.184 71.8319 45.2729 72.0336C45.4586 72.0872 45.6444 72.1408 45.8293 72.1944C45.8417 72.2166 45.854 72.2395 45.8671 72.2617C45.8471 72.2447 45.827 72.2276 45.8031 72.214ZM42.9108 60.1986C42.9571 60.3995 43.0033 60.6012 43.0496 60.8029C43.448 61.8481 43.8464 62.8933 44.2456 63.9376C44.4028 64.3487 44.4028 64.3487 44.9038 64.6126C44.5655 63.5036 44.147 62.4737 43.6568 61.4787C43.515 61.1885 43.3347 60.9348 43.038 60.8191C42.9894 60.6191 42.9417 60.4182 42.8939 60.2173C42.8222 60.0505 42.7505 59.8837 42.6789 59.716C42.6164 59.5381 42.5532 59.3603 42.4901 59.1815C42.4261 59.087 42.3652 58.9892 42.2966 58.8981C42.2766 58.8717 42.235 58.864 42.2034 58.8479C42.2034 58.9075 42.1826 59.0036 42.208 59.0215C42.2951 59.0828 42.3983 59.1185 42.4924 59.1696C42.5602 59.3441 42.6288 59.5177 42.6951 59.6956C42.6789 59.9092 42.7189 60.0931 42.9108 60.1986ZM45.7083 61.7953C45.6737 61.5732 45.639 61.3502 45.6043 61.1281C45.4132 60.9476 45.2213 60.7672 45.0325 60.5825C44.9847 60.3782 44.9369 60.1731 44.8891 59.9688C44.5778 59.036 44.5778 59.036 44.1508 58.584C44.1501 59.3509 44.2002 59.4411 44.903 59.9518C44.95 60.1561 44.9963 60.3595 45.0433 60.5629C45.1535 60.8429 45.3369 61.031 45.6058 61.1127C45.6436 61.334 45.6814 61.5562 45.7191 61.7783C45.7315 61.8073 45.7392 61.8396 45.7569 61.8634C45.77 61.8822 45.7947 61.8898 45.8139 61.9026C45.7785 61.8677 45.7423 61.8336 45.7083 61.7953ZM17.0859 40.7392C17.0582 41.347 17.0836 41.9649 16.9904 42.5607C16.8085 43.7225 17.2231 44.5472 18.067 45.1634C18.5903 45.5456 19.1413 45.8818 19.6623 46.2665C20.3358 46.7635 20.9924 47.2887 21.6714 47.8138C21.8309 47.7321 21.9912 47.6496 22.15 47.5679C22.8628 48.219 22.8628 48.2368 23.8169 48.2292C24.4427 48.2241 25.0708 48.1849 25.6935 48.1117C26.3585 48.0334 26.9789 48.15 27.4197 48.7101C27.9261 49.3535 28.548 49.1935 29.1614 49.151C29.2855 49.1424 29.4389 49.019 29.5129 48.899C29.7294 48.545 30.0246 48.4692 30.3791 48.5007C31.6291 48.6113 32.8783 48.7237 34.1291 48.819C35.1233 48.8956 36.119 48.9543 37.1139 49.0122C37.9246 49.0582 38.7354 49.1203 39.5469 49.1229C40.9117 49.128 42.2766 49.0829 43.6422 49.0744C44.3782 49.0701 45.1157 49.0956 45.8517 49.111C46.2578 49.1195 46.664 49.1314 47.0701 49.1476C47.5495 49.168 48.0365 49.1433 48.5066 49.2284C49.8245 49.4676 51.15 49.5152 52.4802 49.5323C53.3464 49.5433 54.1695 49.7425 54.8592 50.3749C54.937 50.4464 54.9887 50.5545 55.0603 50.6566C54.8045 50.9537 54.5409 50.757 54.3482 50.6583C53.825 50.3894 53.2986 50.3536 52.7329 50.3902C51.291 50.4821 49.8638 50.334 48.4334 50.0898C47.5279 49.9357 46.5923 49.9553 45.6706 49.9655C43.9358 49.9859 42.198 49.928 40.4701 50.1706C40.1804 50.2115 39.8806 50.1578 39.5854 50.1527C39.1831 50.1459 38.7809 50.1442 38.3778 50.1408C38.0464 50.1374 37.7127 50.1612 37.3836 50.1281C36.1352 50.0004 34.8844 49.8812 33.6413 49.7008C33.2236 49.6404 32.9477 49.8804 32.5847 50.0787C32.137 49.734 31.6669 49.7016 31.1467 49.9885C30.9078 50.1195 30.5849 50.0668 30.3105 50.0957C30.282 50.4762 30.4816 50.5851 30.7074 50.6064C31.0234 50.6353 31.2908 50.7553 31.4688 51.0379C31.8526 51.649 32.4591 51.7282 33.034 51.7912C33.6012 51.8533 34.1307 51.615 34.5407 51.1588C34.8374 50.8302 35.1611 50.5681 35.5795 50.5077C35.83 50.4719 36.1236 50.4191 36.3355 50.5264C36.8003 50.7604 37.2495 50.7885 37.7335 50.6736C38.2075 50.5613 38.646 50.7255 38.9396 51.1179C39.486 51.8482 40.1688 52.0737 40.9888 52.0184C41.4281 51.9895 41.872 52.0286 42.3128 52.0601C43.3031 52.1308 44.2957 52.1801 45.2814 52.3035C46.1954 52.4184 47.104 52.6031 48.0103 52.787C48.3548 52.8568 48.6453 52.81 48.9675 52.6483C49.8075 52.2269 50.0711 52.295 50.6992 53.0466C50.9072 53.296 51.1207 53.4841 51.4267 53.5598C52.6836 53.873 53.9067 54.3224 55.2176 54.4092C56.2826 54.479 57.3184 54.8586 58.3156 55.2927C58.6771 55.451 58.9853 55.76 59.3028 55.9898C59.6512 55.9123 59.4338 55.5489 59.6265 55.3531C59.6974 55.3531 59.8377 55.3038 59.9047 55.3608C60.455 55.8306 60.9952 56.3166 61.5301 56.8077C61.6102 56.8818 61.6726 57.0043 61.7019 57.1167C62.1096 58.7177 62.683 60.2769 62.5966 61.9962C62.5458 63.0142 62.5635 64.0338 62.3208 65.0313C62.2545 65.3045 62.2236 65.5956 62.2206 65.8782C62.2067 67.4902 61.7975 69.018 61.3952 70.5415C61.231 71.1612 60.9883 71.7774 60.6762 72.3221C60.428 72.7553 60.0257 73.0847 59.6812 73.4473C58.7757 74.4014 57.7369 74.9768 56.4498 75.073C55.4888 75.1436 54.544 75.1811 53.5845 75.0619C52.7075 74.9521 51.8205 74.9223 50.9373 74.8866C50.5974 74.8729 50.2815 74.8338 49.9863 74.6304C49.2811 74.1452 48.4673 73.975 47.6789 73.8184C46.7326 73.6303 45.8139 73.3715 44.8991 73.0549C44.3381 72.8609 43.7416 72.7919 43.1744 72.6149C42.2165 72.3153 41.2585 72.0097 40.3222 71.6387C39.6887 71.3876 39.0452 71.2446 38.3855 71.1475C37.1047 70.9586 35.8161 70.8165 34.5461 70.5603C33.5719 70.3637 32.5816 70.1526 31.737 69.5049C31.4203 69.2614 31.0981 69.1551 30.6989 69.2853C30.4222 69.3755 30.1648 69.1678 30.0762 68.8904C29.7695 67.9328 29.2123 67.0962 29.0597 66.0586C28.8748 64.7964 28.316 63.6653 27.7897 62.5511C26.7354 60.3212 26.1481 57.9295 25.6272 55.5097C25.4823 54.8382 25.4284 54.1403 25.3744 53.4509C25.3436 53.0534 25.3968 52.6491 25.4129 52.2303C25.7998 52.0422 26.1304 51.8814 26.4965 51.7026C26.6198 51.4413 26.7223 51.1239 26.9011 50.8745C27.076 50.6302 27.3296 50.4549 27.5531 50.2455C27.1916 49.2429 26.4834 49.0122 25.591 49.139C24.8596 49.2437 24.1228 49.3808 23.3899 49.3723C22.4405 49.3629 21.4471 49.4157 20.671 48.4445C20.6687 49.3195 20.698 49.5655 20.9847 50.0634C21.9997 51.8312 22.6524 53.776 23.3607 55.7047C24.0396 57.5525 24.519 59.4913 25.3821 61.2549C25.6973 61.8983 26.0349 62.5324 26.404 63.1401C26.6028 63.467 26.8903 63.7283 27.1808 64.0696C27.1099 64.1479 27.0159 64.2611 26.9134 64.3632C26.8325 64.4432 26.7416 64.5104 26.6052 64.6245C26.6552 64.8373 26.6853 65.0756 26.7655 65.2901C27.2849 66.6842 27.8459 68.0605 28.3345 69.4683C28.7692 70.7211 29.5113 71.625 30.6134 72.1536C31.4596 72.5596 32.3227 72.9247 33.1874 73.2839C33.4602 73.3971 33.7561 73.4592 34.0474 73.4984C36.2438 73.7937 38.4395 74.0652 40.5842 74.7274C42.0107 75.1674 43.5004 75.2091 44.9716 75.3402C46.039 75.4347 47.1056 75.5292 48.1729 75.6236C48.3571 75.6398 48.5405 75.6611 48.7255 75.6687C50.2368 75.7343 51.748 75.8143 53.2608 75.8568C54.813 75.9003 56.3473 76.142 57.8894 76.3079C58.4628 76.3692 59.047 76.3182 59.6913 76.3182C59.0524 76.8186 58.7503 76.9829 58.1507 76.9718C56.0892 76.9335 54.0207 77.1557 51.9654 76.7599C51.4621 76.6629 50.9304 76.6799 50.4179 76.725C49.1224 76.8382 47.8439 76.6927 46.5638 76.5088C46.2709 76.4663 45.9773 76.4263 45.6829 76.4033C44.4699 76.3088 43.2461 76.3011 42.0462 76.1096C40.8809 75.9232 39.7419 75.5445 38.5882 75.2636C38.1219 75.1496 37.6511 75.0534 37.1786 74.9793C36.0103 74.798 34.8343 74.6704 33.6714 74.4525C32.2695 74.1895 31.0087 73.4839 29.7803 72.7341C28.9919 72.2532 28.3846 71.5195 27.9669 70.6369C27.6602 69.9892 27.4213 69.3014 27.17 68.6239C26.582 67.04 26.0981 65.3982 25.396 63.8789C24.6908 62.3511 24.0273 60.8106 23.447 59.2241C23.1009 58.2793 22.7449 57.3371 22.4521 56.3728C21.9581 54.7437 21.3377 53.1768 20.6456 51.6422C20.3011 50.8762 19.925 50.1298 19.7308 49.288C19.6507 48.9416 19.458 48.6267 19.2931 48.2445C18.6234 48.5654 18.2974 49.2395 17.8188 49.711C17.3256 50.1978 16.9025 50.7707 16.4293 51.283C16.0455 51.6984 15.708 51.6218 15.2163 51.0056C15.7889 50.3851 16.3715 49.7672 16.9395 49.1331C17.3795 48.6411 17.8181 48.1441 18.2257 47.6189C18.5394 47.2155 18.4847 46.8699 18.1009 46.5865C17.6192 46.2307 17.1252 45.8937 16.5603 45.4945C16.4 46.1218 16.2582 46.6648 16.1249 47.2095C16.0378 47.5636 16.0016 47.9381 15.8783 48.2743C15.2564 49.9646 14.7678 51.7248 13.6572 53.1521C13.0839 53.8892 12.3402 54.3326 11.5872 54.7505C10.9954 55.0782 10.3727 54.8986 9.97348 54.3956C9.91413 54.3207 9.89178 54.1505 9.92646 54.0594C9.96037 53.9692 10.0875 53.8696 10.1762 53.8671C10.3573 53.862 10.5399 53.9505 10.7202 53.9428C10.9337 53.9343 11.1726 53.9215 11.3537 53.8134C12.67 53.027 13.6549 51.9282 14.0272 50.2651C14.0888 49.9902 14.1905 49.7221 14.3077 49.4693C15.093 47.773 15.3789 45.9226 15.6718 44.0765C15.7064 43.8552 15.6602 43.5778 15.5646 43.3769C14.8918 41.9555 14.6422 40.3682 14.0927 38.8974C13.6287 37.6556 13.2796 36.3619 12.8588 35.0997C12.7402 34.7439 12.6577 34.4034 12.7494 34.0315L12.7247 34.0587C13.2087 34.1915 13.6133 34.4154 13.7852 34.9958C13.9347 35.5005 14.3023 35.7686 14.7362 35.9448C15.6448 36.3134 16.2844 37.0028 16.7476 37.9348C16.9765 38.3961 17.3079 38.7936 17.5568 39.2447C18.0369 40.112 18.514 40.9844 18.9486 41.8806C19.1999 42.3989 19.5104 42.8152 19.9543 43.1454C21.0533 43.9625 22.2671 44.3965 23.5703 44.5498C24.3772 44.6451 25.1864 44.7319 25.9963 44.7685C26.5843 44.7957 27.1824 44.7915 27.7635 44.703C28.9164 44.5268 30.0539 44.7004 31.1829 44.8613C32.7543 45.086 34.2994 45.4715 35.83 45.9584C37.5062 46.4912 39.2302 46.6878 40.9772 46.3533C41.667 46.2214 42.3621 46.1252 43.0573 46.0282C43.2738 45.9984 43.5027 45.9822 43.7131 46.0316C43.8264 46.058 43.9428 46.2197 43.9967 46.3516C44.0283 46.4299 43.9713 46.618 43.9019 46.6691C43.6923 46.8223 43.4657 47.0155 43.2299 47.0461C41.9121 47.2163 40.5919 47.4172 39.2679 47.4657C37.7173 47.5219 36.1937 47.2487 34.7056 46.7108C32.2903 45.8375 29.808 45.5898 27.2795 45.8733C26.9543 45.9099 26.6213 45.915 26.2953 45.8877C25.2642 45.8018 24.2331 45.7141 23.2065 45.5881C22.5861 45.5115 21.9742 45.3515 21.3554 45.2477C20.3612 45.0817 19.6068 44.4229 18.8608 43.7616C18.3282 43.2884 18.0362 42.6202 17.8204 41.9172C17.6755 41.4457 17.5214 40.9912 17.0774 40.758C17.0867 40.689 17.0936 40.6226 17.0975 40.586C17.0952 40.6175 17.0905 40.678 17.0859 40.7392Z" fill="black"/>
<path d="M3.80012 23.6656C3.58048 23.8052 3.35699 23.9558 3.66063 24.1788C3.70995 23.9975 3.75465 23.8315 3.80012 23.6656ZM11.2185 43.8714C11.2416 43.8705 11.2655 43.8688 11.2887 43.868V43.3403C11.2655 43.3403 11.2416 43.3411 11.2185 43.3411V43.8714ZM3.31075 41.8517C3.39013 41.8917 3.42404 41.924 3.4487 41.9172C3.4749 41.9104 3.51343 41.861 3.50958 41.838C3.46565 41.564 3.41864 41.2908 3.36393 41.0201C3.35622 40.9844 3.30304 40.9605 3.21519 40.8805C3.25295 41.2635 3.28301 41.5725 3.31075 41.8517ZM2.10004 30.6184C2.64181 30.4346 2.71734 30.3359 2.62486 29.9861C2.6002 29.895 2.49539 29.7826 2.41601 29.7699C2.34048 29.758 2.19714 29.8448 2.17556 29.9205C2.12547 30.0976 2.13009 30.2942 2.10004 30.6184ZM9.31884 48.1951C9.00287 48.5662 8.76473 48.7356 8.69075 48.9688C8.62987 49.1603 8.73545 49.4412 8.82099 49.6574C8.92965 49.934 9.17704 49.917 9.39668 49.8616C9.62017 49.8055 9.77892 49.5382 9.71496 49.3016C9.6325 49.0011 9.50765 48.7143 9.31884 48.1951ZM6.23773 46.3746V46.2571C6.23696 46.2528 6.24158 46.3039 6.2462 46.355C6.27934 46.7159 6.2963 47.0793 6.3487 47.4368C6.41421 47.8802 6.58838 48.2513 7.16021 48.5364C6.97679 47.6198 6.60919 46.9976 6.23773 46.3746ZM6.67624 35.3465C6.68471 35.2741 6.70475 35.1992 6.69627 35.1294C6.69088 35.0869 6.64156 35.0503 6.61227 35.012C6.61689 35.0477 6.61689 35.0852 6.62614 35.1201C6.64464 35.1899 6.66853 35.2588 6.69011 35.3286C6.7587 35.6971 6.68702 36.1201 7.07775 36.5023C7.13478 35.9448 7.17408 35.5354 6.67624 35.3465ZM5.89864 44.514C5.88939 44.6536 5.88014 44.794 5.87166 44.9336C5.91636 44.9259 5.96106 44.9183 6.00653 44.9098C5.96568 44.7838 5.92407 44.6578 5.88322 44.5319C5.86858 44.4595 5.85702 44.3872 5.83698 44.3174C5.82696 44.285 5.79922 44.2595 5.77918 44.2306C5.76531 44.2842 5.72601 44.3591 5.7445 44.388C5.77841 44.4425 5.847 44.4714 5.89864 44.514ZM1.8411 38.9782C1.84418 39.2591 1.91045 39.5842 1.539 39.6498C1.20453 39.7077 1.11205 39.9707 1.13594 40.2686C1.17833 40.7946 1.2369 41.3231 1.34325 41.8363C1.60681 43.1071 1.88656 44.3736 2.18712 45.6332C2.47073 46.8231 2.89382 47.9628 3.51343 48.9816C4.58311 50.7409 5.68747 52.4755 6.82728 54.1794C7.19335 54.7267 7.70199 55.1633 8.17363 55.6153C8.58131 56.0051 8.84488 56.4545 8.89883 57.0111C8.74932 57.2358 8.60289 57.1771 8.47959 57.0911C7.21955 56.2051 6.16143 55.085 5.30368 53.7317C4.50065 52.4652 3.66294 51.2243 2.87764 49.9442C2.14705 48.7526 1.66384 47.4249 1.34171 46.0358C1.00261 44.5761 0.712074 43.1028 0.410745 41.6321C0.346009 41.3163 0.309017 40.9895 0.289751 40.666C0.194959 39.0812 0.121746 37.4956 0.0177066 35.9116C-0.0339278 35.1252 0.0153946 34.3634 0.326743 33.6476C0.624218 32.9633 0.588768 32.2152 0.677394 31.496C0.866977 29.9597 1.05733 28.4276 1.43958 26.9322C1.54978 26.4998 1.66384 26.0811 1.92587 25.7134C2.41524 25.0282 2.72196 24.2077 2.82061 23.3736C2.89922 22.7123 3.25141 22.2723 3.48492 21.7369C3.53039 21.6322 3.61824 21.5122 3.71149 21.4773C4.18853 21.2986 4.58389 20.8551 5.13953 20.93L5.11102 20.896C5.33991 21.6824 5.72832 22.3736 6.19842 23.0025C7.03768 24.1235 7.56404 25.3934 7.87847 26.8037C8.30079 28.6966 8.76627 30.5776 9.25564 32.4501C9.61477 33.8221 10.1149 35.1328 10.8586 36.3185C11.4805 37.31 11.7865 38.4225 11.916 39.6208C12.1849 42.1044 12.1988 44.5702 11.7356 47.0299C11.6085 47.7057 11.536 48.3943 11.4474 49.0777C11.3056 50.1757 11.0628 50.4676 10.1327 50.7638C9.18551 51.0668 8.34934 50.9111 7.51009 50.3051C6.4566 49.5459 5.76608 48.4505 5.04243 47.3755C4.91681 47.1891 4.88753 46.9244 4.81431 46.6963C4.56847 45.9269 4.29951 45.1957 3.70456 44.628C3.3855 44.3242 3.19823 43.8373 2.9917 43.4084C2.78593 42.982 2.61561 42.5317 2.45994 42.0798C2.37054 41.8185 2.31505 41.535 2.2927 41.2567C2.25494 40.7707 2.25494 40.2805 2.23953 39.7928C2.22951 39.4438 2.13086 39.1544 1.82029 39.0004C1.77251 38.1535 1.85034 37.2862 1.47888 36.3823C1.25385 37.3883 1.13902 38.259 1.8411 38.9782Z" fill="black"/>
<path d="M5.11138 20.8969L5.1399 20.9301C5.02738 20.7718 4.8771 20.6305 4.80774 20.4509C4.40391 19.4006 4.01935 18.3418 3.62863 17.2847C3.45523 16.8175 3.5215 16.4132 3.8737 16.0693C4.01088 15.9348 4.11723 15.7621 4.24824 15.6199C4.80851 15.0114 5.02584 14.9977 5.66164 15.511C5.77955 15.6063 5.90054 15.6965 6.02385 15.791C6.68353 15.6225 7.33012 15.4633 7.97285 15.2897C8.15088 15.2412 8.3289 15.1705 8.48997 15.0752C9.81936 14.287 11.138 13.4785 12.472 12.7022C13.1902 12.2852 13.9378 11.9311 14.663 11.5277C15.2872 11.1796 15.8953 10.7949 16.5172 10.4408C16.9426 10.1974 17.3649 9.93266 17.8142 9.75733C18.6273 9.43901 19.4634 9.31985 20.3112 9.62711C20.6965 9.76755 21.0865 9.89607 21.4718 10.0357C22.4659 10.3974 23.0848 11.166 23.3537 12.2588C23.4878 12.8052 23.5742 13.3789 23.595 13.944C23.6335 14.962 23.6111 15.9825 23.6027 17.0021C23.6019 17.1571 23.541 17.312 23.514 17.4413C23.1703 17.6354 22.98 17.4388 22.8459 17.1809C22.5839 16.6762 22.4736 16.1187 22.4575 15.5399C22.4444 15.0505 22.4382 14.5611 22.439 14.0717C22.4397 13.3653 22.2517 12.7056 22.0513 12.0477C21.8872 11.5107 21.5774 11.1149 21.0895 10.9447C20.527 10.7497 19.9567 10.5634 19.3771 10.4519C18.8176 10.3446 18.2889 10.5421 17.7849 10.8349C16.6752 11.4792 15.5724 12.1439 14.4333 12.7176C13.7567 13.058 13.1093 13.4317 12.4997 13.8947C12.445 13.9364 12.4142 14.0155 12.3525 14.1049C12.6261 14.3083 12.8635 14.5509 13.2149 14.2258C13.4353 14.0232 13.7027 14.0675 13.944 14.2215C14.6191 14.653 15.3234 15.0828 15.5593 15.9757C15.8413 17.0464 15.9708 18.1427 15.5192 19.2057C15.4313 19.4134 15.2425 19.6951 15.0791 19.713C14.6861 19.7564 14.4125 20.0466 14.0649 20.1641C13.5925 20.3241 13.2619 20.0773 13.2527 19.5113C13.2434 18.941 13.2419 18.3682 13.2827 17.8005C13.3737 16.5179 13.0176 15.4761 12.0312 14.7364C11.9125 14.6479 11.8146 14.5237 11.6944 14.4028C10.9584 14.6335 10.3319 15.0718 9.72072 15.5084C9.24136 15.8497 8.75199 16.0829 8.19635 16.1842C7.65457 16.2829 7.12667 16.4395 6.54636 16.7111C6.79836 17.312 6.99565 17.8805 7.26461 18.4048C7.92353 19.6892 8.45144 21.022 8.76355 22.4655C8.95237 23.3363 9.26834 24.1618 9.61822 24.9772C10.3596 26.705 10.99 28.4864 11.548 30.2976C11.5826 30.4091 11.6528 30.5062 11.7491 30.6951C11.8955 30.5291 12.0312 30.41 12.1275 30.2593C12.4905 29.6942 12.8211 29.1027 13.201 28.5528C13.5131 28.1009 13.8468 27.6557 14.2268 27.2761C14.8556 26.6497 15.5292 26.0777 16.185 25.4845C16.2706 25.4071 16.3808 25.3551 16.4486 25.2632C17.0597 24.4325 17.9553 24.1159 18.7876 23.6946C19.3902 23.389 20.0291 23.172 20.6372 22.88C21.4464 22.4902 22.2317 22.0374 23.047 21.6629C24.4049 21.0399 25.8137 20.8373 27.271 21.1633C27.8475 21.2927 28.427 21.3999 28.9911 21.514C30.1818 20.3888 31.3316 19.3087 32.473 18.2184C33.0294 17.6873 33.5627 17.1273 34.1222 16.5996C34.3442 16.3893 34.5939 16.2012 34.8551 16.0574C36.2076 15.3101 37.5679 14.5798 38.9258 13.8445C38.9913 13.8087 39.0606 13.7755 39.1315 13.7568C40.9118 13.2853 42.4708 12.2486 44.1054 11.4043C44.8737 11.0068 45.659 10.6357 46.4644 10.348C47.7267 9.89607 49.0006 9.4688 50.2907 9.13175C52.0132 8.68065 53.7502 8.32233 55.5428 8.35552C56.7211 8.37765 57.9018 8.25168 59.0817 8.18615C59.3815 8.16998 59.6905 8.14614 59.9094 8.40744C59.9757 8.48574 59.9703 8.77938 59.9117 8.82024C59.7321 8.94195 59.5133 9.04068 59.3044 9.0543C57.7569 9.15729 56.2079 9.23729 54.6596 9.32411C54.4014 9.33858 54.1379 9.31389 53.8866 9.36581C51.9669 9.76499 50.0302 10.0663 48.1645 10.7591C46.3079 11.4477 44.4468 12.1013 42.7475 13.2172C42.2435 13.5474 41.6778 13.7713 41.1275 14.0062C39.3727 14.756 37.6295 15.5297 35.9649 16.5127C35.1117 17.0175 34.3241 17.6005 33.6213 18.335C32.4699 19.5394 31.2939 20.7148 30.1502 21.9285C29.7009 22.406 29.2293 22.5328 28.6351 22.3566C28.1388 22.2094 27.6178 22.1634 27.1177 22.0315C25.5602 21.6221 24.119 22.0085 22.7264 22.7677C21.8001 23.2733 20.8676 23.7525 19.885 24.1261C18.8369 24.5236 17.845 25.0692 17.005 25.9084C16.5395 26.3722 16.0255 26.7757 15.54 27.2148C14.5281 28.1307 13.6912 29.2133 13.127 30.5189C12.8804 31.09 12.4643 31.3624 11.9741 31.5794C11.8169 32.2033 12.0366 32.7166 12.2762 33.2204C12.4126 33.5081 12.5745 33.7813 12.7248 34.0596L12.7502 34.0315C11.8077 34.0307 11.3738 33.4119 11.1734 32.4782C10.7896 30.6917 10.2956 28.9435 9.59587 27.2736C9.44097 26.9059 9.25061 26.5561 9.06719 26.2046C8.55008 25.2121 8.10387 24.2104 7.97208 23.0367C7.89193 22.3243 7.61912 21.6246 7.35941 20.9539C6.92321 19.8313 6.44694 18.7265 5.94755 17.6362C5.75103 17.2081 5.45895 16.8277 5.1792 16.4532C5.11138 16.3629 4.89483 16.3195 4.79387 16.3698C4.68443 16.4242 4.59427 16.6038 4.56267 16.7468C4.52953 16.8949 4.54957 17.0753 4.5935 17.2243C4.77769 17.8439 4.95956 18.4652 5.1792 19.0695C5.46897 19.8662 5.7965 20.6382 6.44232 21.188C6.59799 21.3208 6.6712 21.571 6.81378 21.8221C6.63113 21.874 6.52324 21.9464 6.44001 21.9208C5.89129 21.7532 5.42581 21.4408 5.11138 20.8969Z" fill="black"/>
<path d="M70.06 2.56615C69.6246 2.61381 69.3787 2.68616 69.1429 2.65722C68.7406 2.60871 68.3376 2.52445 67.9468 2.40869C66.8355 2.08101 65.705 1.91759 64.5598 1.8529C64.5235 1.8512 64.4865 1.84099 64.4503 1.84099C62.9036 1.81716 61.3577 1.79332 59.8117 1.77715C59.7624 1.7763 59.7115 1.85971 59.5882 1.96866C59.925 2.10654 60.2279 2.20357 60.5061 2.35592C60.6209 2.41891 60.7226 2.58998 60.755 2.73297C60.7858 2.86745 60.7172 3.03002 60.6795 3.26408C60.3835 3.1696 60.1531 3.07342 59.9142 3.02236C58.4299 2.70574 56.9448 2.38997 55.4567 2.09803C55.1361 2.03505 54.7985 2.08952 54.4718 2.05632C52.9667 1.90227 51.4639 1.70651 49.9565 1.58565C48.9939 1.5082 48.0421 1.66566 47.1289 2.041C46.2635 2.39592 45.4003 2.75425 44.5325 3.10066C43.7272 3.42239 42.8918 3.54154 42.0371 3.56963C40.1506 3.63176 38.2948 3.89476 36.5123 4.64461C35.8279 4.93229 35.0719 5.03783 34.416 5.38254C32.8994 6.1809 31.2848 6.58008 29.6711 7.01415C28.2754 7.3895 26.8913 7.82017 25.5026 8.22616C25.4671 8.23638 25.4324 8.2517 25.397 8.26191C25.0147 8.37171 24.6433 8.25084 24.6471 8.00657C24.6517 7.65676 24.9099 7.54526 25.1473 7.43546C25.8956 7.09161 26.6532 6.80137 27.4546 6.61412C29.006 6.25239 30.5419 5.81066 32.0817 5.3885C32.3661 5.31019 32.642 5.18167 32.9102 5.04634C35.1058 3.93902 37.4224 3.26237 39.7799 2.76617C40.6808 2.57722 41.6156 2.57041 42.5365 2.51338C43.3958 2.46061 44.2073 2.21719 45.0104 1.89631C45.8427 1.56352 46.6727 1.21371 47.5235 0.952409C48.7157 0.587275 49.9418 0.631534 51.1533 0.818782C52.5497 1.03412 53.9385 1.1337 55.3411 0.893681C55.7364 0.825591 56.1487 0.868999 56.5533 0.870701C57.2909 0.874105 58.0299 0.917513 58.7659 0.886021C61.3106 0.777928 63.8546 0.611957 66.4001 0.5311C68.0971 0.477479 69.7972 0.530249 71.4957 0.537909C71.6799 0.53876 71.8687 0.532802 72.0483 0.571103C73.3199 0.842613 74.5422 0.577912 75.7613 0.197457C76.1459 0.0765968 76.5582 -0.0136226 76.9543 0.00169775C77.9516 0.0408497 78.659 0.728562 79.2779 1.48947C79.6994 2.00696 79.6632 2.45635 79.2501 3.02661C78.723 3.75518 78.1535 4.44715 77.6194 5.16976C77.3181 5.57745 77.0507 6.01493 76.7686 6.43964C76.747 6.47284 76.7324 6.51454 76.7054 6.53922C75.5332 7.60569 74.8897 9.21177 73.6382 10.194C73.2798 10.4748 72.9276 10.7761 72.5392 10.9949C71.9789 11.3107 71.3979 11.2877 70.843 10.9285C69.7471 10.2195 68.5618 9.84416 67.3133 9.5701C65.8368 9.24667 64.3278 9.05686 62.9021 8.45341C62.3942 8.23808 61.8362 8.11722 61.2698 8.2551C61.1295 8.28915 60.9646 8.29936 60.8336 8.24829C60.7088 8.19978 60.5508 8.07381 60.5253 7.9521C60.5038 7.84911 60.624 7.64995 60.7288 7.58611C61.1326 7.34014 61.5758 7.29843 62.0166 7.43802C64.3255 8.16914 66.7199 8.46788 69.0396 9.13942C69.4982 9.2722 69.9336 9.51137 70.3706 9.7233C70.6064 9.83735 70.8253 9.99481 71.0495 10.1352C71.4865 10.4102 71.9165 10.3821 72.2803 10.0135C72.9037 9.38029 73.5318 8.74705 74.099 8.05509C74.9899 6.96819 75.8361 5.83619 76.6946 4.71781C77.147 4.12797 77.5817 3.52112 78.0317 2.92958C78.3169 2.55509 78.4433 2.13633 78.2452 1.68693C78.0294 1.19668 77.7188 0.774523 77.1663 0.766012C76.915 0.762607 76.6461 0.805164 76.4133 0.906448C74.892 1.57288 73.3245 1.6265 71.7277 1.395C71.4749 1.3584 71.2114 1.35329 70.9578 1.38393C70.1825 1.4767 69.4126 1.49883 68.6404 1.34818C68.4817 1.31754 68.3067 1.38478 67.9622 1.43074C68.6212 2.02824 69.3641 1.92865 70.06 2.56615Z" fill="black"/>
<path d="M66.8061 71.586C66.504 71.3826 66.2636 71.2208 66.0062 71.0481C65.9183 71.0744 65.8081 71.0949 65.7087 71.1417C65.0105 71.4677 64.5751 72.169 63.9662 72.6244C62.9027 73.421 62.24 74.6092 61.4947 75.7182C61.3652 75.9097 61.215 76.0919 61.047 76.2408C60.9822 76.2978 60.8188 76.2885 60.7402 76.2365C60.6601 76.1838 60.5661 76.0229 60.5861 75.9421C60.6616 75.6348 60.7171 75.2816 60.8944 75.0535C61.6327 74.0994 62.2137 73.0005 63.164 72.2379C63.8167 71.7145 64.3531 71.0166 64.9897 70.4642C65.654 69.8871 66.3591 69.3628 67.0766 68.8683C67.8881 68.3083 68.7336 67.8078 69.6391 67.2333C69.8449 67.3014 70.1208 67.3916 70.4614 67.5031C71.2159 67.0333 72.0543 66.623 72.6709 65.8213C72.9067 65.514 73.1949 65.234 73.5055 65.0238C74.2338 64.5284 74.8488 63.8884 75.4938 63.2789C76.1358 62.6712 76.8448 62.1495 77.5176 61.5809C77.8389 61.3103 78.1572 61.032 78.4586 60.7341C79.4743 59.7272 80.5632 58.8343 81.7223 58.0326C82.8436 57.2572 83.9256 56.4103 85.0061 55.5669C85.8276 54.926 86.6646 54.3472 87.698 54.2493C87.9161 54.2289 88.1404 54.211 88.3562 54.2408C89.1607 54.3514 89.9615 54.4919 90.766 54.6017C91.1414 54.6528 91.462 54.8255 91.7972 55.006C92.5062 55.3881 92.8692 55.2783 93.2946 54.5515C93.7315 53.8042 94.1169 53.0203 94.56 52.187C93.8287 51.6559 93.0911 51.278 92.2164 51.2167C91.2716 51.1495 90.7437 50.8661 89.8852 50.0771C90.3576 50.1035 90.746 50.1307 91.1344 50.146C91.5036 50.1605 91.8727 50.1579 92.2411 50.1724C92.4993 50.1818 92.7582 50.1996 93.0148 50.226C93.4287 50.2694 93.7223 50.1196 93.8965 49.6736C94.2841 48.6812 94.9407 47.9127 95.6374 47.1756C95.8725 46.9279 96.0505 46.6147 96.2647 46.3406C96.4073 46.1593 96.5529 45.9738 96.724 45.8282C96.9236 45.658 97.2866 45.6793 97.3174 45.8529C97.349 46.0308 97.3367 46.2759 97.2458 46.4138C96.7048 47.2369 96.1568 48.0582 95.5673 48.8387C95.1419 49.4021 94.7604 49.9911 94.3997 50.5639C94.5138 51.0882 94.7935 51.2908 95.2474 51.3495C95.4825 51.0559 95.7584 50.781 95.9572 50.4499C97.3298 48.168 99.231 46.6147 101.463 45.5014C101.898 45.2844 102.302 44.9899 102.738 44.7737C103.271 44.509 103.802 44.1694 104.426 44.4043C104.487 44.4273 104.571 44.509 104.572 44.5643C104.575 44.6741 104.558 44.8426 104.492 44.8869C104.06 45.1822 103.622 45.4742 103.168 45.7244C101.92 46.4121 100.728 47.2037 99.5431 48.0105C99.3589 48.1365 99.2156 48.3365 99.0553 48.505C98.038 49.5732 97.2388 50.8499 96.3133 52.0049C95.6243 52.8662 95.0663 53.7676 94.6872 54.8477C94.4814 55.4332 94.0429 55.9294 93.6707 56.4308C93.4233 56.7644 93.0541 56.7908 92.6588 56.578C92.228 56.3465 91.8049 56.098 91.3772 55.8597C90.8708 55.5788 90.3376 55.486 89.7696 55.4971C89.3326 55.5047 88.8764 55.4681 88.4594 55.3345C87.8791 55.1481 87.369 55.2315 86.8765 55.5771C86.5667 55.7941 86.2484 56.0026 85.9633 56.2554C84.956 57.1466 83.8871 57.9219 82.7673 58.636C81.9435 59.1603 81.2268 59.8889 80.463 60.5289C79.7617 61.1162 79.072 61.7197 78.3576 62.2865C78.0555 62.5257 77.7565 62.7461 77.5445 63.0977C77.4459 63.2619 77.2964 63.4262 77.1361 63.5019C76.4032 63.8449 75.9069 64.525 75.2904 65.0314C74.9382 65.3208 74.5582 65.5702 74.2076 65.863C73.8569 66.1549 73.5356 66.4886 73.1872 66.7848C72.2293 67.6001 71.2721 68.39 70.0999 68.847C69.0935 69.2386 68.1895 69.9033 67.3471 70.6336C67.1337 70.8183 67.0366 71.1672 66.8061 71.586Z" fill="black"/>
<path d="M77.8516 53.9183C77.6281 53.3404 77.1403 53.2102 76.6 53.1889C76.3419 53.1787 76.0829 53.1693 75.8263 53.1395C74.6087 52.9957 73.9012 52.2858 73.6322 50.9504C73.5844 50.7121 73.5667 50.4551 73.4704 50.2423C73.2654 49.7886 73.1806 49.3282 73.2384 48.8243C73.25 48.7222 73.1698 48.6073 73.1166 48.4515C72.0208 48.6473 70.9526 48.8984 69.8968 49.255C68.5389 49.7137 67.3035 50.41 66.1822 51.3658C66.0366 51.49 65.8925 51.6594 65.7268 51.6986C65.5372 51.7445 65.3237 51.6679 65.0324 51.6347C65.1773 51.2534 65.2844 50.9709 65.4239 50.6049C65.1626 50.4798 64.9407 50.284 64.7187 50.284C63.8548 50.2823 63.0657 49.9367 62.2434 49.7367C61.3486 49.5188 60.4215 49.4575 59.5091 49.329C59.2177 49.2882 58.9195 49.2805 58.6359 49.2048C57.9508 49.0226 57.2657 48.8771 56.5566 48.9077C56.374 48.9154 56.179 48.9043 56.0087 48.8405C54.8219 48.3919 53.6112 48.4498 52.392 48.5877C52.1392 48.6166 51.8764 48.5902 51.6252 48.5443C51.5049 48.523 51.4001 48.397 51.1666 48.2319C52.3226 47.8591 53.3468 47.5868 54.4165 47.7127C55.8839 47.8864 57.3473 48.0949 58.8124 48.2949C59.6547 48.4098 60.4924 48.5766 61.3371 48.6481C62.49 48.7469 63.5905 49.0694 64.6771 49.4695C64.9869 49.5835 65.3067 49.7163 65.5695 49.9214C65.9603 50.2261 66.3048 50.2091 66.6955 49.9495C67.6519 49.3154 68.6977 48.9094 69.7542 48.5366C70.1057 48.4124 70.4579 48.2719 70.8201 48.2081C72.1217 47.9766 73.2793 47.3408 74.3967 46.6267C75.2028 46.1109 76.0421 45.6887 76.9291 45.4155C78.3271 44.9849 79.6157 44.2699 80.8957 43.5618C82.155 42.8655 83.4389 42.2434 84.7567 41.7233C86.631 40.9828 88.5099 40.2415 90.4689 39.793C92.021 39.438 93.5816 39.1044 95.1098 38.6465C96.0207 38.3741 97.0033 38.2763 97.7987 37.6056C97.9397 37.4864 98.1331 37.4319 98.3096 37.3792C99.6313 36.9834 100.879 36.3782 102.131 35.7773C102.466 35.6165 102.83 35.5288 103.178 35.4011C103.771 35.1832 104.363 34.9603 104.956 34.7381C105.13 34.6726 105.299 34.5824 105.478 34.5415C106.09 34.3985 106.704 34.2683 107.32 34.1449C107.464 34.1159 107.615 34.1125 107.759 34.1338C108.008 34.1696 108.147 34.3534 108.183 34.6215C108.219 34.8828 108.163 35.1492 107.934 35.2403C107.52 35.4045 107.091 35.5824 106.659 35.6199C105.621 35.7101 104.624 35.9944 103.642 36.328C102.871 36.5893 102.137 36.9757 101.376 37.2779C100.202 37.746 99.0202 38.1903 97.8403 38.6405C97.7008 38.6933 97.5313 38.6839 97.4157 38.7691C96.2674 39.6176 94.9148 39.6244 93.6302 39.8934C91.9987 40.2356 90.3895 40.6705 88.805 41.2118C87.8957 41.5225 86.9886 41.8501 86.0985 42.2221C84.8246 42.7532 83.5614 43.3166 82.306 43.898C81.9708 44.0537 81.7003 44.3763 81.3666 44.5363C80.4541 44.9721 79.5263 45.3662 78.6015 45.7687C77.4046 46.2896 76.1916 46.768 75.0109 47.3289C74.1701 47.7289 74.0861 47.9544 74.2148 48.9384C74.2996 49.5835 74.4453 50.2176 74.557 50.8585C74.6587 51.4432 74.9793 51.793 75.4918 51.9394C75.7061 51.9999 75.9219 52.056 76.1392 52.0986C76.9376 52.2527 77.7468 52.3403 78.5013 52.7191C78.6808 52.8093 78.9405 52.7999 79.1378 52.7369C80.5867 52.2731 82.0656 52.2893 83.5337 52.4748C84.8993 52.6467 86.2618 52.5795 87.6259 52.6203C87.9203 52.6289 88.2186 52.6203 88.5068 52.6723C88.6255 52.6935 88.8151 52.8578 88.8112 52.9489C88.8043 53.1251 88.7133 53.3285 88.5985 53.4562C88.5083 53.5557 88.3272 53.6 88.1893 53.594C86.3466 53.5234 84.5047 53.4442 82.6628 53.3557C82.0371 53.3259 81.4128 53.2502 80.7871 53.2246C80.3825 53.2085 79.9725 53.2051 79.7058 53.6689C79.648 53.7702 79.4538 53.8043 79.3182 53.817C78.8858 53.8604 78.4504 53.8792 77.8516 53.9183Z" fill="black"/>
<path d="M78.5005 49.0847C78.5945 49.1272 78.6924 49.203 78.7965 49.2149C79.7505 49.3264 80.7046 49.4966 81.661 49.5162C83.3064 49.5494 84.8708 49.9196 86.4137 50.5376C87.3793 50.924 88.3974 51.1478 89.3923 51.4423C89.5349 51.484 89.6936 51.4815 89.8216 51.5521C90.4427 51.8934 91.0546 52.2534 91.6326 52.5845C91.6943 52.9318 91.5232 53.0237 91.3452 53.0824C90.9267 53.2203 90.5367 53.0697 90.1676 52.879C88.0783 51.7989 85.8118 51.3734 83.6146 50.6942C83.4382 50.6388 83.254 50.5997 83.0705 50.5835C81.7119 50.4618 80.3524 50.3503 78.993 50.2286C78.6631 50.1988 78.3263 50.1775 78.0073 50.089C77.4278 49.9282 77.2312 49.4822 77.4324 48.8847C77.8948 47.5152 77.9973 47.3654 79.2434 46.7866C80.0257 46.4232 80.8117 46.0836 81.5408 45.5882C81.8791 45.3584 82.2876 45.2384 82.6775 45.1227C83.8944 44.7618 85.0381 44.2001 86.1887 43.6477C86.7952 43.3574 87.4325 43.1344 88.0698 42.9395C88.9222 42.6791 89.7977 42.5106 90.6462 42.2365C91.423 41.9863 92.186 41.6739 92.9389 41.3445C93.8776 40.9343 94.8401 40.684 95.8489 40.673C96.215 40.6687 96.578 40.7155 96.7937 41.1837C96.6766 41.2662 96.5957 41.3735 96.5101 41.3769C95.1545 41.4424 93.9115 41.9514 92.6969 42.5582C92.1197 42.8468 91.527 43.0272 90.9067 43.1651C89.7499 43.4221 88.5931 43.7038 87.4641 44.0766C86.7281 44.3192 86.0453 44.7524 85.3301 45.0793C84.8554 45.2963 84.3722 45.4921 83.8836 45.6683C82.8679 46.0351 81.8413 46.3483 80.9034 46.956C80.2384 47.3867 79.4954 47.6676 78.8049 48.0531C78.4127 48.2719 78.4235 48.3221 78.5005 49.0847Z" fill="black"/>
<path d="M34.4266 6.9494C35.0031 6.66682 35.3306 6.4983 35.6643 6.3451C37.1748 5.65058 38.7924 5.39353 40.3654 4.95691C42.2635 4.43091 44.1917 4.06407 46.1161 3.67595C47.9302 3.30912 49.7382 2.90738 51.55 2.52608C51.9091 2.45033 52.276 2.32436 52.6127 2.6197C52.7199 2.71333 52.7515 2.96782 52.6436 3.04357C52.5218 3.13038 52.3977 3.23081 52.2613 3.27167C51.7627 3.41976 51.2625 3.57041 50.7562 3.67595C47.8909 4.2743 45.0209 4.84796 42.1572 5.45567C40.1611 5.87868 38.1952 6.43361 36.2755 7.18006C35.8894 7.32985 35.4994 7.47965 35.0879 7.37241C34.9299 7.33071 34.7927 7.18942 34.4266 6.9494Z" fill="black"/>
<path d="M24.0143 9.63644C23.8918 9.34876 23.7901 9.1113 23.6891 8.87638C24.4544 8.41422 24.8821 8.53593 25.084 9.29259C25.4169 10.5352 25.9048 11.7404 25.8855 13.075C25.8847 13.115 25.8847 13.1593 25.8978 13.1959C26.4782 14.8292 26.0936 16.4948 26.0235 18.1486C26.0134 18.3844 25.9572 18.6439 25.8462 18.8406C25.7645 18.987 25.5595 19.1299 25.4108 19.1282C25.2582 19.1274 25.0463 18.987 24.9692 18.8389C24.8667 18.6431 24.8282 18.3775 24.8359 18.1452C24.8644 17.2924 24.9368 16.4412 24.9677 15.5884C25.0147 14.3049 24.7418 13.0818 24.2987 11.9081C24.086 11.3464 23.7909 10.8297 23.3362 10.4382C23.2144 10.3335 23.105 10.0867 23.1273 9.92923C23.1697 9.64325 23.4125 9.6041 23.6529 9.63389C23.7554 9.64751 23.8602 9.63644 24.0143 9.63644Z" fill="black"/>
<path d="M68.5574 55.868C68.8379 56.7396 69.0968 57.5346 69.3488 58.3321C69.6232 59.2028 69.55 60.1016 69.4667 60.9876C69.3758 61.9553 69.2263 62.9171 69.0907 63.8789C68.9866 64.6142 68.6822 65.2654 68.3238 65.8816C68.2221 66.0552 68.0086 66.1548 67.8437 66.0033C67.722 65.8901 67.6464 65.6892 67.6025 65.5113C67.5786 65.4143 67.6618 65.2841 67.6988 65.17C67.7867 64.9028 67.863 64.6304 67.967 64.3717C68.5111 63.0209 68.5319 61.6072 68.33 60.1901C68.1759 59.1108 67.9377 58.0452 67.7096 56.9805C67.5278 56.1327 67.6133 55.9906 68.5574 55.868Z" fill="black"/>
<path d="M17.2965 14.8855C18.0294 14.6523 18.2521 14.7102 18.4062 15.2506C18.5819 15.8677 18.7384 16.5018 18.8131 17.141C18.9357 18.1819 19.0343 19.2322 19.0428 20.28C19.0474 20.7855 18.8655 21.3107 18.6945 21.795C18.5095 22.3184 18.1488 22.4767 17.6201 22.3874C17.3312 22.338 17.1832 22.0895 17.2649 21.7728C17.3751 21.3447 17.4984 20.9209 17.6078 20.4919C17.97 19.0756 17.7635 17.6755 17.4914 16.2813C17.3997 15.8107 17.3026 15.3468 17.2965 14.8855Z" fill="black"/>
<path d="M33.747 14.6352C32.8276 15.6574 32.0608 16.6345 31.3541 17.6755C31.2454 17.8355 31.1175 18.0023 30.9642 18.0959C30.8601 18.1598 30.6597 18.1572 30.5673 18.084C30.4756 18.0108 30.3838 17.7614 30.4285 17.6789C31.1283 16.3911 31.7818 15.0387 33.2576 14.6344C33.411 14.5918 33.5836 14.6327 33.747 14.6352Z" fill="black"/>
<path d="M33.6901 9.36226C32.9225 9.52738 32.3808 9.61335 31.8536 9.764C31.2109 9.94784 30.5921 10.1904 30.1821 10.8475C30.1035 10.9735 29.8561 11.0424 29.7019 11.0186C29.5486 10.9947 29.3382 10.8492 29.2943 10.7045C29.2503 10.559 29.3313 10.2551 29.443 10.1828C30.0118 9.81677 30.5944 9.47036 31.1978 9.18183C31.8467 8.87116 32.5303 8.69668 33.2324 8.99458C33.3487 9.04394 33.4412 9.15884 33.6901 9.36226Z" fill="black"/>
<path d="M16.1725 23.481C15.2701 23.9363 14.4786 24.3432 13.6787 24.7296C13.6008 24.7679 13.4313 24.7245 13.3827 24.653C13.3034 24.5372 13.2579 24.367 13.2594 24.2206C13.261 24.1168 13.3519 24.0053 13.4205 23.9117C14.0008 23.115 15.0165 22.8009 15.9044 23.1524C15.9891 23.1856 16.0423 23.3167 16.1725 23.481Z" fill="black"/>
<path d="M72.6176 2.62918C72.7748 2.42491 72.7963 2.37129 72.8195 2.37044C73.6664 2.33469 74.4941 2.44789 75.2879 2.79005C75.4675 2.86665 75.6239 3.02325 75.5075 3.25136C75.4474 3.36881 75.2602 3.5084 75.1638 3.48372C74.4186 3.28966 73.6811 3.06241 72.9428 2.83516C72.8403 2.80366 72.7516 2.716 72.6176 2.62918Z" fill="black"/>
<path d="M71.6092 6.47034C71.6647 6.51289 71.7633 6.54864 71.7695 6.59886C71.8604 7.33508 71.6269 7.93768 71.099 8.38453C71.0073 8.46198 70.8123 8.479 70.7044 8.42623C70.5187 8.33431 70.4694 8.10706 70.5526 7.91045C70.6428 7.69937 70.7723 7.50361 70.9094 7.32317C71.1322 7.02953 71.3749 6.75376 71.6092 6.47034Z" fill="black"/>
<path d="M21.2646 46.8832C21.2236 46.8306 21.1817 46.7785 21.141 46.7251C21.2119 46.6865 21.2837 46.6474 21.3548 46.6079C21.3799 46.6714 21.4355 46.7443 21.4227 46.7935C21.41 46.8373 21.3201 46.8538 21.2646 46.8832Z" fill="black"/>
</svg>
