<svg width="96" height="118" viewBox="0 0 96 118" fill="none" xmlns="http://www.w3.org/2000/svg">
<path d="M28.8427 80.4122C29.5016 80.6178 29.9979 80.4388 30.4436 79.9536C29.2872 79.4584 29.2872 79.4584 28.8427 80.4122ZM67.1029 30.8514C67.8726 31.7312 67.8847 31.7478 68.5628 31.3499C68.6917 31.2736 68.6857 31.0062 68.7965 30.658C68.1665 30.7299 67.6847 30.7851 67.1029 30.8514ZM21.7549 81.8922C22.8185 81.5993 23.8003 81.4324 24.3496 80.4023C23.5136 79.8165 22.7077 79.5071 21.6682 79.6695C21.2923 80.3636 21.1333 81.0179 21.7549 81.8922ZM45.0167 62.2677C44.1518 61.6333 43.1641 61.8897 42.2389 61.8499C41.368 61.8123 40.4911 61.8145 39.6202 61.8554C38.7083 61.8985 37.6916 61.6244 36.8412 62.5804C37.0688 63.9111 37.3278 65.3336 37.5531 66.7593C37.788 68.2425 37.2363 69.8042 37.9735 71.2079C40.3778 71.7063 43.0231 71.4952 45.6383 70.5757C45.5166 69.2748 45.3721 67.922 45.2709 66.5659C45.1637 65.1324 45.0998 63.6956 45.0167 62.2677ZM48.5919 3.89154C47.2103 4.369 46.2514 4.68399 45.3058 5.03103C43.9205 5.53944 42.5582 5.73617 41.1681 5.0244C40.8609 4.86746 40.4561 4.87298 40.0562 4.79561C40.0562 6.74745 39.8418 8.58435 40.1068 10.3616C40.4995 12.9887 40.6477 15.5672 40.0972 18.1844C39.9237 19.0089 39.7852 19.9284 40.62 20.8381C42.7798 20.9596 45.0468 21.0514 47.1597 20.7894C47.7945 20.0821 48.0776 19.4654 47.8728 18.7945C47.5536 17.75 47.868 16.7774 48.0836 15.7761C48.4064 14.2774 48.9304 12.7489 48.5281 11.2347C48.1029 9.63542 48.2089 8.05384 48.2703 6.45899C48.298 5.75275 48.4414 5.05203 48.5919 3.89154ZM14.2443 79.0871C14.0527 81.4114 14.0238 83.5235 14.2672 85.6334C14.3238 86.1296 14.5406 86.6369 14.796 87.0845C15.3501 88.0549 16.1981 88.6827 17.4641 88.6473C18.1797 88.6274 18.8964 88.5788 19.6083 88.507C20.2407 88.4429 20.8659 88.2638 21.4971 88.2494C24.8663 88.1754 28.132 87.4736 31.4181 86.8966C34.0803 86.4302 36.7316 86.0224 39.4636 86.396C40.2321 86.501 41.0476 86.333 41.8378 86.2667C44.453 86.0467 47.0633 85.7627 49.6833 85.6024C53.1031 85.3924 56.529 85.2797 59.9524 85.1161C60.2692 85.1017 60.5812 85.0133 60.898 84.9813C61.846 84.8851 62.7965 84.7989 63.7457 84.7116C65.7272 84.5292 67.71 84.3723 69.6867 84.1523C70.23 84.0916 70.7805 83.9048 71.2756 83.6782C72.6295 83.0604 73.969 82.4138 75.2881 81.7352C76.9576 80.8753 78.5585 79.8939 80.269 79.1136C81.4363 78.5809 82.3542 77.8315 83.2733 77.1595C83.2287 76.1173 82.5746 75.5448 81.8892 75.0563C80.2582 73.8925 78.5766 72.7884 76.8504 71.6168C76.5228 71.5958 76.124 71.5328 75.7301 71.5527C73.0234 71.6853 70.3167 71.8268 67.6112 71.9815C66.5006 72.0445 65.3562 72.007 64.2926 72.2534C60.6607 73.0956 57.0313 73.0315 53.3669 72.5231C52.6743 72.428 51.9431 72.5275 51.2336 72.5795C50.7602 72.6148 50.294 72.7872 49.823 72.795C47.7548 72.8326 45.6865 72.8657 43.6194 72.8359C41.6824 72.8071 39.8129 73.0823 37.9735 73.6195C37.535 73.7477 37.052 73.7543 36.587 73.7952C35.7197 73.8737 34.8464 73.9068 33.9827 74.0096C31.6843 74.2815 29.5245 75.0176 27.3598 75.7349C25.5566 76.3317 23.7569 76.954 21.7838 76.8589C21.6838 76.8534 21.5754 77.0126 21.3646 77.1794C21.7693 77.4392 22.1271 77.8569 22.5234 77.8901C24.099 78.0183 25.3265 78.8605 26.6178 79.5159C28.0934 77.7287 28.0971 77.7774 30.4063 77.6558C31.6711 77.5895 32.9226 77.3231 34.1814 77.154C34.6982 77.0844 35.2174 77.0335 35.9943 76.9451C35.2403 78.435 33.2659 77.9498 32.6588 79.3192C33.0636 79.6198 33.478 79.9281 33.9827 80.3039C33.6334 81.0135 32.4288 81.5075 33.1467 82.6448C33.6815 82.8449 34.3067 83.077 35.0259 83.3455C34.3718 84.474 33.4189 84.7105 32.342 84.6574C31.3446 84.6088 30.7688 84.0473 30.452 83.2085C30.3255 82.8747 30.1256 82.5641 29.9172 82.1618C29.3402 82.2281 28.8234 82.2878 28.4235 82.3342C27.5743 83.5577 28.3259 84.3657 29.0101 85.1703C27.9742 85.4974 27.9742 85.4974 26.7588 85.0553C26.5142 84.0971 26.2396 83.0151 25.8951 81.6623C25.3072 82.8161 24.9832 83.7755 24.3797 84.5535C23.6437 85.504 22.3933 85.6897 21.2478 85.8599C19.8312 85.2985 19.3276 84.3159 19.3638 83.0195C19.4096 81.3517 19.43 79.6817 19.4638 77.8967C17.5605 77.4878 16.2029 78.8329 14.2443 79.0871ZM74.6713 58.6303C75.7711 57.7296 76.1445 56.7747 76.2204 55.8639C76.4782 52.7361 76.8131 49.5884 75.9277 46.4861C75.8687 46.2794 75.7362 46.0915 75.6326 45.8848C74.44 45.0968 73.1077 45.078 71.7345 45.2338C69.447 45.4936 67.1523 45.9776 64.8684 45.9401C61.8316 45.8903 58.8478 46.3468 55.8195 46.3678C52.5647 46.3899 49.3171 46.6198 46.0491 46.4805C42.8617 46.3446 39.6623 46.4109 36.4702 46.4628C34.1706 46.4993 31.8722 46.6529 29.5751 46.7679C29.3426 46.78 29.1125 46.8729 28.8861 46.9414C26.7431 47.5858 24.5447 47.8256 22.2909 47.7814C21.3417 47.7626 20.3503 47.7803 19.4457 48.008C17.1076 48.5981 14.7707 48.8745 12.6084 48.4302C9.03563 49.8935 6.42167 52.0774 4.10885 54.7543C4.90629 55.9225 5.21467 57.2377 6.47587 58.07C7.89729 59.0072 9.24523 60.0395 10.6365 61.0165C11.3484 61.5172 12.1399 61.9416 13.0638 61.7283C15.6681 61.1293 18.3098 61.4896 20.9334 61.3945C22.1283 61.3514 23.3269 61.3647 24.5206 61.2984C26.0264 61.2155 27.5285 61.0563 29.0354 60.9712C29.91 60.9215 30.7977 61.0198 31.6675 60.937C33.7863 60.738 35.8534 60.0251 38.0313 60.4131C40.8055 59.8737 43.5664 59.9666 46.3357 60.4882C47.1019 60.6319 47.9174 60.591 48.7088 60.5844C51.5058 60.5601 54.2571 60.1688 57.0096 59.7444C57.9311 59.6018 58.9394 59.646 59.8561 59.8251C61.7015 60.1865 63.4855 60.1113 65.2972 59.6792C66.2922 59.4416 67.3269 59.3189 68.3508 59.2128C70.4818 58.9929 72.6175 58.8171 74.6713 58.6303ZM34.9271 62.5661C33.5876 62.1671 32.4794 62.2997 31.3699 62.4014C30.1039 62.5174 28.8379 62.67 27.5682 62.7086C25.8119 62.7628 24.0532 62.7241 22.2945 62.7296C19.1072 62.7385 15.8958 62.4865 13.1336 63.5066C11.3195 63.3563 10.5895 62.1019 9.23198 61.4686C6.96373 61.799 5.66278 63.9531 3.25842 64.3433C3.72339 65.706 5.03639 65.9613 5.90129 66.6455C6.7457 67.313 7.61421 67.9552 8.58752 68.6957C10.2029 68.8482 11.9387 69.0239 13.6769 69.1687C14.4635 69.2339 15.2561 69.2527 16.0475 69.2605C16.9245 69.2693 17.8388 69.3798 18.6723 69.1997C20.4937 68.8073 22.3259 68.9289 24.1568 68.8537C25.665 68.7929 27.1659 68.5896 28.6741 68.5277C30.3472 68.4581 32.0252 68.4448 33.7008 68.4746C34.3537 68.4857 34.9837 68.6968 34.8885 69.7003C34.4754 69.8418 33.9947 70.1292 33.4972 70.159C30.1581 70.3524 26.8154 70.4917 23.4738 70.6475C23.0751 70.6663 22.6583 70.611 22.2801 70.6984C19.4409 71.3482 16.5535 71.062 13.689 71.0454C12.1049 71.0355 10.5185 70.7625 8.94408 70.5436C8.05027 70.4198 7.36366 69.9147 6.72643 69.3212C6.0615 68.7012 5.37488 68.0414 4.55937 67.6258C2.61757 66.6355 1.52019 64.9103 0 63.6746C0.163824 62.87 0.749256 62.8236 1.29855 62.7341C3.31744 62.4003 5.01471 61.4951 6.68668 60.2384C5.87238 59.2935 5.0918 58.4115 4.34014 57.5085C3.80771 56.8697 3.26444 56.2298 2.81874 55.539C2.50675 55.056 2.35377 54.4879 2.13935 53.9817C4.0667 52.357 5.75071 50.6859 7.71058 49.3574C9.6837 48.0201 11.9315 47.0221 14.1792 45.8108C14.5984 46.0683 15.0417 46.3413 15.5248 46.6386C15.7223 46.6275 15.9692 46.6552 16.1885 46.5955C19.2795 45.7544 22.4258 45.4593 25.6505 45.5223C27.0659 45.551 28.4885 45.1752 29.9124 45.0194C31.1748 44.8813 32.4432 44.7199 33.7116 44.6978C36.4268 44.6503 39.1443 44.6934 41.8607 44.6834C42.6413 44.6801 43.4206 44.6204 44.1711 44.5873C44.6023 40.2747 44.4168 37.9912 43.4146 35.2978C41.9607 35.3962 40.4814 35.4967 38.9938 35.5973C38.2975 37.0728 38.6216 38.4786 38.5842 39.8414C38.5457 41.2439 38.2505 42.5813 37.7639 44.0822C37.2146 43.8545 36.7629 43.6677 36.3112 43.4809C36.5605 41.1025 36.7966 38.8577 37.0315 36.6197C35.2571 35.9709 33.4996 35.783 31.5795 36.2107C30.2918 36.4981 28.874 36.3831 27.5225 36.3201C25.0254 36.2052 22.5957 36.6594 20.1468 36.9446C17.3834 37.2662 14.6406 37.8398 11.87 37.9702C9.91739 38.062 7.8985 37.7459 6.14341 37.0032C4.92918 35.9665 4.83643 34.7275 5.09541 33.472C5.31947 32.3855 5.36524 31.3179 5.38211 30.2137C5.40379 28.8499 5.80492 27.4849 6.11932 26.1354C6.17352 25.9022 6.60838 25.7442 7.11912 25.3651C6.96373 28.3879 6.79027 31.0747 6.71197 33.7637C6.6915 34.4622 6.97337 35.1685 7.09503 35.7664C8.43935 36.6108 9.75115 36.8562 11.1364 36.7136C13.43 36.4771 15.7163 36.1886 18.0062 35.9234C18.1652 35.9057 18.329 35.9145 18.4832 35.8814C22.0006 35.111 25.5674 34.9452 29.1764 34.9585C31.1531 34.9651 33.131 34.5971 35.2909 34.3793C35.8992 34.103 36.6798 33.7483 37.5182 33.367C39.1359 34.2556 40.832 34.2511 42.6087 33.8831C43.5303 33.6919 44.5096 33.7018 45.4636 33.6908C48.4149 33.6565 51.4071 33.9262 54.3089 33.5725C57.7468 33.1525 61.163 33.3791 64.5853 33.2487C65.2815 33.2233 65.9778 33.1956 67.0378 33.1548C66.5741 32.7524 66.3753 32.5524 66.1476 32.3844C65.2755 31.7423 64.9093 30.9211 64.8913 29.891C64.878 29.093 64.6371 28.3017 64.5732 27.5015C64.5359 27.0207 64.6431 26.53 64.6853 26.0481C66.1525 26.1255 66.1525 26.1255 67.3968 28.7438C67.7823 28.5879 68.1665 28.4321 68.7315 28.2022C68.2376 27.2351 67.8112 26.4007 67.3968 25.5894C68.334 24.8733 68.8062 24.8158 69.4434 25.3706C70.4191 26.2205 70.8323 27.328 70.9455 28.5194C71.0202 29.3097 70.9588 30.112 70.9588 31.3632C70.8178 31.9799 69.7325 32.2916 68.9122 32.863C70.0481 33.2796 71.8598 33.5007 73.4487 33.4112C74.0847 33.3747 74.7267 33.2255 75.3543 33.2675C77.8273 33.4344 80.0606 32.7038 82.3096 31.8959C85.7222 30.6724 89.1782 29.5528 92.6089 28.3702C93.0317 28.2243 93.4075 27.9646 93.7592 27.7811C93.7243 27.5103 93.7629 27.3235 93.6785 27.2296C92.5209 25.9343 91.5392 24.4223 90.131 23.4143C87.5785 21.5863 84.5959 20.701 81.3773 21.8825C78.4911 22.9413 75.5145 23.1878 72.4645 23.1425C68.7917 23.0883 65.1057 22.8518 61.4497 23.0562C58.2323 23.2353 55.1112 22.5003 51.9058 22.6683C48.7208 22.8363 45.5142 22.76 42.3209 22.6738C40.0153 22.6119 37.7169 22.3522 35.4149 22.1897C33.1262 22.0273 30.8447 21.5675 28.5415 22.1909C27.9489 22.35 27.2695 22.2229 26.6335 22.266C25.1253 22.3677 23.6208 22.497 22.1139 22.6075C21.5573 22.6484 20.9912 22.7368 20.4431 22.6838C17.7051 22.4218 15.061 22.9435 12.4061 23.4166C11.864 23.5138 11.2942 23.5569 10.7449 23.5216C10.1246 23.4818 9.72706 23.138 9.68249 22.3765C9.93305 22.234 10.2294 21.9455 10.5655 21.898C14.1069 21.394 17.6231 20.7806 21.2538 20.8845C23.3883 20.9442 25.5361 20.5297 27.6815 20.365C28.7054 20.2876 29.7377 20.2534 30.764 20.2766C32.7516 20.3186 34.738 20.4313 36.7255 20.4777C37.1845 20.4888 37.647 20.3495 38.218 20.2622C38.33 19.7306 38.5143 19.2465 38.5204 18.7613C38.5493 16.122 38.5433 13.4827 38.5276 10.8445C38.5252 10.335 38.4999 9.80784 38.3614 9.31933C37.7012 6.99945 38.0421 4.66299 38.1638 2.32984C38.1698 2.20274 38.3144 2.08227 38.4878 1.81591C39.266 2.23148 40.0032 2.80841 40.85 3.02945C41.8222 3.28255 42.8979 3.32124 43.9157 3.26376C44.8409 3.21182 45.7624 2.93551 46.7706 2.28563C44.8541 1.67223 42.9183 2.53541 41.1681 1.47329C41.2138 1.05772 41.2632 0.60568 41.3259 0.0232233C43.458 0.0232233 45.4347 -0.0453006 47.4006 0.053065C48.3366 0.10059 49.2834 0.3979 50.1675 0.716206C50.6337 0.883096 50.9758 1.33845 51.3143 1.61586C50.971 3.57876 50.7024 5.38581 50.3266 7.17518C50.0037 8.71034 49.9483 10.2289 50.3253 11.7508C50.6132 12.9169 50.5542 14.0608 50.3229 15.2345C50.0266 16.7421 49.8495 18.2717 49.664 19.7958C49.6315 20.0567 49.8074 20.3396 49.9098 20.6866C51.5757 21.0182 53.1838 21.3785 54.8715 21.3686C57.3481 21.3531 59.826 21.352 62.3014 21.3851C63.4951 21.4006 64.6877 21.5111 65.8802 21.5741C66.197 21.5907 66.515 21.6018 66.8318 21.594C69.8578 21.5178 72.8982 21.5686 75.9072 21.3111C77.8731 21.1431 79.8498 20.6745 81.7194 20.0743C84.131 19.3007 86.2402 19.8234 88.3988 20.7541C90.5599 21.6847 92.239 23.0618 93.5472 24.8788C94.1616 25.7298 94.9301 26.4858 95.5782 27.318C95.7986 27.601 95.8866 27.979 95.9913 28.3249C96.0287 28.4487 95.9371 28.6056 95.8709 28.8908C95.5408 29.0289 95.1373 29.2367 94.7061 29.3704C92.4402 30.0745 90.1431 30.7022 87.9025 31.4693C85.9631 32.1346 84.0767 32.9337 82.1819 33.7074C80.622 34.344 79.0103 34.5694 77.2997 34.607C72.6717 34.7098 68.0461 34.4788 63.4216 34.5882C60.321 34.6623 57.2252 34.5628 54.121 34.9342C51.7624 35.216 49.334 35.0038 46.938 35.027C46.243 35.0347 45.5492 35.0977 44.577 35.1508C46.2803 37.2176 46.4104 39.3396 46.1021 41.5766C45.9768 42.4851 45.7913 43.4887 46.514 44.3264C46.6526 44.4071 46.7851 44.5519 46.9188 44.553C49.8688 44.5751 52.8201 44.6237 55.7689 44.5751C57.5192 44.5464 59.2658 44.3695 61.0125 44.2413C62.1219 44.1584 63.2289 44.0402 64.3371 43.9396C64.813 43.8965 65.2888 43.828 65.7658 43.8202C67.6004 43.7915 69.4169 43.7462 71.2455 43.45C73.1403 43.1438 75.0628 43.3737 77.0227 44.2049C77.2347 44.721 77.6346 45.3134 77.7057 45.9368C77.9201 47.8079 78.7766 49.647 78.067 51.5801C77.9514 51.8973 78.0406 52.315 78.1441 52.6577C78.7067 54.52 78.0695 56.2917 77.6659 58.0722C77.5599 58.5419 77.1504 58.9531 76.8396 59.4559C74.1642 59.9157 71.5129 60.3711 68.6773 60.8574C68.5568 61.3857 68.3954 61.9328 68.3171 62.4898C68.2364 63.0689 68.2906 63.6658 68.1894 64.2405C68.0485 65.0385 67.5004 65.5657 66.6283 65.716C65.4538 65.9182 64.2709 66.1857 63.0868 66.2078C61.2618 66.241 59.4598 66.7151 57.6203 66.4277C57.3108 66.3802 56.947 66.336 56.6711 66.4355C54.6281 67.1782 52.4249 67.0356 50.2254 67.4611C49.3207 67.229 48.2992 67.04 47.721 65.9315C48.0089 65.7701 48.2462 65.527 48.4992 65.5126C51.0349 65.3667 53.5874 65.4971 56.1026 65.002C56.8711 64.8506 57.6986 64.8683 58.4913 64.9169C60.8282 65.0606 63.0928 64.5654 65.3839 64.3201C65.5297 64.3046 65.661 64.183 65.7983 64.1101C66.462 62.7241 66.462 62.7241 65.9079 61.1746C65.555 61.1901 65.1707 61.1956 64.7901 61.2254C64.1552 61.2763 63.4759 61.5084 62.8965 61.3724C60.6668 60.8496 58.4684 61.2586 56.2604 61.4166C55.3894 61.4785 54.5246 61.6222 53.6524 61.6797C52.7827 61.7371 51.8829 61.8653 51.0421 61.7272C49.7965 61.5205 48.6943 61.8012 47.6066 62.0997C46.9031 64.3455 47.0633 68.2569 47.9704 70.6962C49.5628 70.8122 51.2155 70.9238 52.8658 71.0565C54.2126 71.1659 55.5605 71.4234 56.9024 71.3947C58.8057 71.3527 60.7282 71.2355 62.5977 70.9216C65.2755 70.4718 67.9401 70.1137 70.6721 70.1767C71.7815 70.2021 72.9355 70.1966 73.9992 69.9501C75.8024 69.5323 77.2997 70.0209 78.7549 70.8829C78.8223 70.9227 78.8874 70.9669 78.9464 71.0156C80.8918 72.6358 82.8565 74.2373 84.7682 75.8896C85.2079 76.2709 85.4693 76.8269 85.8776 77.3928C84.6128 78.3399 83.5973 79.3125 82.2361 79.9801C80.3389 80.9096 78.5103 81.9706 76.7312 83.0814C74.5015 84.4751 72.0598 85.2543 69.4181 85.6433C65.7116 86.1893 61.981 86.3518 58.2419 86.5772C55.1365 86.7651 52.0347 86.848 48.9292 86.9685C48.6281 86.9806 48.333 87.1155 48.1209 87.1707C47.9776 87.3918 47.8066 87.5355 47.8318 87.6371C48.3703 89.8111 47.9716 91.9951 47.9379 94.1746C47.9246 94.9726 47.9354 95.7716 47.9668 96.5696C47.9812 96.9332 48.1282 97.2947 48.1209 97.6561C48.0475 101.403 48.822 105.085 49.2256 108.79C49.4725 111.059 49.5616 113.309 49.5821 115.575C49.5881 116.226 49.6399 116.914 48.9834 117.387C47.8294 117.465 47.4693 117.337 47.3103 116.721C47.2187 116.369 47.1934 115.996 47.1826 115.633C47.1609 114.9 47.132 114.165 47.1717 113.433C47.3621 109.91 46.7875 106.426 46.549 102.925C46.3996 100.742 46.2117 98.5701 45.8913 96.4016C45.766 95.5517 45.9973 94.662 46.0238 93.7889C46.078 91.963 46.1129 90.1361 46.131 88.3091C46.1322 88.1113 45.9647 87.9123 45.7997 87.5454C43.2339 87.0525 40.7212 88.2859 38.0807 87.7123C38.0807 89.0463 38.0795 90.0443 38.0807 91.0435C38.0831 94.9284 38.0674 98.8132 38.0964 102.698C38.1132 104.956 38.2024 107.214 38.2626 109.653C38.0976 109.741 37.7832 109.905 37.3471 110.135C37.0785 109.649 36.7279 109.29 36.693 108.905C36.4702 106.508 36.2256 104.106 36.169 101.702C36.1076 99.1404 36.2822 96.5751 36.2859 94.0121C36.2883 92.3299 36.1786 90.6467 36.0931 88.9656C36.0799 88.6882 35.9353 88.4163 35.8185 88.0372C35.2535 87.9731 34.7115 87.8228 34.1911 87.8726C33.0829 87.9764 31.9361 88.0494 30.8941 88.3754C27.6839 89.3823 24.2942 89.3458 21.0105 89.9062C19.6107 90.1449 18.1459 90.1438 16.7125 90.125C14.6442 90.0985 13.1252 88.8816 12.7072 86.9607C12.3964 85.5361 11.9676 84.1258 12.4169 82.6238C12.5964 82.0248 12.3651 81.3218 12.3217 80.6897C11.9604 80.0221 11.6122 79.3777 11.1991 78.614C11.7821 78.0625 12.323 77.5508 12.9084 76.996C20.3142 75.1337 27.7537 73.3266 35.3921 71.8146C36.0498 68.6614 35.5836 65.664 34.9271 62.5661Z" fill="black"/>
<path d="M46.8164 27.7424C47.0946 27.035 47.3199 26.4228 47.5825 25.8248C47.6307 25.7132 47.8318 25.659 48.027 25.5375C48.9822 25.6259 49.3472 26.3166 49.3544 27.0516C49.3677 28.5592 49.6532 30.1164 48.7112 31.6903C48.4016 31.5245 47.974 31.4306 47.8282 31.1918C47.4427 30.5663 47.1801 29.8766 46.8067 29.0819C46.2165 29.2278 45.6395 29.3704 45.048 29.5163C44.8541 30.437 45.136 31.4328 43.9542 32.0097C43.6386 31.698 43.2953 31.3587 43.0074 31.0736C42.0004 31.5897 41.0921 32.2075 40.0731 32.5424C38.2168 33.1503 36.1871 31.8726 36.2304 30.0711C36.2726 28.3514 36.9026 26.7576 38.53 25.6822C38.9492 25.4048 39.4129 25.3396 39.849 25.9166C39.8803 26.8626 38.9456 27.5026 38.5782 28.3657C38.2204 29.2068 37.9024 30.0136 38.4071 30.9553C39.119 31.5411 39.8418 31.6527 40.7055 30.8315C40.2152 30.3828 39.7876 29.9915 39.3094 29.5528C40.3477 28.242 41.5559 29.4588 42.7111 29.2665C42.8171 28.2386 42.9195 27.2395 43.0364 26.1033C43.6025 26.0392 44.1012 25.9829 44.636 25.9221C45.0287 26.5941 45.36 27.161 45.7407 27.8142C46.0936 27.791 46.4598 27.7656 46.8164 27.7424Z" fill="black"/>
<path d="M14.4664 34.5308C15.7674 33.8412 16.519 33.1791 16.6431 32.1159C16.1227 31.5832 15.6746 31.1245 15.241 30.6791C15.9854 29.6004 17.7513 29.5938 17.7935 28.1315C16.8262 26.9335 16.4636 26.865 14.2857 27.5226C13.6919 29.2799 13.6834 31.1544 13.7364 33.0211C13.7485 33.4643 14.1472 33.8986 14.4664 34.5308ZM20.3906 28.3758C19.6401 29.1881 18.9318 29.9541 18.1645 30.7841C18.2332 31.392 18.3042 32.033 18.3789 32.7072C17.6333 33.913 16.9985 35.1829 15.5903 35.7676C14.6423 35.9433 13.8689 35.6969 13.2703 35.2106C12.8246 34.8469 12.3102 34.2965 12.2789 33.8047C12.1307 31.4881 11.9512 29.155 12.4596 26.9291C13.5955 25.9089 14.9446 25.6569 16.2564 25.4525C16.8178 25.364 17.4984 25.6293 18.0561 25.868C18.8885 26.2261 19.4546 26.897 20.3906 28.3758Z" fill="black"/>
<path d="M22.848 28.2697C24.1875 27.9006 24.6646 27.4209 24.9669 26.5688C24.5562 26.3809 24.1912 26.2129 23.6298 25.9543C23.3769 26.7058 23.1829 27.2794 22.848 28.2697ZM23.5298 30.0624C23.1311 31.0184 22.7962 31.8219 22.4252 32.7105C21.9434 32.6243 21.5844 32.5602 21.1327 32.4795C21.0978 30.163 20.2835 27.9392 21.3507 25.6006C22.147 25.2325 22.9854 24.8457 23.6961 24.5186C25.1416 24.723 26.0703 25.3718 26.8461 26.1488C27.3231 27.5392 26.045 28.357 25.7174 29.3982C26.1426 31.2306 28.0976 30.1796 29.0577 30.9411C27.617 32.4895 26.6196 32.3403 23.5298 30.0624Z" fill="black"/>
<path d="M83.6625 26.0734C84.6575 25.5164 85.2549 25.1782 85.2598 24.2343C84.2094 24.3603 83.8432 24.8577 83.6625 26.0734ZM87.5617 23.9403C87.8472 25.4887 86.6655 26.2867 85.5404 27.0372C85.7898 27.6318 86.2198 27.4737 86.5703 27.403C87.7003 27.1731 88.8193 26.8747 90.354 26.9797C88.5423 28.8288 86.4812 29.3117 84.3081 29.3858C84.0166 29.8124 83.7769 30.1617 83.5516 30.4899C82.4446 30.4534 82.023 29.7516 81.9303 29.0575C81.758 27.7677 81.7327 26.4492 81.8086 25.1505C81.8339 24.7184 82.2772 24.2277 82.6711 23.9127C83.1397 23.5391 83.7323 23.2451 84.3238 23.0672C84.902 22.8937 85.5597 22.8119 86.1608 22.8716C86.8052 22.9368 87.3208 23.3258 87.5617 23.9403Z" fill="black"/>
<path d="M77.0093 26.8605C77.4153 26.0647 77.0672 25.7265 76.1601 25.5066C75.9734 25.8956 75.7903 26.2791 75.5108 26.8605H77.0093ZM73.9726 30.773C72.6885 30.4381 72.6054 29.534 72.3777 28.6123C73.1306 27.1567 73.4534 25.4513 74.8555 24.2433C76.7166 23.652 78.1212 24.1284 79.2149 25.5983C79.5992 26.1156 80.1666 26.519 80.7424 27.0605C79.4161 28.0066 80.1786 30.0027 78.5958 30.909C77.4153 30.353 78.2272 29.3672 77.7562 28.5924C76.8467 28.5172 75.9878 28.8809 75.0711 29.1196C74.7037 29.6733 74.3436 30.2138 73.9726 30.773Z" fill="black"/>
<path d="M53.8008 25.8989C53.7719 27.5944 53.4611 28.9803 54.2417 30.2524C55.0367 30.2016 55.1584 29.6578 55.2006 29.1693C55.2439 28.672 55.0873 28.1624 55.0789 27.6562C55.0681 27.0252 55.3102 26.5179 56.1474 26.3443C57.1857 26.7875 57.2737 27.7922 57.7218 28.5802C57.3399 29.4854 57.0412 30.3154 56.6425 31.1035C56.1606 32.0562 55.4053 32.432 54.3562 32.3347C53.3238 32.2374 52.4999 31.8031 52.2023 30.8647C51.9157 29.9607 51.7229 29.0223 51.6025 28.0862C51.5049 27.3302 51.8374 26.6295 52.4914 26.152C52.7372 25.9719 53.172 26.0094 53.8008 25.8989Z" fill="black"/>
<path d="M29.5334 25.2293C30.2898 26.1975 30.8656 26.9336 31.4896 27.7316C32.9231 26.9811 33.2869 25.0171 35.3238 25.0812C35.6298 26.581 34.3722 27.431 33.9855 28.566C33.6097 29.6669 33.3242 30.7953 32.952 32.0729C32.634 32.1116 32.2184 32.1625 31.6787 32.2277C31.4824 31.4153 31.3149 30.7212 31.121 29.9166C30.3163 28.7517 28.6179 27.9372 28.7431 26.0295C28.8552 25.9168 29.0551 25.7134 29.5334 25.2293Z" fill="black"/>
<path d="M60.8556 26.2835C61.5772 26.9278 61.9253 27.1997 62.2228 27.5125C62.689 28.0021 63.1865 28.4829 63.5515 29.0344C64.1538 29.9462 64.0177 30.8614 63.2576 31.6604C62.8962 32.0395 62.4541 32.3534 62.1373 32.622C61.1881 32.8917 60.4039 32.8331 59.8137 32.233C59.592 32.0075 59.586 31.6052 59.474 31.257C60.2919 30.6657 61.8687 31.362 61.9072 29.7418C61.5374 28.5813 60.1269 28.0806 59.3126 27.0483C59.021 25.8469 59.8498 25.1617 60.8629 24.6776C61.6808 24.2886 62.5493 24.3173 63.1697 25.0058C63.3202 25.6237 63.0853 25.9376 62.5168 26.0392C62.1482 26.1056 61.7735 26.1498 60.8556 26.2835Z" fill="black"/>
<path d="M49.8596 54.1066C51.1135 53.8657 51.9375 54.2183 52.712 54.7366C53.0782 55.8009 52.5133 56.6166 52.023 57.6157C51.24 57.9141 50.3751 58.2435 49.6849 58.5066C47.9696 58.1518 47.0914 57.1051 46.2349 56.0574C45.611 56.5658 45.1339 57.0488 44.5618 57.4024C43.3126 58.1728 42.0008 58.0236 40.8432 57.125C39.8073 56.3215 39.3049 55.276 39.1086 54.0923C38.9424 53.0854 39.3519 52.2222 40.0783 51.4861C40.5348 51.0241 41.1166 50.8031 41.7996 50.9656C42.5224 51.138 42.8199 51.6088 42.7898 52.4057C42.4947 52.7339 42.1297 53.1418 41.6491 53.6778C43.0464 53.7961 44.2112 53.8944 45.4291 53.9972C46.1663 52.6466 46.3446 50.9932 48.0382 50.1101C48.4442 50.2604 48.867 50.4174 49.3753 50.6053C49.5126 51.2507 49.6451 51.873 49.7849 52.5317C49.238 52.7118 48.8092 52.8522 48.3538 53.0025C47.9286 54.2293 47.6371 55.4031 49.044 56.463C49.4885 56.1646 49.9041 55.8849 50.3378 55.5932C50.1764 55.0903 50.0475 54.6913 49.8596 54.1066Z" fill="black"/>
<path d="M20.3363 56.2628C20.1676 57.2343 20.2194 57.3736 20.8723 57.5172C21.0373 57.3183 21.2361 57.0774 21.5312 56.7193C21.0217 56.5247 20.6928 56.3987 20.3363 56.2628ZM19.8641 52.6034C20.1279 51.6562 20.9277 51.5954 21.695 51.8352C22.7141 52.1536 23.6718 52.6365 24.6547 53.0477L24.6523 53.0433C24.6897 53.923 24.6379 54.7608 24.15 55.5831C23.8223 56.139 23.8043 56.8419 23.5826 57.4587C23.2249 58.4523 22.7551 59.4359 21.4397 59.552C20.2375 59.6581 19.5665 58.8347 19.0329 58.019C18.7173 57.5371 18.5077 56.9392 18.4619 56.38C18.374 55.3001 18.4354 54.2093 18.4354 53.0466C19.0004 52.8731 19.428 52.7426 19.8544 52.6111C20.0773 53.219 20.3001 53.828 20.5784 54.5851C21.1144 54.3397 21.5035 54.1662 21.883 53.9794C21.907 53.9672 21.8673 53.8457 21.854 53.7517C21.2 53.3748 20.5314 52.9891 19.8641 52.6034Z" fill="black"/>
<path d="M62.8972 50.5533C64.0608 50.4494 64.8462 50.9677 65.469 51.8132C65.9484 52.462 66.4712 53.0842 67.1771 53.9728C67.465 53.3252 67.6987 52.9848 67.7625 52.6189C67.9203 51.7093 67.5433 50.7301 68.1335 49.8735C69.6838 50.1277 70.0609 50.351 70.15 51.2938C70.303 52.9129 69.8549 54.4691 69.3586 56.002C69.2887 56.2165 68.8876 56.3402 68.5045 56.5967C67.7782 56.1402 67.053 55.7213 66.3748 55.2472C65.7496 54.8084 65.1738 54.3099 64.5728 53.8358C63.9163 53.9375 64.0873 54.4735 63.9235 54.8449C63.7572 55.2229 63.5031 55.5677 63.1983 56.0761C62.7851 55.7523 62.3298 55.5754 62.266 55.3157C61.9094 53.8833 61.8347 52.4333 62.3696 51.0152C62.437 50.8362 62.7008 50.719 62.8972 50.5533Z" fill="black"/>
<path d="M60.4064 50.1079C59.662 50.8119 58.9561 51.4795 58.1731 52.2189C58.832 52.5958 59.3861 52.913 59.9716 53.2479C59.568 54.7046 57.713 54.4249 57.0793 55.6296C57.6551 55.9645 58.2635 55.4528 58.8067 55.6341C58.891 56.5613 58.4947 57.2212 57.5985 57.6434C56.9504 57.9495 56.1807 57.8545 55.5953 57.3903C55.476 57.2941 55.3652 57.1869 55.2628 57.0753C54.1703 55.8739 53.9992 53.113 54.9231 51.6453C55.8603 50.1565 57.8973 49.3155 59.8523 49.6426C60.0354 49.6735 60.1775 49.909 60.4064 50.1079Z" fill="black"/>
<path d="M24.656 53.0489C24.9137 52.5184 25.1715 51.9879 25.4064 51.5049C26.711 50.6948 27.9963 50.6738 29.4803 51.1678C29.7345 51.705 30.0128 52.2952 30.3043 52.913C30.0128 53.7696 29.7333 54.5896 29.3936 55.5866H32.0666C31.745 56.6409 31.1077 57.167 30.2308 57.3461C29.1551 57.5649 28.0433 57.6345 27.041 57.7583C25.9846 57.2157 25.8075 56.3646 25.5763 55.497C25.3522 54.6604 24.9667 53.8602 24.6523 53.0445L24.656 53.0489Z" fill="black"/>
<path d="M34.9529 55.5633C33.4471 54.3432 32.198 52.8036 31.5378 50.896C32.3076 50.2704 32.8099 50.6517 33.2363 51.0816C33.5507 51.3988 33.7434 51.8155 34.0241 52.1648C34.247 52.4433 34.5192 52.6875 34.7324 52.9075C35.9671 52.7793 36.1635 51.3557 37.568 51.4663C37.7029 51.7514 38.0185 52.1172 38.0161 52.4809C38.0113 53.0501 37.7487 53.6115 37.6704 54.1851C37.4861 55.5368 36.7874 56.862 37.5463 58.0678C37.0247 58.7586 36.5224 58.7055 36.261 58.2701C35.7708 57.4489 35.4214 56.5547 34.9529 55.5633Z" fill="black"/>
<path d="M52.9387 77.2402C53.2387 76.6534 53.5374 76.0665 53.8422 75.4719C54.6806 74.8585 55.4864 75.0077 56.1887 75.6376C56.638 76.0411 56.9934 76.5351 57.3608 77.007C57.6812 77.4193 57.9594 77.8581 58.1968 78.1996C59.0424 78.5941 59.6868 78.6008 60.1446 77.9045C60.5843 77.0789 59.7109 76.1206 60.6083 75.2762C61.2287 75.3768 61.9201 75.4895 62.7561 75.6255C63.7246 75.1812 64.8256 74.7977 66.041 75.3459C67.189 75.8642 67.5155 76.5782 66.9854 77.6602C66.7638 78.1123 66.4976 78.5455 66.2061 79.0661C67.9154 80.084 69.7018 78.3123 71.4123 79.4076C70.8449 80.7118 69.6644 81.2799 68.3695 81.5573C67.036 81.8413 65.6905 81.6313 64.4968 80.9229C64.0222 81.4622 63.6367 81.8999 63.2404 82.3519C61.4226 82.0038 61.1986 80.6366 60.8444 79.3269C60.4277 79.4319 60.1349 79.506 59.9314 79.5568C59.1628 80.1702 59.8519 81.3252 58.5244 81.733C58.2317 81.5816 57.7788 81.3473 57.1488 81.0212C56.1502 81.2467 55.0082 81.5042 53.6928 81.8004C53.1965 81.7208 53.0002 81.2334 52.9785 80.7085C52.9496 79.9823 53.0315 79.2518 53.0339 78.5234C53.0351 78.0935 52.9749 77.6635 52.9423 77.2347L52.9387 77.2402Z" fill="black"/>
<path d="M42.7325 80.094C43.4541 80.2354 44.1335 80.3681 44.7298 80.4852C45.1851 81.0887 44.7876 81.4037 44.419 81.6623C43.7275 82.1497 42.9156 82.1751 42.1519 81.8833C41.5063 81.638 40.9269 81.2467 40.2463 80.8809C39.9909 81.3219 39.7138 81.7993 39.4561 82.2436C38.1672 82.2613 37.8275 82.1486 37.7154 81.5065C37.4432 79.9304 37.2384 78.3444 36.9927 76.6777C38.7646 76.0356 40.5306 75.7913 42.3615 75.9538C43.0819 76.0179 43.7781 76.187 44.154 76.9419C44.2154 78.1222 42.653 78.7633 42.7325 80.094Z" fill="black"/>
<path d="M52.9418 77.2346C52.2756 78.0127 52.1154 78.9334 51.9805 79.8839C51.7323 81.6213 51.059 82.1264 49.1413 82.0645C48.6787 82.0501 48.221 81.912 47.8415 81.8434C45.9864 79.5534 45.7263 77.8016 46.9152 75.3944C47.3103 75.495 47.7295 75.6022 48.2294 75.7304C48.3173 76.1935 48.3366 76.6279 48.486 77.0202C48.8967 78.0967 49.7086 78.2061 50.7807 77.354C50.8446 76.3527 49.3111 75.9857 49.6159 74.7689C50.6265 74.6318 51.3445 75.2209 52.1768 75.663C52.4274 76.1813 52.6828 76.7108 52.9381 77.2402L52.9418 77.2346Z" fill="black"/>
</svg>
